G75*
%MOIN*%
%OFA0B0*%
%FSLAX25Y25*%
%IPPOS*%
%LPD*%
%AMOC8*
5,1,8,0,0,1.08239X$1,22.5*
%
%ADD10R,0.20000X0.40000*%
%ADD11R,0.04724X0.02165*%
%ADD12R,0.12598X0.07087*%
%ADD13R,0.29000X0.16000*%
%ADD14R,0.15000X0.18500*%
%ADD15R,0.21000X0.22000*%
%ADD16R,0.04331X0.03937*%
%ADD17R,0.03937X0.04331*%
%ADD18R,0.05906X0.01181*%
%ADD19R,0.01772X0.05709*%
%ADD20R,0.12992X0.09449*%
%ADD21R,0.02362X0.02756*%
%ADD22R,0.03543X0.03150*%
%ADD23R,0.02362X0.08661*%
%ADD24R,0.02953X0.05118*%
%ADD25R,0.03500X0.03500*%
%ADD26R,0.05118X0.02953*%
%ADD27R,0.03150X0.02362*%
%ADD28R,0.05906X0.06299*%
%ADD29R,0.04724X0.04724*%
%ADD30R,0.40000X0.20000*%
%ADD31C,0.01181*%
D10*
X0021547Y0256171D03*
X0345602Y0287667D03*
X0345602Y0206959D03*
D11*
X0045602Y0188061D03*
X0045602Y0184321D03*
X0045602Y0180581D03*
X0035365Y0180581D03*
X0035365Y0188061D03*
D12*
X0050326Y0236289D03*
X0050326Y0258337D03*
X0326901Y0212077D03*
X0326901Y0190030D03*
D13*
X0290484Y0276313D03*
X0097571Y0276313D03*
D14*
X0118071Y0212063D03*
X0077071Y0212063D03*
X0269984Y0212063D03*
X0310984Y0212063D03*
D15*
X0214027Y0198257D03*
X0174027Y0198257D03*
D16*
X0177649Y0181683D03*
X0184342Y0181683D03*
X0200760Y0182234D03*
X0207452Y0182234D03*
X0224145Y0158730D03*
X0230838Y0158730D03*
X0289106Y0187274D03*
X0295799Y0187274D03*
X0309775Y0189242D03*
X0316468Y0189242D03*
X0316468Y0197116D03*
X0309775Y0197116D03*
X0311744Y0283730D03*
X0318437Y0283730D03*
X0043830Y0196132D03*
X0037138Y0196132D03*
D17*
X0142531Y0018848D03*
X0142531Y0025541D03*
X0142531Y0031880D03*
X0142531Y0038573D03*
X0172531Y0037510D03*
X0172531Y0030817D03*
X0170405Y0101644D03*
X0170405Y0108337D03*
X0162531Y0108337D03*
X0162531Y0101644D03*
X0216665Y0149478D03*
X0216665Y0156171D03*
X0303295Y0189833D03*
X0303295Y0196526D03*
X0310366Y0043022D03*
X0310366Y0036329D03*
X0317413Y0036329D03*
X0317413Y0043022D03*
X0324460Y0043022D03*
X0324460Y0036329D03*
X0331508Y0036329D03*
X0331508Y0043022D03*
X0124145Y0272510D03*
X0124145Y0279203D03*
X0044421Y0211289D03*
X0044421Y0204596D03*
X0036547Y0204596D03*
X0036547Y0211289D03*
X0028673Y0211289D03*
X0028673Y0204596D03*
X0020799Y0204596D03*
X0020799Y0211289D03*
X0012925Y0211289D03*
X0012925Y0204596D03*
X0027689Y0187667D03*
X0027689Y0180974D03*
X0023752Y0169951D03*
X0023752Y0163258D03*
X0013909Y0163258D03*
X0013909Y0169951D03*
X0036547Y0169951D03*
X0036547Y0163258D03*
X0045405Y0163258D03*
X0045405Y0169951D03*
D18*
X0297374Y0174478D03*
X0297374Y0176447D03*
X0297374Y0178415D03*
X0297374Y0180384D03*
X0297374Y0182352D03*
X0315090Y0182352D03*
X0315090Y0180384D03*
X0315090Y0178415D03*
X0315090Y0176447D03*
X0315090Y0174478D03*
D19*
X0019716Y0179596D03*
X0017157Y0179596D03*
X0014598Y0179596D03*
X0012039Y0179596D03*
X0012039Y0196919D03*
X0014598Y0196919D03*
X0017157Y0196919D03*
X0019716Y0196919D03*
D20*
X0050326Y0270935D03*
X0050326Y0294557D03*
X0345602Y0259124D03*
X0345602Y0235502D03*
D21*
X0317886Y0277825D03*
X0312256Y0277825D03*
D22*
X0254067Y0312470D03*
X0254067Y0319951D03*
X0245799Y0316211D03*
X0200917Y0319951D03*
X0200917Y0312470D03*
X0192649Y0316211D03*
X0147767Y0319951D03*
X0147767Y0312470D03*
X0139500Y0316211D03*
X0180563Y0037904D03*
X0180563Y0030423D03*
X0188830Y0034163D03*
D23*
X0189578Y0152274D03*
X0194578Y0152274D03*
X0199578Y0152274D03*
X0204578Y0152274D03*
X0209578Y0152274D03*
X0209578Y0172746D03*
X0204578Y0172746D03*
X0199578Y0172746D03*
X0194578Y0172746D03*
X0189578Y0172746D03*
X0184578Y0172746D03*
X0179578Y0172746D03*
X0179578Y0152274D03*
X0184578Y0152274D03*
D24*
X0170031Y0159262D03*
X0165031Y0159262D03*
X0160031Y0159262D03*
X0155031Y0159262D03*
X0155031Y0181506D03*
X0160031Y0181506D03*
X0165031Y0181506D03*
X0170031Y0181506D03*
D25*
X0169281Y0175634D03*
X0164781Y0175634D03*
X0160281Y0175634D03*
X0160281Y0171134D03*
X0160281Y0166634D03*
X0164781Y0166634D03*
X0164781Y0171134D03*
X0169281Y0171134D03*
X0169281Y0166634D03*
X0155781Y0166634D03*
X0155781Y0171134D03*
X0155781Y0175634D03*
X0147580Y0191350D03*
X0143080Y0191350D03*
X0138580Y0191350D03*
X0138580Y0195850D03*
X0143080Y0195850D03*
X0147580Y0195850D03*
X0147580Y0200350D03*
X0143080Y0200350D03*
X0138580Y0200350D03*
X0138580Y0204850D03*
X0143080Y0204850D03*
X0147580Y0204850D03*
D26*
X0154952Y0205600D03*
X0154952Y0200600D03*
X0154952Y0195600D03*
X0154952Y0190600D03*
X0132708Y0190600D03*
X0132708Y0195600D03*
X0132708Y0200600D03*
X0132708Y0205600D03*
D27*
X0189106Y0189124D03*
X0198949Y0189124D03*
D28*
X0223752Y0170541D03*
D29*
X0233004Y0166604D03*
X0233004Y0174478D03*
D30*
X0044421Y0313258D03*
D31*
X0308988Y0028718D02*
X0311744Y0028718D01*
X0308988Y0028718D02*
X0308988Y0031474D01*
X0311744Y0031474D01*
X0311744Y0028718D01*
X0311744Y0029898D02*
X0308988Y0029898D01*
X0308988Y0031078D02*
X0311744Y0031078D01*
X0315956Y0028718D02*
X0318712Y0028718D01*
X0315956Y0028718D02*
X0315956Y0031474D01*
X0318712Y0031474D01*
X0318712Y0028718D01*
X0318712Y0029898D02*
X0315956Y0029898D01*
X0315956Y0031078D02*
X0318712Y0031078D01*
X0323082Y0028718D02*
X0325838Y0028718D01*
X0323082Y0028718D02*
X0323082Y0031474D01*
X0325838Y0031474D01*
X0325838Y0028718D01*
X0325838Y0029898D02*
X0323082Y0029898D01*
X0323082Y0031078D02*
X0325838Y0031078D01*
X0330130Y0028718D02*
X0332886Y0028718D01*
X0330130Y0028718D02*
X0330130Y0031474D01*
X0332886Y0031474D01*
X0332886Y0028718D01*
X0332886Y0029898D02*
X0330130Y0029898D01*
X0330130Y0031078D02*
X0332886Y0031078D01*
X0332886Y0021813D02*
X0330130Y0021813D01*
X0330130Y0024569D01*
X0332886Y0024569D01*
X0332886Y0021813D01*
X0332886Y0022993D02*
X0330130Y0022993D01*
X0330130Y0024173D02*
X0332886Y0024173D01*
X0325838Y0021813D02*
X0323082Y0021813D01*
X0323082Y0024569D01*
X0325838Y0024569D01*
X0325838Y0021813D01*
X0325838Y0022993D02*
X0323082Y0022993D01*
X0323082Y0024173D02*
X0325838Y0024173D01*
X0318712Y0021813D02*
X0315956Y0021813D01*
X0315956Y0024569D01*
X0318712Y0024569D01*
X0318712Y0021813D01*
X0318712Y0022993D02*
X0315956Y0022993D01*
X0315956Y0024173D02*
X0318712Y0024173D01*
X0311744Y0021813D02*
X0308988Y0021813D01*
X0308988Y0024569D01*
X0311744Y0024569D01*
X0311744Y0021813D01*
X0311744Y0022993D02*
X0308988Y0022993D01*
X0308988Y0024173D02*
X0311744Y0024173D01*
M02*
