G75*
%MOIN*%
%OFA0B0*%
%FSLAX25Y25*%
%IPPOS*%
%LPD*%
%AMOC8*
5,1,8,0,0,1.08239X$1,22.5*
%
%ADD10C,0.00400*%
%ADD11C,0.00600*%
%ADD12C,0.00300*%
%ADD13C,0.00100*%
%ADD14C,0.00800*%
%ADD15C,0.00500*%
%ADD16C,0.00197*%
%ADD17C,0.00200*%
%ADD18R,0.02362X0.04331*%
D10*
X0027649Y0031254D02*
X0032252Y0031254D01*
X0054951Y0052789D02*
X0054951Y0055858D01*
X0053416Y0054323D02*
X0056485Y0054323D01*
X0090641Y0070624D02*
X0095245Y0070624D01*
X0117943Y0092159D02*
X0117943Y0095228D01*
X0116408Y0093693D02*
X0119477Y0093693D01*
X0102192Y0143021D02*
X0105447Y0146277D01*
X0106270Y0177554D02*
X0104100Y0179724D01*
X0106270Y0179724D02*
X0104100Y0177554D01*
X0056485Y0133063D02*
X0053416Y0133063D01*
X0054951Y0131529D02*
X0054951Y0134598D01*
X0032252Y0109994D02*
X0027649Y0109994D01*
X0112429Y0026165D02*
X0115499Y0026165D01*
X0110999Y0021165D02*
X0107929Y0021165D01*
X0109464Y0022700D02*
X0109464Y0019631D01*
X0220513Y0072316D02*
X0220513Y0075786D01*
X0220513Y0077473D02*
X0225717Y0077473D01*
X0225717Y0080942D01*
X0225717Y0082629D02*
X0225717Y0086099D01*
X0225717Y0087785D02*
X0220513Y0087785D01*
X0225717Y0091255D01*
X0220513Y0091255D01*
X0221380Y0092942D02*
X0222247Y0092942D01*
X0223115Y0093809D01*
X0223115Y0095544D01*
X0223982Y0096411D01*
X0224850Y0096411D01*
X0225717Y0095544D01*
X0225717Y0093809D01*
X0224850Y0092942D01*
X0221380Y0092942D02*
X0220513Y0093809D01*
X0220513Y0095544D01*
X0221380Y0096411D01*
X0221380Y0098098D02*
X0223115Y0099833D01*
X0225717Y0099833D01*
X0223115Y0099833D02*
X0221380Y0101568D01*
X0220513Y0101568D01*
X0220513Y0098098D02*
X0221380Y0098098D01*
X0221380Y0108411D02*
X0220513Y0109278D01*
X0220513Y0111013D01*
X0221380Y0111881D01*
X0222247Y0111881D01*
X0223115Y0111013D01*
X0223982Y0111881D01*
X0224850Y0111881D01*
X0225717Y0111013D01*
X0225717Y0109278D01*
X0224850Y0108411D01*
X0223115Y0110146D02*
X0223115Y0111013D01*
X0224850Y0113567D02*
X0224850Y0114435D01*
X0225717Y0114435D01*
X0225717Y0113567D01*
X0224850Y0113567D01*
X0225717Y0116146D02*
X0222247Y0119615D01*
X0221380Y0119615D01*
X0220513Y0118748D01*
X0220513Y0117013D01*
X0221380Y0116146D01*
X0225717Y0116146D02*
X0225717Y0119615D01*
X0255011Y0127711D02*
X0259615Y0127711D01*
X0282313Y0149245D02*
X0282313Y0152315D01*
X0280778Y0150780D02*
X0283847Y0150780D01*
X0335964Y0175004D02*
X0335964Y0178073D01*
X0336731Y0179607D02*
X0339800Y0179607D01*
X0340567Y0180375D01*
X0340567Y0181909D01*
X0339800Y0182677D01*
X0336731Y0182677D02*
X0335964Y0181909D01*
X0335964Y0180375D01*
X0336731Y0179607D01*
X0338265Y0176538D02*
X0338265Y0175004D01*
X0335964Y0175004D02*
X0340567Y0175004D01*
X0343464Y0175771D02*
X0343464Y0177306D01*
X0343464Y0176538D02*
X0348067Y0176538D01*
X0348067Y0175771D02*
X0348067Y0177306D01*
X0348067Y0178840D02*
X0343464Y0178840D01*
X0348067Y0181909D01*
X0343464Y0181909D01*
X0351731Y0178840D02*
X0354800Y0178840D01*
X0353265Y0177306D02*
X0353265Y0180375D01*
X0353267Y0244513D02*
X0350198Y0244513D01*
X0351733Y0244513D02*
X0351733Y0249117D01*
X0350198Y0247582D01*
X0348663Y0248350D02*
X0347896Y0249117D01*
X0346362Y0249117D01*
X0345594Y0248350D01*
X0345594Y0247582D01*
X0346362Y0246815D01*
X0347896Y0246815D01*
X0348663Y0246048D01*
X0348663Y0245280D01*
X0347896Y0244513D01*
X0346362Y0244513D01*
X0345594Y0245280D01*
X0344060Y0246048D02*
X0344060Y0249117D01*
X0344060Y0246048D02*
X0342525Y0244513D01*
X0340990Y0246048D01*
X0340990Y0249117D01*
X0339456Y0249117D02*
X0336386Y0249117D01*
X0337921Y0249117D02*
X0337921Y0244513D01*
X0305263Y0245013D02*
X0302194Y0248082D01*
X0300659Y0248082D02*
X0297590Y0245013D01*
X0296055Y0245780D02*
X0295288Y0245013D01*
X0293753Y0245013D01*
X0292986Y0245780D01*
X0296055Y0248850D01*
X0296055Y0245780D01*
X0297590Y0248082D02*
X0300659Y0245013D01*
X0302194Y0245013D02*
X0305263Y0248082D01*
X0296055Y0248850D02*
X0295288Y0249617D01*
X0293753Y0249617D01*
X0292986Y0248850D01*
X0292986Y0245780D01*
X0291451Y0245013D02*
X0288382Y0245013D01*
X0291451Y0248082D01*
X0291451Y0248850D01*
X0290684Y0249617D01*
X0289149Y0249617D01*
X0288382Y0248850D01*
X0286847Y0248850D02*
X0286847Y0247315D01*
X0286080Y0246548D01*
X0283778Y0246548D01*
X0285313Y0246548D02*
X0286847Y0245013D01*
X0283778Y0245013D02*
X0283778Y0249617D01*
X0286080Y0249617D01*
X0286847Y0248850D01*
X0282243Y0249617D02*
X0279174Y0249617D01*
X0279174Y0245013D01*
X0282243Y0245013D01*
X0280709Y0247315D02*
X0279174Y0247315D01*
X0277639Y0246548D02*
X0276872Y0247315D01*
X0275338Y0247315D01*
X0274570Y0248082D01*
X0274570Y0248850D01*
X0275338Y0249617D01*
X0276872Y0249617D01*
X0277639Y0248850D01*
X0277639Y0246548D02*
X0277639Y0245780D01*
X0276872Y0245013D01*
X0275338Y0245013D01*
X0274570Y0245780D01*
X0263357Y0257513D02*
X0260288Y0257513D01*
X0261823Y0257513D02*
X0261823Y0262117D01*
X0260288Y0260582D01*
X0258753Y0257513D02*
X0255684Y0257513D01*
X0255684Y0262117D01*
X0269844Y0300455D02*
X0269844Y0303524D01*
X0266379Y0306490D02*
X0263310Y0306490D01*
X0264844Y0308024D02*
X0264844Y0304955D01*
X0286432Y0317474D02*
X0286432Y0318241D01*
X0289501Y0321310D01*
X0289501Y0322078D01*
X0286432Y0322078D01*
X0291036Y0321310D02*
X0291036Y0320543D01*
X0291803Y0319776D01*
X0293338Y0319776D01*
X0294105Y0319008D01*
X0294105Y0318241D01*
X0293338Y0317474D01*
X0291803Y0317474D01*
X0291036Y0318241D01*
X0291036Y0319008D01*
X0291803Y0319776D01*
X0293338Y0319776D02*
X0294105Y0320543D01*
X0294105Y0321310D01*
X0293338Y0322078D01*
X0291803Y0322078D01*
X0291036Y0321310D01*
X0295640Y0322078D02*
X0295640Y0317474D01*
X0298709Y0317474D01*
X0300244Y0318241D02*
X0301011Y0317474D01*
X0302546Y0317474D01*
X0303313Y0318241D01*
X0303313Y0319008D01*
X0302546Y0319776D01*
X0301778Y0319776D01*
X0302546Y0319776D02*
X0303313Y0320543D01*
X0303313Y0321310D01*
X0302546Y0322078D01*
X0301011Y0322078D01*
X0300244Y0321310D01*
X0298709Y0322078D02*
X0295640Y0322078D01*
X0295640Y0319776D02*
X0297174Y0319776D01*
X0304848Y0318241D02*
X0304848Y0317474D01*
X0305615Y0317474D01*
X0305615Y0318241D01*
X0304848Y0318241D01*
X0307150Y0318241D02*
X0307917Y0317474D01*
X0309452Y0317474D01*
X0310219Y0318241D01*
X0310219Y0319008D01*
X0309452Y0319776D01*
X0308684Y0319776D01*
X0309452Y0319776D02*
X0310219Y0320543D01*
X0310219Y0321310D01*
X0309452Y0322078D01*
X0307917Y0322078D01*
X0307150Y0321310D01*
X0330932Y0320909D02*
X0330932Y0319375D01*
X0331699Y0318607D01*
X0334769Y0318607D01*
X0335536Y0319375D01*
X0335536Y0320909D01*
X0334769Y0321677D01*
X0335932Y0320909D02*
X0335932Y0323211D01*
X0336699Y0323979D01*
X0339769Y0323979D01*
X0340536Y0323211D01*
X0340536Y0320909D01*
X0335932Y0320909D01*
X0335932Y0319375D02*
X0340536Y0319375D01*
X0335932Y0316306D01*
X0340536Y0316306D01*
X0339769Y0314771D02*
X0338234Y0314771D01*
X0338234Y0313236D01*
X0339769Y0311702D02*
X0340536Y0312469D01*
X0340536Y0314004D01*
X0339769Y0314771D01*
X0339769Y0311702D02*
X0336699Y0311702D01*
X0335932Y0312469D01*
X0335932Y0314004D01*
X0336699Y0314771D01*
X0335536Y0314004D02*
X0330932Y0314004D01*
X0330932Y0317073D01*
X0333234Y0315538D02*
X0333234Y0314004D01*
X0330932Y0320909D02*
X0331699Y0321677D01*
X0227349Y0318213D02*
X0224280Y0318213D01*
X0221314Y0314747D02*
X0221314Y0311678D01*
X0219780Y0313213D02*
X0222849Y0313213D01*
X0174199Y0318213D02*
X0171130Y0318213D01*
X0168165Y0314747D02*
X0168165Y0311678D01*
X0166630Y0313213D02*
X0169699Y0313213D01*
X0151133Y0289561D02*
X0149599Y0289561D01*
X0148831Y0288793D01*
X0151133Y0289561D02*
X0151900Y0288793D01*
X0151900Y0288026D01*
X0148831Y0284957D01*
X0151900Y0284957D01*
X0147297Y0284957D02*
X0144227Y0284957D01*
X0144227Y0289561D01*
X0127128Y0300455D02*
X0127128Y0303524D01*
X0123662Y0306490D02*
X0120593Y0306490D01*
X0122128Y0304955D02*
X0122128Y0308024D01*
X0084808Y0314363D02*
X0081739Y0314363D01*
X0084808Y0317433D01*
X0084808Y0318200D01*
X0084041Y0318967D01*
X0082506Y0318967D01*
X0081739Y0318200D01*
X0078670Y0318967D02*
X0078670Y0314363D01*
X0080204Y0314363D02*
X0077135Y0314363D01*
X0075601Y0315131D02*
X0074833Y0314363D01*
X0073299Y0314363D01*
X0072531Y0315131D01*
X0072531Y0315898D01*
X0073299Y0316665D01*
X0074833Y0316665D01*
X0075601Y0315898D01*
X0075601Y0315131D01*
X0074833Y0316665D02*
X0075601Y0317433D01*
X0075601Y0318200D01*
X0074833Y0318967D01*
X0073299Y0318967D01*
X0072531Y0318200D01*
X0072531Y0317433D01*
X0073299Y0316665D01*
X0070997Y0318200D02*
X0067927Y0315131D01*
X0067927Y0314363D01*
X0067927Y0318967D02*
X0070997Y0318967D01*
X0070997Y0318200D01*
X0077135Y0317433D02*
X0078670Y0318967D01*
X0057224Y0284550D02*
X0055690Y0284550D01*
X0054923Y0283783D01*
X0053388Y0283783D02*
X0052621Y0284550D01*
X0051086Y0284550D01*
X0050319Y0283783D01*
X0050319Y0283015D01*
X0051086Y0282248D01*
X0052621Y0282248D01*
X0053388Y0281481D01*
X0053388Y0280713D01*
X0052621Y0279946D01*
X0051086Y0279946D01*
X0050319Y0280713D01*
X0048784Y0281481D02*
X0048784Y0284550D01*
X0048784Y0281481D02*
X0047249Y0279946D01*
X0045715Y0281481D01*
X0045715Y0284550D01*
X0044180Y0284550D02*
X0041111Y0284550D01*
X0042645Y0284550D02*
X0042645Y0279946D01*
X0054923Y0279946D02*
X0057992Y0283015D01*
X0057992Y0283783D01*
X0057224Y0284550D01*
X0057992Y0279946D02*
X0054923Y0279946D01*
X0062771Y0262117D02*
X0062771Y0257513D01*
X0065840Y0257513D01*
X0067375Y0258280D02*
X0068142Y0257513D01*
X0069676Y0257513D01*
X0070444Y0258280D01*
X0070444Y0259048D01*
X0069676Y0259815D01*
X0068909Y0259815D01*
X0069676Y0259815D02*
X0070444Y0260582D01*
X0070444Y0261350D01*
X0069676Y0262117D01*
X0068142Y0262117D01*
X0067375Y0261350D01*
X0081657Y0248850D02*
X0081657Y0248082D01*
X0082424Y0247315D01*
X0083959Y0247315D01*
X0084726Y0246548D01*
X0084726Y0245780D01*
X0083959Y0245013D01*
X0082424Y0245013D01*
X0081657Y0245780D01*
X0081657Y0248850D02*
X0082424Y0249617D01*
X0083959Y0249617D01*
X0084726Y0248850D01*
X0086261Y0249617D02*
X0086261Y0245013D01*
X0089330Y0245013D01*
X0090865Y0245013D02*
X0090865Y0249617D01*
X0093167Y0249617D01*
X0093934Y0248850D01*
X0093934Y0247315D01*
X0093167Y0246548D01*
X0090865Y0246548D01*
X0092399Y0246548D02*
X0093934Y0245013D01*
X0095469Y0245013D02*
X0098538Y0248082D01*
X0098538Y0248850D01*
X0097771Y0249617D01*
X0096236Y0249617D01*
X0095469Y0248850D01*
X0095469Y0245013D02*
X0098538Y0245013D01*
X0100073Y0245780D02*
X0103142Y0248850D01*
X0103142Y0245780D01*
X0102374Y0245013D01*
X0100840Y0245013D01*
X0100073Y0245780D01*
X0100073Y0248850D01*
X0100840Y0249617D01*
X0102374Y0249617D01*
X0103142Y0248850D01*
X0104676Y0248082D02*
X0107746Y0245013D01*
X0109280Y0245013D02*
X0112350Y0248082D01*
X0112350Y0245013D02*
X0109280Y0248082D01*
X0107746Y0248082D02*
X0104676Y0245013D01*
X0089330Y0249617D02*
X0086261Y0249617D01*
X0086261Y0247315D02*
X0087795Y0247315D01*
X0039298Y0295871D02*
X0039298Y0296638D01*
X0038531Y0297406D01*
X0036996Y0297406D01*
X0036229Y0298173D01*
X0036229Y0298940D01*
X0036996Y0299707D01*
X0038531Y0299707D01*
X0039298Y0298940D01*
X0039298Y0295871D02*
X0038531Y0295104D01*
X0036996Y0295104D01*
X0036229Y0295871D01*
X0034694Y0295871D02*
X0034694Y0298940D01*
X0033927Y0299707D01*
X0032392Y0299707D01*
X0031625Y0298940D01*
X0031625Y0295871D02*
X0032392Y0295104D01*
X0033927Y0295104D01*
X0034694Y0295871D01*
X0025486Y0295871D02*
X0025486Y0298940D01*
X0024719Y0299707D01*
X0023184Y0299707D01*
X0022417Y0298940D01*
X0022417Y0295871D01*
X0023184Y0295104D01*
X0024719Y0295104D01*
X0025486Y0295871D01*
X0020882Y0295104D02*
X0020882Y0298940D01*
X0020115Y0299707D01*
X0018580Y0299707D01*
X0017813Y0298940D01*
X0017813Y0295104D01*
X0016279Y0295104D02*
X0013209Y0295104D01*
X0014744Y0295104D02*
X0014744Y0299707D01*
X0007071Y0297406D02*
X0004001Y0297406D01*
X0005536Y0295871D02*
X0005536Y0298940D01*
X0190681Y0191289D02*
X0197374Y0191289D01*
X0197374Y0186959D02*
X0190681Y0186959D01*
X0220513Y0086099D02*
X0220513Y0082629D01*
X0225717Y0082629D01*
X0223115Y0082629D02*
X0223115Y0084364D01*
X0220513Y0080942D02*
X0220513Y0077473D01*
X0223115Y0077473D02*
X0223115Y0079207D01*
X0225717Y0074051D02*
X0220513Y0074051D01*
X0243200Y0033222D02*
X0247804Y0033222D01*
X0270502Y0054757D02*
X0270502Y0057826D01*
X0272036Y0056292D02*
X0268967Y0056292D01*
X0306192Y0072593D02*
X0310796Y0072593D01*
X0333494Y0094127D02*
X0333494Y0097196D01*
X0335028Y0095662D02*
X0331959Y0095662D01*
D11*
X0332701Y0194754D02*
X0332701Y0207451D01*
X0321102Y0207451D02*
X0321102Y0194754D01*
X0217934Y0246307D02*
X0213664Y0246307D01*
X0213664Y0252712D01*
X0211489Y0250577D02*
X0211489Y0246307D01*
X0211489Y0249509D02*
X0207218Y0249509D01*
X0207218Y0250577D02*
X0207218Y0246307D01*
X0205043Y0249509D02*
X0200773Y0249509D01*
X0198598Y0251645D02*
X0194327Y0247374D01*
X0194327Y0246307D01*
X0192152Y0247374D02*
X0191084Y0246307D01*
X0188949Y0246307D01*
X0187882Y0247374D01*
X0187882Y0248442D01*
X0188949Y0249509D01*
X0191084Y0249509D01*
X0192152Y0248442D01*
X0192152Y0247374D01*
X0191084Y0249509D02*
X0192152Y0250577D01*
X0192152Y0251645D01*
X0191084Y0252712D01*
X0188949Y0252712D01*
X0187882Y0251645D01*
X0187882Y0250577D01*
X0188949Y0249509D01*
X0185707Y0251645D02*
X0181436Y0247374D01*
X0181436Y0246307D01*
X0179261Y0246307D02*
X0174991Y0246307D01*
X0177126Y0246307D02*
X0177126Y0252712D01*
X0174991Y0250577D01*
X0172816Y0251645D02*
X0172816Y0247374D01*
X0171748Y0246307D01*
X0168545Y0246307D01*
X0168545Y0252712D01*
X0171748Y0252712D01*
X0172816Y0251645D01*
X0173359Y0256807D02*
X0174427Y0257874D01*
X0173359Y0256807D02*
X0171224Y0256807D01*
X0170157Y0257874D01*
X0170157Y0262145D01*
X0171224Y0263212D01*
X0173359Y0263212D01*
X0174427Y0262145D01*
X0176602Y0260009D02*
X0176602Y0257874D01*
X0177670Y0256807D01*
X0179805Y0256807D01*
X0180872Y0257874D01*
X0180872Y0260009D01*
X0179805Y0261077D01*
X0177670Y0261077D01*
X0176602Y0260009D01*
X0183048Y0261077D02*
X0184115Y0261077D01*
X0184115Y0256807D01*
X0183048Y0256807D02*
X0185183Y0256807D01*
X0187345Y0256807D02*
X0189480Y0256807D01*
X0188412Y0256807D02*
X0188412Y0263212D01*
X0187345Y0263212D01*
X0184115Y0263212D02*
X0184115Y0264280D01*
X0191642Y0260009D02*
X0191642Y0257874D01*
X0192709Y0256807D01*
X0195912Y0256807D01*
X0198087Y0256807D02*
X0198087Y0261077D01*
X0198087Y0258942D02*
X0200222Y0261077D01*
X0201290Y0261077D01*
X0204526Y0261077D02*
X0206661Y0261077D01*
X0207729Y0260009D01*
X0207729Y0256807D01*
X0204526Y0256807D01*
X0203458Y0257874D01*
X0204526Y0258942D01*
X0207729Y0258942D01*
X0209904Y0260009D02*
X0212039Y0260009D01*
X0210971Y0262145D02*
X0210971Y0256807D01*
X0215268Y0257874D02*
X0215268Y0262145D01*
X0214201Y0261077D02*
X0216336Y0261077D01*
X0215268Y0257874D02*
X0216336Y0256807D01*
X0210971Y0262145D02*
X0212039Y0263212D01*
X0209353Y0252712D02*
X0211489Y0250577D01*
X0209353Y0252712D02*
X0207218Y0250577D01*
X0198598Y0251645D02*
X0198598Y0252712D01*
X0194327Y0252712D01*
X0191642Y0260009D02*
X0192709Y0261077D01*
X0195912Y0261077D01*
X0185707Y0252712D02*
X0185707Y0251645D01*
X0185707Y0252712D02*
X0181436Y0252712D01*
X0056126Y0253711D02*
X0056126Y0241014D01*
X0044527Y0241014D02*
X0044527Y0253711D01*
X0104237Y0042837D02*
X0106372Y0042837D01*
X0105305Y0042837D02*
X0105305Y0036432D01*
X0106372Y0036432D02*
X0104237Y0036432D01*
X0108534Y0036432D02*
X0112805Y0040702D01*
X0112805Y0041770D01*
X0111737Y0042837D01*
X0109602Y0042837D01*
X0108534Y0041770D01*
X0108534Y0036432D02*
X0112805Y0036432D01*
X0114980Y0037499D02*
X0116047Y0036432D01*
X0118182Y0036432D01*
X0119250Y0037499D01*
X0114980Y0037499D02*
X0114980Y0041770D01*
X0116047Y0042837D01*
X0118182Y0042837D01*
X0119250Y0041770D01*
D12*
X0139531Y0041226D02*
X0139531Y0029226D01*
X0145531Y0029226D01*
X0145531Y0041226D01*
X0139531Y0041226D01*
X0139531Y0028195D02*
X0145531Y0028195D01*
X0145531Y0016195D01*
X0139531Y0016195D01*
X0139531Y0028195D01*
X0127687Y0011969D02*
X0127687Y0009066D01*
X0129622Y0009066D01*
X0126676Y0009550D02*
X0126192Y0009066D01*
X0125225Y0009066D01*
X0124741Y0009550D01*
X0124741Y0011485D01*
X0125225Y0011969D01*
X0126192Y0011969D01*
X0126676Y0011485D01*
X0123729Y0011485D02*
X0123246Y0011969D01*
X0122278Y0011969D01*
X0121794Y0011485D01*
X0121794Y0011001D01*
X0122278Y0010517D01*
X0123246Y0010517D01*
X0123729Y0010034D01*
X0123729Y0009550D01*
X0123246Y0009066D01*
X0122278Y0009066D01*
X0121794Y0009550D01*
X0100430Y0009066D02*
X0100430Y0011001D01*
X0099463Y0011969D01*
X0098496Y0011001D01*
X0098496Y0009066D01*
X0097484Y0009550D02*
X0097484Y0011485D01*
X0097000Y0011969D01*
X0095549Y0011969D01*
X0095549Y0009066D01*
X0097000Y0009066D01*
X0097484Y0009550D01*
X0098496Y0010517D02*
X0100430Y0010517D01*
X0094537Y0010034D02*
X0094537Y0009550D01*
X0094054Y0009066D01*
X0093086Y0009066D01*
X0092602Y0009550D01*
X0093086Y0010517D02*
X0094054Y0010517D01*
X0094537Y0010034D01*
X0094537Y0011485D02*
X0094054Y0011969D01*
X0093086Y0011969D01*
X0092602Y0011485D01*
X0092602Y0011001D01*
X0093086Y0010517D01*
X0048388Y0040856D02*
X0047771Y0040239D01*
X0046537Y0040239D01*
X0045919Y0040856D01*
X0044705Y0042090D02*
X0042236Y0042090D01*
X0041022Y0042707D02*
X0041022Y0043325D01*
X0040405Y0043942D01*
X0039170Y0043942D01*
X0038553Y0043325D01*
X0037339Y0043325D02*
X0036721Y0043942D01*
X0035487Y0043942D01*
X0034870Y0043325D01*
X0034870Y0040856D01*
X0035487Y0040239D01*
X0036721Y0040239D01*
X0037339Y0040856D01*
X0038553Y0040239D02*
X0041022Y0042707D01*
X0041022Y0040239D02*
X0038553Y0040239D01*
X0045919Y0043325D02*
X0046537Y0043942D01*
X0047771Y0043942D01*
X0048388Y0043325D01*
X0048388Y0042707D01*
X0047771Y0042090D01*
X0048388Y0041473D01*
X0048388Y0040856D01*
X0047771Y0042090D02*
X0047154Y0042090D01*
X0097862Y0080226D02*
X0098479Y0079609D01*
X0099714Y0079609D01*
X0100331Y0080226D01*
X0101545Y0079609D02*
X0104014Y0082077D01*
X0104014Y0082695D01*
X0103397Y0083312D01*
X0102162Y0083312D01*
X0101545Y0082695D01*
X0100331Y0082695D02*
X0099714Y0083312D01*
X0098479Y0083312D01*
X0097862Y0082695D01*
X0097862Y0080226D01*
X0101545Y0079609D02*
X0104014Y0079609D01*
X0105228Y0081460D02*
X0107697Y0081460D01*
X0108911Y0081460D02*
X0111380Y0081460D01*
X0110763Y0079609D02*
X0110763Y0083312D01*
X0108911Y0081460D01*
X0159531Y0098990D02*
X0159531Y0110990D01*
X0165531Y0110990D01*
X0165531Y0098990D01*
X0159531Y0098990D01*
X0167405Y0098990D02*
X0167405Y0110990D01*
X0173405Y0110990D01*
X0173405Y0098990D01*
X0167405Y0098990D01*
X0213665Y0146825D02*
X0213665Y0158825D01*
X0219665Y0158825D01*
X0219665Y0146825D01*
X0213665Y0146825D01*
X0221492Y0155730D02*
X0221492Y0161730D01*
X0233492Y0161730D01*
X0233492Y0155730D01*
X0221492Y0155730D01*
X0203559Y0161272D02*
X0203559Y0164175D01*
X0202108Y0162724D01*
X0204043Y0162724D01*
X0201096Y0163207D02*
X0200612Y0162724D01*
X0201096Y0162240D01*
X0201096Y0161756D01*
X0200612Y0161272D01*
X0199645Y0161272D01*
X0199161Y0161756D01*
X0198150Y0161756D02*
X0197666Y0161272D01*
X0196698Y0161272D01*
X0196215Y0161756D01*
X0196215Y0162240D01*
X0196698Y0162724D01*
X0197666Y0162724D01*
X0198150Y0162240D01*
X0198150Y0161756D01*
X0197666Y0162724D02*
X0198150Y0163207D01*
X0198150Y0163691D01*
X0197666Y0164175D01*
X0196698Y0164175D01*
X0196215Y0163691D01*
X0196215Y0163207D01*
X0196698Y0162724D01*
X0195203Y0161272D02*
X0193268Y0161272D01*
X0194236Y0161272D02*
X0194236Y0164175D01*
X0193268Y0163207D01*
X0192257Y0163207D02*
X0190322Y0161272D01*
X0192257Y0161272D01*
X0192257Y0163207D02*
X0192257Y0163691D01*
X0191773Y0164175D01*
X0190805Y0164175D01*
X0190322Y0163691D01*
X0189310Y0163691D02*
X0189310Y0162724D01*
X0188826Y0162240D01*
X0187375Y0162240D01*
X0188342Y0162240D02*
X0189310Y0161272D01*
X0187375Y0161272D02*
X0187375Y0164175D01*
X0188826Y0164175D01*
X0189310Y0163691D01*
X0186378Y0164175D02*
X0185411Y0164175D01*
X0185894Y0164175D02*
X0185894Y0161272D01*
X0185411Y0161272D02*
X0186378Y0161272D01*
X0199161Y0163691D02*
X0199645Y0164175D01*
X0200612Y0164175D01*
X0201096Y0163691D01*
X0201096Y0163207D01*
X0200612Y0162724D02*
X0200129Y0162724D01*
X0186996Y0178683D02*
X0186996Y0184683D01*
X0174996Y0184683D01*
X0174996Y0178683D01*
X0186996Y0178683D01*
X0198106Y0179234D02*
X0198106Y0185234D01*
X0210106Y0185234D01*
X0210106Y0179234D01*
X0198106Y0179234D01*
X0262232Y0139781D02*
X0262232Y0137312D01*
X0262849Y0136695D01*
X0264084Y0136695D01*
X0264701Y0137312D01*
X0265915Y0136695D02*
X0268384Y0136695D01*
X0267150Y0136695D02*
X0267150Y0140398D01*
X0265915Y0139164D01*
X0264701Y0139781D02*
X0264084Y0140398D01*
X0262849Y0140398D01*
X0262232Y0139781D01*
X0269598Y0138547D02*
X0272067Y0138547D01*
X0273282Y0139164D02*
X0274516Y0140398D01*
X0274516Y0136695D01*
X0273282Y0136695D02*
X0275750Y0136695D01*
X0286452Y0184274D02*
X0286452Y0190274D01*
X0298452Y0190274D01*
X0298452Y0184274D01*
X0286452Y0184274D01*
X0300295Y0187179D02*
X0300295Y0199179D01*
X0306295Y0199179D01*
X0306295Y0187179D01*
X0300295Y0187179D01*
X0307122Y0186242D02*
X0307122Y0192242D01*
X0319122Y0192242D01*
X0319122Y0186242D01*
X0307122Y0186242D01*
X0307122Y0194116D02*
X0307122Y0200116D01*
X0319122Y0200116D01*
X0319122Y0194116D01*
X0307122Y0194116D01*
X0309090Y0280730D02*
X0309090Y0286730D01*
X0321090Y0286730D01*
X0321090Y0280730D01*
X0309090Y0280730D01*
X0127145Y0281856D02*
X0127145Y0269856D01*
X0121145Y0269856D01*
X0121145Y0281856D01*
X0127145Y0281856D01*
X0047421Y0213943D02*
X0047421Y0201943D01*
X0041421Y0201943D01*
X0041421Y0213943D01*
X0047421Y0213943D01*
X0039547Y0213943D02*
X0039547Y0201943D01*
X0033547Y0201943D01*
X0033547Y0213943D01*
X0039547Y0213943D01*
X0031673Y0213943D02*
X0031673Y0201943D01*
X0025673Y0201943D01*
X0025673Y0213943D01*
X0031673Y0213943D01*
X0023799Y0213943D02*
X0023799Y0201943D01*
X0017799Y0201943D01*
X0017799Y0213943D01*
X0023799Y0213943D01*
X0015925Y0213943D02*
X0009925Y0213943D01*
X0009925Y0201943D01*
X0015925Y0201943D01*
X0015925Y0213943D01*
X0034484Y0199132D02*
X0046484Y0199132D01*
X0046484Y0193132D01*
X0034484Y0193132D01*
X0034484Y0199132D01*
X0030689Y0190321D02*
X0024689Y0190321D01*
X0024689Y0178321D01*
X0030689Y0178321D01*
X0030689Y0190321D01*
X0042484Y0189321D02*
X0042484Y0179321D01*
X0042405Y0172604D02*
X0048405Y0172604D01*
X0048405Y0160604D01*
X0042405Y0160604D01*
X0042405Y0172604D01*
X0039547Y0172604D02*
X0033547Y0172604D01*
X0033547Y0160604D01*
X0039547Y0160604D01*
X0039547Y0172604D01*
X0026752Y0172604D02*
X0026752Y0160604D01*
X0020752Y0160604D01*
X0020752Y0172604D01*
X0026752Y0172604D01*
X0016909Y0172604D02*
X0010909Y0172604D01*
X0010909Y0160604D01*
X0016909Y0160604D01*
X0016909Y0172604D01*
X0035487Y0122682D02*
X0034870Y0122065D01*
X0034870Y0119596D01*
X0035487Y0118979D01*
X0036721Y0118979D01*
X0037339Y0119596D01*
X0038553Y0118979D02*
X0041022Y0121448D01*
X0041022Y0122065D01*
X0040405Y0122682D01*
X0039170Y0122682D01*
X0038553Y0122065D01*
X0037339Y0122065D02*
X0036721Y0122682D01*
X0035487Y0122682D01*
X0038553Y0118979D02*
X0041022Y0118979D01*
X0042236Y0120830D02*
X0044705Y0120830D01*
X0045919Y0122065D02*
X0046537Y0122682D01*
X0047771Y0122682D01*
X0048388Y0122065D01*
X0048388Y0121448D01*
X0045919Y0118979D01*
X0048388Y0118979D01*
X0099562Y0155857D02*
X0101308Y0154112D01*
X0102181Y0154112D01*
X0103054Y0154985D01*
X0103054Y0155857D01*
X0104349Y0156280D02*
X0104349Y0159771D01*
X0103913Y0160208D01*
X0103040Y0160208D01*
X0102167Y0159335D01*
X0102167Y0158462D01*
X0101308Y0157603D02*
X0100435Y0157603D01*
X0099562Y0156730D01*
X0099562Y0155857D01*
X0104349Y0156280D02*
X0106095Y0158025D01*
X0105644Y0160193D02*
X0107390Y0161939D01*
X0107812Y0163234D02*
X0107812Y0164980D01*
X0110431Y0162361D01*
X0111303Y0163234D02*
X0109558Y0161488D01*
X0036035Y0240063D02*
X0036519Y0240547D01*
X0036519Y0241998D01*
X0033617Y0241998D01*
X0033617Y0240547D01*
X0034100Y0240063D01*
X0036035Y0240063D01*
X0036519Y0243010D02*
X0036519Y0244945D01*
X0033617Y0244945D01*
X0033617Y0243010D01*
X0035068Y0243977D02*
X0035068Y0244945D01*
X0034584Y0245956D02*
X0034100Y0245956D01*
X0033617Y0246440D01*
X0033617Y0247407D01*
X0034100Y0247891D01*
X0034100Y0248903D02*
X0036519Y0248903D01*
X0036035Y0247891D02*
X0036519Y0247407D01*
X0036519Y0246440D01*
X0036035Y0245956D01*
X0035068Y0246440D02*
X0034584Y0245956D01*
X0035068Y0246440D02*
X0035068Y0247407D01*
X0035552Y0247891D01*
X0036035Y0247891D01*
X0034100Y0248903D02*
X0033617Y0249386D01*
X0033617Y0250354D01*
X0034100Y0250838D01*
X0036519Y0250838D01*
X0036519Y0251849D02*
X0036519Y0253784D01*
X0033617Y0253784D01*
X0033617Y0254796D02*
X0036519Y0254796D01*
X0035068Y0253784D02*
X0035068Y0252817D01*
X0033617Y0254796D02*
X0036519Y0256731D01*
X0033617Y0256731D01*
X0034100Y0257742D02*
X0036519Y0257742D01*
X0036519Y0259677D02*
X0034100Y0259677D01*
X0033617Y0259194D01*
X0033617Y0258226D01*
X0034100Y0257742D01*
X0034584Y0263635D02*
X0036519Y0263635D01*
X0034584Y0263635D02*
X0033617Y0264603D01*
X0034584Y0265570D01*
X0036519Y0265570D01*
X0036035Y0266582D02*
X0034100Y0268517D01*
X0033617Y0268033D01*
X0033617Y0267066D01*
X0034100Y0266582D01*
X0036035Y0266582D01*
X0036519Y0267066D01*
X0036519Y0268033D01*
X0036035Y0268517D01*
X0034100Y0268517D01*
X0034100Y0269528D02*
X0033617Y0270012D01*
X0033617Y0270980D01*
X0034100Y0271463D01*
X0035068Y0270496D02*
X0035068Y0270012D01*
X0034584Y0269528D01*
X0034100Y0269528D01*
X0035068Y0270012D02*
X0035552Y0269528D01*
X0036035Y0269528D01*
X0036519Y0270012D01*
X0036519Y0270980D01*
X0036035Y0271463D01*
X0251038Y0045910D02*
X0250421Y0045293D01*
X0250421Y0042824D01*
X0251038Y0042207D01*
X0252273Y0042207D01*
X0252890Y0042824D01*
X0254104Y0042207D02*
X0256573Y0042207D01*
X0255339Y0042207D02*
X0255339Y0045910D01*
X0254104Y0044676D01*
X0252890Y0045293D02*
X0252273Y0045910D01*
X0251038Y0045910D01*
X0257787Y0044059D02*
X0260256Y0044059D01*
X0261470Y0045293D02*
X0262088Y0045910D01*
X0263322Y0045910D01*
X0263939Y0045293D01*
X0263939Y0044676D01*
X0263322Y0044059D01*
X0263939Y0043441D01*
X0263939Y0042824D01*
X0263322Y0042207D01*
X0262088Y0042207D01*
X0261470Y0042824D01*
X0262705Y0044059D02*
X0263322Y0044059D01*
X0307366Y0045675D02*
X0307366Y0033675D01*
X0313366Y0033675D01*
X0313366Y0045675D01*
X0307366Y0045675D01*
X0314413Y0045675D02*
X0320413Y0045675D01*
X0320413Y0033675D01*
X0314413Y0033675D01*
X0314413Y0045675D01*
X0321460Y0045675D02*
X0327460Y0045675D01*
X0327460Y0033675D01*
X0321460Y0033675D01*
X0321460Y0045675D01*
X0328508Y0045675D02*
X0334508Y0045675D01*
X0334508Y0033675D01*
X0328508Y0033675D01*
X0328508Y0045675D01*
X0326931Y0081577D02*
X0324463Y0081577D01*
X0326931Y0084046D01*
X0326931Y0084663D01*
X0326314Y0085280D01*
X0325080Y0085280D01*
X0324463Y0084663D01*
X0323248Y0083429D02*
X0320779Y0083429D01*
X0319565Y0081577D02*
X0317096Y0081577D01*
X0318331Y0081577D02*
X0318331Y0085280D01*
X0317096Y0084046D01*
X0315882Y0084663D02*
X0315265Y0085280D01*
X0314030Y0085280D01*
X0313413Y0084663D01*
X0313413Y0082194D01*
X0314030Y0081577D01*
X0315265Y0081577D01*
X0315882Y0082194D01*
X0175531Y0040163D02*
X0175531Y0028163D01*
X0169531Y0028163D01*
X0169531Y0040163D01*
X0175531Y0040163D01*
D13*
X0040785Y0181982D02*
X0040634Y0181982D01*
X0040484Y0182132D01*
X0040484Y0182433D01*
X0040634Y0182583D01*
X0040785Y0182583D01*
X0040935Y0182433D01*
X0040935Y0182132D01*
X0040785Y0181982D01*
X0040484Y0182132D02*
X0040334Y0181982D01*
X0040184Y0181982D01*
X0040034Y0182132D01*
X0040034Y0182433D01*
X0040184Y0182583D01*
X0040334Y0182583D01*
X0040484Y0182433D01*
X0040334Y0182903D02*
X0040484Y0183053D01*
X0040484Y0183504D01*
X0040184Y0183504D01*
X0040034Y0183353D01*
X0040034Y0183053D01*
X0040184Y0182903D01*
X0040334Y0182903D01*
X0040785Y0183203D02*
X0040484Y0183504D01*
X0040785Y0183203D02*
X0040935Y0182903D01*
X0040935Y0184124D02*
X0040034Y0184124D01*
X0040034Y0184424D02*
X0040034Y0183824D01*
X0040634Y0184424D02*
X0040935Y0184124D01*
X0040634Y0184745D02*
X0040034Y0184745D01*
X0040484Y0184745D02*
X0040484Y0185345D01*
X0040634Y0185345D02*
X0040935Y0185045D01*
X0040634Y0184745D01*
X0040634Y0185345D02*
X0040034Y0185345D01*
X0040034Y0185665D02*
X0040935Y0185665D01*
X0040935Y0186266D02*
X0040034Y0185665D01*
X0040034Y0186266D02*
X0040935Y0186266D01*
X0040935Y0186580D02*
X0040935Y0186880D01*
X0040935Y0186730D02*
X0040034Y0186730D01*
X0040034Y0186880D02*
X0040034Y0186580D01*
X0016328Y0186687D02*
X0016178Y0186687D01*
X0015578Y0187287D01*
X0015428Y0187287D01*
X0015428Y0187607D02*
X0015428Y0188208D01*
X0016028Y0187607D01*
X0016178Y0187607D01*
X0016328Y0187758D01*
X0016328Y0188058D01*
X0016178Y0188208D01*
X0016328Y0188528D02*
X0015728Y0188528D01*
X0015428Y0188828D01*
X0015728Y0189129D01*
X0016328Y0189129D01*
X0016328Y0190049D02*
X0015428Y0190049D01*
X0015428Y0189449D01*
X0015428Y0190670D02*
X0016328Y0190670D01*
X0016328Y0190970D02*
X0016328Y0190370D01*
X0016328Y0187287D02*
X0016328Y0186687D01*
X0016178Y0186366D02*
X0016328Y0186216D01*
X0016328Y0185916D01*
X0016178Y0185766D01*
X0016028Y0185766D01*
X0015428Y0186366D01*
X0015428Y0185766D01*
X0312460Y0275209D02*
X0313461Y0275209D01*
X0313933Y0275209D02*
X0313933Y0274208D01*
X0314434Y0273708D01*
X0314934Y0274208D01*
X0314934Y0275209D01*
X0315406Y0274959D02*
X0315406Y0274709D01*
X0315657Y0274459D01*
X0316157Y0274459D01*
X0316407Y0274208D01*
X0316407Y0273958D01*
X0316157Y0273708D01*
X0315657Y0273708D01*
X0315406Y0273958D01*
X0315406Y0274959D02*
X0315657Y0275209D01*
X0316157Y0275209D01*
X0316407Y0274959D01*
X0316880Y0274959D02*
X0317130Y0275209D01*
X0317630Y0275209D01*
X0317880Y0274959D01*
X0317880Y0274709D01*
X0317630Y0274459D01*
X0317880Y0274208D01*
X0317880Y0273958D01*
X0317630Y0273708D01*
X0317130Y0273708D01*
X0316880Y0273958D01*
X0317380Y0274459D02*
X0317630Y0274459D01*
X0312960Y0275209D02*
X0312960Y0273708D01*
D14*
X0250523Y0310699D02*
X0247374Y0310699D01*
X0247374Y0313061D01*
X0247374Y0319360D02*
X0247374Y0321722D01*
X0250523Y0321722D01*
X0197374Y0321722D02*
X0194224Y0321722D01*
X0194224Y0319360D01*
X0194224Y0313061D02*
X0194224Y0310699D01*
X0197374Y0310699D01*
X0144224Y0310699D02*
X0141075Y0310699D01*
X0141075Y0313061D01*
X0141075Y0319360D02*
X0141075Y0321722D01*
X0144224Y0321722D01*
X0042175Y0189921D02*
X0038793Y0189921D01*
X0037293Y0185378D02*
X0037293Y0183264D01*
X0038793Y0178721D02*
X0042175Y0178721D01*
X0148201Y0142904D02*
X0218201Y0142904D01*
X0218201Y0002904D01*
X0188201Y0002904D01*
X0188201Y0007904D01*
X0178201Y0007904D01*
X0178201Y0002904D01*
X0148201Y0002904D01*
X0148201Y0142904D01*
X0177630Y0155030D02*
X0177630Y0156998D01*
X0177630Y0169990D01*
X0211527Y0169990D02*
X0211527Y0156998D01*
X0211527Y0155030D01*
X0176311Y0066211D02*
X0176311Y0058337D01*
X0180248Y0062274D02*
X0172374Y0062274D01*
X0184106Y0039675D02*
X0187256Y0039675D01*
X0187256Y0037313D01*
X0187256Y0031014D02*
X0187256Y0028652D01*
X0184106Y0028652D01*
X0308555Y0027313D02*
X0310366Y0027313D01*
X0311286Y0026093D01*
X0312177Y0027313D02*
X0310366Y0027313D01*
X0310266Y0027252D02*
X0309506Y0026093D01*
X0315523Y0027313D02*
X0317334Y0027313D01*
X0318255Y0026093D01*
X0319145Y0027313D02*
X0317334Y0027313D01*
X0317234Y0027252D02*
X0316475Y0026093D01*
X0322649Y0027313D02*
X0324460Y0027313D01*
X0325381Y0026093D01*
X0326271Y0027313D02*
X0324460Y0027313D01*
X0324360Y0027252D02*
X0323601Y0026093D01*
X0329697Y0027313D02*
X0331508Y0027313D01*
X0332428Y0026093D01*
X0333319Y0027313D02*
X0331508Y0027313D01*
X0331408Y0027252D02*
X0330648Y0026093D01*
D15*
X0284579Y0083927D02*
X0284590Y0084821D01*
X0284623Y0085714D01*
X0284678Y0086606D01*
X0284754Y0087496D01*
X0284853Y0088385D01*
X0284973Y0089270D01*
X0285115Y0090153D01*
X0285279Y0091032D01*
X0285464Y0091906D01*
X0285670Y0092776D01*
X0285898Y0093640D01*
X0286147Y0094498D01*
X0286417Y0095350D01*
X0286708Y0096196D01*
X0287019Y0097033D01*
X0287351Y0097863D01*
X0287703Y0098685D01*
X0288075Y0099497D01*
X0288467Y0100300D01*
X0288879Y0101094D01*
X0289310Y0101877D01*
X0289760Y0102649D01*
X0290229Y0103410D01*
X0290716Y0104159D01*
X0291222Y0104896D01*
X0291746Y0105621D01*
X0292287Y0106332D01*
X0292845Y0107030D01*
X0293421Y0107714D01*
X0294013Y0108383D01*
X0294621Y0109038D01*
X0295245Y0109678D01*
X0295885Y0110302D01*
X0296540Y0110910D01*
X0297209Y0111502D01*
X0297893Y0112078D01*
X0298591Y0112636D01*
X0299302Y0113177D01*
X0300027Y0113701D01*
X0300764Y0114207D01*
X0301513Y0114694D01*
X0302274Y0115163D01*
X0303046Y0115613D01*
X0303829Y0116044D01*
X0304623Y0116456D01*
X0305426Y0116848D01*
X0306238Y0117220D01*
X0307060Y0117572D01*
X0307890Y0117904D01*
X0308727Y0118215D01*
X0309573Y0118506D01*
X0310425Y0118776D01*
X0311283Y0119025D01*
X0312147Y0119253D01*
X0313017Y0119459D01*
X0313891Y0119644D01*
X0314770Y0119808D01*
X0315653Y0119950D01*
X0316538Y0120070D01*
X0317427Y0120169D01*
X0318317Y0120245D01*
X0319209Y0120300D01*
X0320102Y0120333D01*
X0320996Y0120344D01*
X0321890Y0120333D01*
X0322783Y0120300D01*
X0323675Y0120245D01*
X0324565Y0120169D01*
X0325454Y0120070D01*
X0326339Y0119950D01*
X0327222Y0119808D01*
X0328101Y0119644D01*
X0328975Y0119459D01*
X0329845Y0119253D01*
X0330709Y0119025D01*
X0331567Y0118776D01*
X0332419Y0118506D01*
X0333265Y0118215D01*
X0334102Y0117904D01*
X0334932Y0117572D01*
X0335754Y0117220D01*
X0336566Y0116848D01*
X0337369Y0116456D01*
X0338163Y0116044D01*
X0338946Y0115613D01*
X0339718Y0115163D01*
X0340479Y0114694D01*
X0341228Y0114207D01*
X0341965Y0113701D01*
X0342690Y0113177D01*
X0343401Y0112636D01*
X0344099Y0112078D01*
X0344783Y0111502D01*
X0345452Y0110910D01*
X0346107Y0110302D01*
X0346747Y0109678D01*
X0347371Y0109038D01*
X0347979Y0108383D01*
X0348571Y0107714D01*
X0349147Y0107030D01*
X0349705Y0106332D01*
X0350246Y0105621D01*
X0350770Y0104896D01*
X0351276Y0104159D01*
X0351763Y0103410D01*
X0352232Y0102649D01*
X0352682Y0101877D01*
X0353113Y0101094D01*
X0353525Y0100300D01*
X0353917Y0099497D01*
X0354289Y0098685D01*
X0354641Y0097863D01*
X0354973Y0097033D01*
X0355284Y0096196D01*
X0355575Y0095350D01*
X0355845Y0094498D01*
X0356094Y0093640D01*
X0356322Y0092776D01*
X0356528Y0091906D01*
X0356713Y0091032D01*
X0356877Y0090153D01*
X0357019Y0089270D01*
X0357139Y0088385D01*
X0357238Y0087496D01*
X0357314Y0086606D01*
X0357369Y0085714D01*
X0357402Y0084821D01*
X0357413Y0083927D01*
X0357402Y0083033D01*
X0357369Y0082140D01*
X0357314Y0081248D01*
X0357238Y0080358D01*
X0357139Y0079469D01*
X0357019Y0078584D01*
X0356877Y0077701D01*
X0356713Y0076822D01*
X0356528Y0075948D01*
X0356322Y0075078D01*
X0356094Y0074214D01*
X0355845Y0073356D01*
X0355575Y0072504D01*
X0355284Y0071658D01*
X0354973Y0070821D01*
X0354641Y0069991D01*
X0354289Y0069169D01*
X0353917Y0068357D01*
X0353525Y0067554D01*
X0353113Y0066760D01*
X0352682Y0065977D01*
X0352232Y0065205D01*
X0351763Y0064444D01*
X0351276Y0063695D01*
X0350770Y0062958D01*
X0350246Y0062233D01*
X0349705Y0061522D01*
X0349147Y0060824D01*
X0348571Y0060140D01*
X0347979Y0059471D01*
X0347371Y0058816D01*
X0346747Y0058176D01*
X0346107Y0057552D01*
X0345452Y0056944D01*
X0344783Y0056352D01*
X0344099Y0055776D01*
X0343401Y0055218D01*
X0342690Y0054677D01*
X0341965Y0054153D01*
X0341228Y0053647D01*
X0340479Y0053160D01*
X0339718Y0052691D01*
X0338946Y0052241D01*
X0338163Y0051810D01*
X0337369Y0051398D01*
X0336566Y0051006D01*
X0335754Y0050634D01*
X0334932Y0050282D01*
X0334102Y0049950D01*
X0333265Y0049639D01*
X0332419Y0049348D01*
X0331567Y0049078D01*
X0330709Y0048829D01*
X0329845Y0048601D01*
X0328975Y0048395D01*
X0328101Y0048210D01*
X0327222Y0048046D01*
X0326339Y0047904D01*
X0325454Y0047784D01*
X0324565Y0047685D01*
X0323675Y0047609D01*
X0322783Y0047554D01*
X0321890Y0047521D01*
X0320996Y0047510D01*
X0320102Y0047521D01*
X0319209Y0047554D01*
X0318317Y0047609D01*
X0317427Y0047685D01*
X0316538Y0047784D01*
X0315653Y0047904D01*
X0314770Y0048046D01*
X0313891Y0048210D01*
X0313017Y0048395D01*
X0312147Y0048601D01*
X0311283Y0048829D01*
X0310425Y0049078D01*
X0309573Y0049348D01*
X0308727Y0049639D01*
X0307890Y0049950D01*
X0307060Y0050282D01*
X0306238Y0050634D01*
X0305426Y0051006D01*
X0304623Y0051398D01*
X0303829Y0051810D01*
X0303046Y0052241D01*
X0302274Y0052691D01*
X0301513Y0053160D01*
X0300764Y0053647D01*
X0300027Y0054153D01*
X0299302Y0054677D01*
X0298591Y0055218D01*
X0297893Y0055776D01*
X0297209Y0056352D01*
X0296540Y0056944D01*
X0295885Y0057552D01*
X0295245Y0058176D01*
X0294621Y0058816D01*
X0294013Y0059471D01*
X0293421Y0060140D01*
X0292845Y0060824D01*
X0292287Y0061522D01*
X0291746Y0062233D01*
X0291222Y0062958D01*
X0290716Y0063695D01*
X0290229Y0064444D01*
X0289760Y0065205D01*
X0289310Y0065977D01*
X0288879Y0066760D01*
X0288467Y0067554D01*
X0288075Y0068357D01*
X0287703Y0069169D01*
X0287351Y0069991D01*
X0287019Y0070821D01*
X0286708Y0071658D01*
X0286417Y0072504D01*
X0286147Y0073356D01*
X0285898Y0074214D01*
X0285670Y0075078D01*
X0285464Y0075948D01*
X0285279Y0076822D01*
X0285115Y0077701D01*
X0284973Y0078584D01*
X0284853Y0079469D01*
X0284754Y0080358D01*
X0284678Y0081248D01*
X0284623Y0082140D01*
X0284590Y0083033D01*
X0284579Y0083927D01*
X0221587Y0044557D02*
X0221598Y0045451D01*
X0221631Y0046344D01*
X0221686Y0047236D01*
X0221762Y0048126D01*
X0221861Y0049015D01*
X0221981Y0049900D01*
X0222123Y0050783D01*
X0222287Y0051662D01*
X0222472Y0052536D01*
X0222678Y0053406D01*
X0222906Y0054270D01*
X0223155Y0055128D01*
X0223425Y0055980D01*
X0223716Y0056826D01*
X0224027Y0057663D01*
X0224359Y0058493D01*
X0224711Y0059315D01*
X0225083Y0060127D01*
X0225475Y0060930D01*
X0225887Y0061724D01*
X0226318Y0062507D01*
X0226768Y0063279D01*
X0227237Y0064040D01*
X0227724Y0064789D01*
X0228230Y0065526D01*
X0228754Y0066251D01*
X0229295Y0066962D01*
X0229853Y0067660D01*
X0230429Y0068344D01*
X0231021Y0069013D01*
X0231629Y0069668D01*
X0232253Y0070308D01*
X0232893Y0070932D01*
X0233548Y0071540D01*
X0234217Y0072132D01*
X0234901Y0072708D01*
X0235599Y0073266D01*
X0236310Y0073807D01*
X0237035Y0074331D01*
X0237772Y0074837D01*
X0238521Y0075324D01*
X0239282Y0075793D01*
X0240054Y0076243D01*
X0240837Y0076674D01*
X0241631Y0077086D01*
X0242434Y0077478D01*
X0243246Y0077850D01*
X0244068Y0078202D01*
X0244898Y0078534D01*
X0245735Y0078845D01*
X0246581Y0079136D01*
X0247433Y0079406D01*
X0248291Y0079655D01*
X0249155Y0079883D01*
X0250025Y0080089D01*
X0250899Y0080274D01*
X0251778Y0080438D01*
X0252661Y0080580D01*
X0253546Y0080700D01*
X0254435Y0080799D01*
X0255325Y0080875D01*
X0256217Y0080930D01*
X0257110Y0080963D01*
X0258004Y0080974D01*
X0258898Y0080963D01*
X0259791Y0080930D01*
X0260683Y0080875D01*
X0261573Y0080799D01*
X0262462Y0080700D01*
X0263347Y0080580D01*
X0264230Y0080438D01*
X0265109Y0080274D01*
X0265983Y0080089D01*
X0266853Y0079883D01*
X0267717Y0079655D01*
X0268575Y0079406D01*
X0269427Y0079136D01*
X0270273Y0078845D01*
X0271110Y0078534D01*
X0271940Y0078202D01*
X0272762Y0077850D01*
X0273574Y0077478D01*
X0274377Y0077086D01*
X0275171Y0076674D01*
X0275954Y0076243D01*
X0276726Y0075793D01*
X0277487Y0075324D01*
X0278236Y0074837D01*
X0278973Y0074331D01*
X0279698Y0073807D01*
X0280409Y0073266D01*
X0281107Y0072708D01*
X0281791Y0072132D01*
X0282460Y0071540D01*
X0283115Y0070932D01*
X0283755Y0070308D01*
X0284379Y0069668D01*
X0284987Y0069013D01*
X0285579Y0068344D01*
X0286155Y0067660D01*
X0286713Y0066962D01*
X0287254Y0066251D01*
X0287778Y0065526D01*
X0288284Y0064789D01*
X0288771Y0064040D01*
X0289240Y0063279D01*
X0289690Y0062507D01*
X0290121Y0061724D01*
X0290533Y0060930D01*
X0290925Y0060127D01*
X0291297Y0059315D01*
X0291649Y0058493D01*
X0291981Y0057663D01*
X0292292Y0056826D01*
X0292583Y0055980D01*
X0292853Y0055128D01*
X0293102Y0054270D01*
X0293330Y0053406D01*
X0293536Y0052536D01*
X0293721Y0051662D01*
X0293885Y0050783D01*
X0294027Y0049900D01*
X0294147Y0049015D01*
X0294246Y0048126D01*
X0294322Y0047236D01*
X0294377Y0046344D01*
X0294410Y0045451D01*
X0294421Y0044557D01*
X0294410Y0043663D01*
X0294377Y0042770D01*
X0294322Y0041878D01*
X0294246Y0040988D01*
X0294147Y0040099D01*
X0294027Y0039214D01*
X0293885Y0038331D01*
X0293721Y0037452D01*
X0293536Y0036578D01*
X0293330Y0035708D01*
X0293102Y0034844D01*
X0292853Y0033986D01*
X0292583Y0033134D01*
X0292292Y0032288D01*
X0291981Y0031451D01*
X0291649Y0030621D01*
X0291297Y0029799D01*
X0290925Y0028987D01*
X0290533Y0028184D01*
X0290121Y0027390D01*
X0289690Y0026607D01*
X0289240Y0025835D01*
X0288771Y0025074D01*
X0288284Y0024325D01*
X0287778Y0023588D01*
X0287254Y0022863D01*
X0286713Y0022152D01*
X0286155Y0021454D01*
X0285579Y0020770D01*
X0284987Y0020101D01*
X0284379Y0019446D01*
X0283755Y0018806D01*
X0283115Y0018182D01*
X0282460Y0017574D01*
X0281791Y0016982D01*
X0281107Y0016406D01*
X0280409Y0015848D01*
X0279698Y0015307D01*
X0278973Y0014783D01*
X0278236Y0014277D01*
X0277487Y0013790D01*
X0276726Y0013321D01*
X0275954Y0012871D01*
X0275171Y0012440D01*
X0274377Y0012028D01*
X0273574Y0011636D01*
X0272762Y0011264D01*
X0271940Y0010912D01*
X0271110Y0010580D01*
X0270273Y0010269D01*
X0269427Y0009978D01*
X0268575Y0009708D01*
X0267717Y0009459D01*
X0266853Y0009231D01*
X0265983Y0009025D01*
X0265109Y0008840D01*
X0264230Y0008676D01*
X0263347Y0008534D01*
X0262462Y0008414D01*
X0261573Y0008315D01*
X0260683Y0008239D01*
X0259791Y0008184D01*
X0258898Y0008151D01*
X0258004Y0008140D01*
X0257110Y0008151D01*
X0256217Y0008184D01*
X0255325Y0008239D01*
X0254435Y0008315D01*
X0253546Y0008414D01*
X0252661Y0008534D01*
X0251778Y0008676D01*
X0250899Y0008840D01*
X0250025Y0009025D01*
X0249155Y0009231D01*
X0248291Y0009459D01*
X0247433Y0009708D01*
X0246581Y0009978D01*
X0245735Y0010269D01*
X0244898Y0010580D01*
X0244068Y0010912D01*
X0243246Y0011264D01*
X0242434Y0011636D01*
X0241631Y0012028D01*
X0240837Y0012440D01*
X0240054Y0012871D01*
X0239282Y0013321D01*
X0238521Y0013790D01*
X0237772Y0014277D01*
X0237035Y0014783D01*
X0236310Y0015307D01*
X0235599Y0015848D01*
X0234901Y0016406D01*
X0234217Y0016982D01*
X0233548Y0017574D01*
X0232893Y0018182D01*
X0232253Y0018806D01*
X0231629Y0019446D01*
X0231021Y0020101D01*
X0230429Y0020770D01*
X0229853Y0021454D01*
X0229295Y0022152D01*
X0228754Y0022863D01*
X0228230Y0023588D01*
X0227724Y0024325D01*
X0227237Y0025074D01*
X0226768Y0025835D01*
X0226318Y0026607D01*
X0225887Y0027390D01*
X0225475Y0028184D01*
X0225083Y0028987D01*
X0224711Y0029799D01*
X0224359Y0030621D01*
X0224027Y0031451D01*
X0223716Y0032288D01*
X0223425Y0033134D01*
X0223155Y0033986D01*
X0222906Y0034844D01*
X0222678Y0035708D01*
X0222472Y0036578D01*
X0222287Y0037452D01*
X0222123Y0038331D01*
X0221981Y0039214D01*
X0221861Y0040099D01*
X0221762Y0040988D01*
X0221686Y0041878D01*
X0221631Y0042770D01*
X0221598Y0043663D01*
X0221587Y0044557D01*
X0130897Y0034793D02*
X0130897Y0013533D01*
X0092512Y0013533D01*
X0092512Y0034793D01*
X0130897Y0034793D01*
X0069028Y0081959D02*
X0069039Y0082853D01*
X0069072Y0083746D01*
X0069127Y0084638D01*
X0069203Y0085528D01*
X0069302Y0086417D01*
X0069422Y0087302D01*
X0069564Y0088185D01*
X0069728Y0089064D01*
X0069913Y0089938D01*
X0070119Y0090808D01*
X0070347Y0091672D01*
X0070596Y0092530D01*
X0070866Y0093382D01*
X0071157Y0094228D01*
X0071468Y0095065D01*
X0071800Y0095895D01*
X0072152Y0096717D01*
X0072524Y0097529D01*
X0072916Y0098332D01*
X0073328Y0099126D01*
X0073759Y0099909D01*
X0074209Y0100681D01*
X0074678Y0101442D01*
X0075165Y0102191D01*
X0075671Y0102928D01*
X0076195Y0103653D01*
X0076736Y0104364D01*
X0077294Y0105062D01*
X0077870Y0105746D01*
X0078462Y0106415D01*
X0079070Y0107070D01*
X0079694Y0107710D01*
X0080334Y0108334D01*
X0080989Y0108942D01*
X0081658Y0109534D01*
X0082342Y0110110D01*
X0083040Y0110668D01*
X0083751Y0111209D01*
X0084476Y0111733D01*
X0085213Y0112239D01*
X0085962Y0112726D01*
X0086723Y0113195D01*
X0087495Y0113645D01*
X0088278Y0114076D01*
X0089072Y0114488D01*
X0089875Y0114880D01*
X0090687Y0115252D01*
X0091509Y0115604D01*
X0092339Y0115936D01*
X0093176Y0116247D01*
X0094022Y0116538D01*
X0094874Y0116808D01*
X0095732Y0117057D01*
X0096596Y0117285D01*
X0097466Y0117491D01*
X0098340Y0117676D01*
X0099219Y0117840D01*
X0100102Y0117982D01*
X0100987Y0118102D01*
X0101876Y0118201D01*
X0102766Y0118277D01*
X0103658Y0118332D01*
X0104551Y0118365D01*
X0105445Y0118376D01*
X0106339Y0118365D01*
X0107232Y0118332D01*
X0108124Y0118277D01*
X0109014Y0118201D01*
X0109903Y0118102D01*
X0110788Y0117982D01*
X0111671Y0117840D01*
X0112550Y0117676D01*
X0113424Y0117491D01*
X0114294Y0117285D01*
X0115158Y0117057D01*
X0116016Y0116808D01*
X0116868Y0116538D01*
X0117714Y0116247D01*
X0118551Y0115936D01*
X0119381Y0115604D01*
X0120203Y0115252D01*
X0121015Y0114880D01*
X0121818Y0114488D01*
X0122612Y0114076D01*
X0123395Y0113645D01*
X0124167Y0113195D01*
X0124928Y0112726D01*
X0125677Y0112239D01*
X0126414Y0111733D01*
X0127139Y0111209D01*
X0127850Y0110668D01*
X0128548Y0110110D01*
X0129232Y0109534D01*
X0129901Y0108942D01*
X0130556Y0108334D01*
X0131196Y0107710D01*
X0131820Y0107070D01*
X0132428Y0106415D01*
X0133020Y0105746D01*
X0133596Y0105062D01*
X0134154Y0104364D01*
X0134695Y0103653D01*
X0135219Y0102928D01*
X0135725Y0102191D01*
X0136212Y0101442D01*
X0136681Y0100681D01*
X0137131Y0099909D01*
X0137562Y0099126D01*
X0137974Y0098332D01*
X0138366Y0097529D01*
X0138738Y0096717D01*
X0139090Y0095895D01*
X0139422Y0095065D01*
X0139733Y0094228D01*
X0140024Y0093382D01*
X0140294Y0092530D01*
X0140543Y0091672D01*
X0140771Y0090808D01*
X0140977Y0089938D01*
X0141162Y0089064D01*
X0141326Y0088185D01*
X0141468Y0087302D01*
X0141588Y0086417D01*
X0141687Y0085528D01*
X0141763Y0084638D01*
X0141818Y0083746D01*
X0141851Y0082853D01*
X0141862Y0081959D01*
X0141851Y0081065D01*
X0141818Y0080172D01*
X0141763Y0079280D01*
X0141687Y0078390D01*
X0141588Y0077501D01*
X0141468Y0076616D01*
X0141326Y0075733D01*
X0141162Y0074854D01*
X0140977Y0073980D01*
X0140771Y0073110D01*
X0140543Y0072246D01*
X0140294Y0071388D01*
X0140024Y0070536D01*
X0139733Y0069690D01*
X0139422Y0068853D01*
X0139090Y0068023D01*
X0138738Y0067201D01*
X0138366Y0066389D01*
X0137974Y0065586D01*
X0137562Y0064792D01*
X0137131Y0064009D01*
X0136681Y0063237D01*
X0136212Y0062476D01*
X0135725Y0061727D01*
X0135219Y0060990D01*
X0134695Y0060265D01*
X0134154Y0059554D01*
X0133596Y0058856D01*
X0133020Y0058172D01*
X0132428Y0057503D01*
X0131820Y0056848D01*
X0131196Y0056208D01*
X0130556Y0055584D01*
X0129901Y0054976D01*
X0129232Y0054384D01*
X0128548Y0053808D01*
X0127850Y0053250D01*
X0127139Y0052709D01*
X0126414Y0052185D01*
X0125677Y0051679D01*
X0124928Y0051192D01*
X0124167Y0050723D01*
X0123395Y0050273D01*
X0122612Y0049842D01*
X0121818Y0049430D01*
X0121015Y0049038D01*
X0120203Y0048666D01*
X0119381Y0048314D01*
X0118551Y0047982D01*
X0117714Y0047671D01*
X0116868Y0047380D01*
X0116016Y0047110D01*
X0115158Y0046861D01*
X0114294Y0046633D01*
X0113424Y0046427D01*
X0112550Y0046242D01*
X0111671Y0046078D01*
X0110788Y0045936D01*
X0109903Y0045816D01*
X0109014Y0045717D01*
X0108124Y0045641D01*
X0107232Y0045586D01*
X0106339Y0045553D01*
X0105445Y0045542D01*
X0104551Y0045553D01*
X0103658Y0045586D01*
X0102766Y0045641D01*
X0101876Y0045717D01*
X0100987Y0045816D01*
X0100102Y0045936D01*
X0099219Y0046078D01*
X0098340Y0046242D01*
X0097466Y0046427D01*
X0096596Y0046633D01*
X0095732Y0046861D01*
X0094874Y0047110D01*
X0094022Y0047380D01*
X0093176Y0047671D01*
X0092339Y0047982D01*
X0091509Y0048314D01*
X0090687Y0048666D01*
X0089875Y0049038D01*
X0089072Y0049430D01*
X0088278Y0049842D01*
X0087495Y0050273D01*
X0086723Y0050723D01*
X0085962Y0051192D01*
X0085213Y0051679D01*
X0084476Y0052185D01*
X0083751Y0052709D01*
X0083040Y0053250D01*
X0082342Y0053808D01*
X0081658Y0054384D01*
X0080989Y0054976D01*
X0080334Y0055584D01*
X0079694Y0056208D01*
X0079070Y0056848D01*
X0078462Y0057503D01*
X0077870Y0058172D01*
X0077294Y0058856D01*
X0076736Y0059554D01*
X0076195Y0060265D01*
X0075671Y0060990D01*
X0075165Y0061727D01*
X0074678Y0062476D01*
X0074209Y0063237D01*
X0073759Y0064009D01*
X0073328Y0064792D01*
X0072916Y0065586D01*
X0072524Y0066389D01*
X0072152Y0067201D01*
X0071800Y0068023D01*
X0071468Y0068853D01*
X0071157Y0069690D01*
X0070866Y0070536D01*
X0070596Y0071388D01*
X0070347Y0072246D01*
X0070119Y0073110D01*
X0069913Y0073980D01*
X0069728Y0074854D01*
X0069564Y0075733D01*
X0069422Y0076616D01*
X0069302Y0077501D01*
X0069203Y0078390D01*
X0069127Y0079280D01*
X0069072Y0080172D01*
X0069039Y0081065D01*
X0069028Y0081959D01*
X0006035Y0121329D02*
X0006046Y0122223D01*
X0006079Y0123116D01*
X0006134Y0124008D01*
X0006210Y0124898D01*
X0006309Y0125787D01*
X0006429Y0126672D01*
X0006571Y0127555D01*
X0006735Y0128434D01*
X0006920Y0129308D01*
X0007126Y0130178D01*
X0007354Y0131042D01*
X0007603Y0131900D01*
X0007873Y0132752D01*
X0008164Y0133598D01*
X0008475Y0134435D01*
X0008807Y0135265D01*
X0009159Y0136087D01*
X0009531Y0136899D01*
X0009923Y0137702D01*
X0010335Y0138496D01*
X0010766Y0139279D01*
X0011216Y0140051D01*
X0011685Y0140812D01*
X0012172Y0141561D01*
X0012678Y0142298D01*
X0013202Y0143023D01*
X0013743Y0143734D01*
X0014301Y0144432D01*
X0014877Y0145116D01*
X0015469Y0145785D01*
X0016077Y0146440D01*
X0016701Y0147080D01*
X0017341Y0147704D01*
X0017996Y0148312D01*
X0018665Y0148904D01*
X0019349Y0149480D01*
X0020047Y0150038D01*
X0020758Y0150579D01*
X0021483Y0151103D01*
X0022220Y0151609D01*
X0022969Y0152096D01*
X0023730Y0152565D01*
X0024502Y0153015D01*
X0025285Y0153446D01*
X0026079Y0153858D01*
X0026882Y0154250D01*
X0027694Y0154622D01*
X0028516Y0154974D01*
X0029346Y0155306D01*
X0030183Y0155617D01*
X0031029Y0155908D01*
X0031881Y0156178D01*
X0032739Y0156427D01*
X0033603Y0156655D01*
X0034473Y0156861D01*
X0035347Y0157046D01*
X0036226Y0157210D01*
X0037109Y0157352D01*
X0037994Y0157472D01*
X0038883Y0157571D01*
X0039773Y0157647D01*
X0040665Y0157702D01*
X0041558Y0157735D01*
X0042452Y0157746D01*
X0043346Y0157735D01*
X0044239Y0157702D01*
X0045131Y0157647D01*
X0046021Y0157571D01*
X0046910Y0157472D01*
X0047795Y0157352D01*
X0048678Y0157210D01*
X0049557Y0157046D01*
X0050431Y0156861D01*
X0051301Y0156655D01*
X0052165Y0156427D01*
X0053023Y0156178D01*
X0053875Y0155908D01*
X0054721Y0155617D01*
X0055558Y0155306D01*
X0056388Y0154974D01*
X0057210Y0154622D01*
X0058022Y0154250D01*
X0058825Y0153858D01*
X0059619Y0153446D01*
X0060402Y0153015D01*
X0061174Y0152565D01*
X0061935Y0152096D01*
X0062684Y0151609D01*
X0063421Y0151103D01*
X0064146Y0150579D01*
X0064857Y0150038D01*
X0065555Y0149480D01*
X0066239Y0148904D01*
X0066908Y0148312D01*
X0067563Y0147704D01*
X0068203Y0147080D01*
X0068827Y0146440D01*
X0069435Y0145785D01*
X0070027Y0145116D01*
X0070603Y0144432D01*
X0071161Y0143734D01*
X0071702Y0143023D01*
X0072226Y0142298D01*
X0072732Y0141561D01*
X0073219Y0140812D01*
X0073688Y0140051D01*
X0074138Y0139279D01*
X0074569Y0138496D01*
X0074981Y0137702D01*
X0075373Y0136899D01*
X0075745Y0136087D01*
X0076097Y0135265D01*
X0076429Y0134435D01*
X0076740Y0133598D01*
X0077031Y0132752D01*
X0077301Y0131900D01*
X0077550Y0131042D01*
X0077778Y0130178D01*
X0077984Y0129308D01*
X0078169Y0128434D01*
X0078333Y0127555D01*
X0078475Y0126672D01*
X0078595Y0125787D01*
X0078694Y0124898D01*
X0078770Y0124008D01*
X0078825Y0123116D01*
X0078858Y0122223D01*
X0078869Y0121329D01*
X0078858Y0120435D01*
X0078825Y0119542D01*
X0078770Y0118650D01*
X0078694Y0117760D01*
X0078595Y0116871D01*
X0078475Y0115986D01*
X0078333Y0115103D01*
X0078169Y0114224D01*
X0077984Y0113350D01*
X0077778Y0112480D01*
X0077550Y0111616D01*
X0077301Y0110758D01*
X0077031Y0109906D01*
X0076740Y0109060D01*
X0076429Y0108223D01*
X0076097Y0107393D01*
X0075745Y0106571D01*
X0075373Y0105759D01*
X0074981Y0104956D01*
X0074569Y0104162D01*
X0074138Y0103379D01*
X0073688Y0102607D01*
X0073219Y0101846D01*
X0072732Y0101097D01*
X0072226Y0100360D01*
X0071702Y0099635D01*
X0071161Y0098924D01*
X0070603Y0098226D01*
X0070027Y0097542D01*
X0069435Y0096873D01*
X0068827Y0096218D01*
X0068203Y0095578D01*
X0067563Y0094954D01*
X0066908Y0094346D01*
X0066239Y0093754D01*
X0065555Y0093178D01*
X0064857Y0092620D01*
X0064146Y0092079D01*
X0063421Y0091555D01*
X0062684Y0091049D01*
X0061935Y0090562D01*
X0061174Y0090093D01*
X0060402Y0089643D01*
X0059619Y0089212D01*
X0058825Y0088800D01*
X0058022Y0088408D01*
X0057210Y0088036D01*
X0056388Y0087684D01*
X0055558Y0087352D01*
X0054721Y0087041D01*
X0053875Y0086750D01*
X0053023Y0086480D01*
X0052165Y0086231D01*
X0051301Y0086003D01*
X0050431Y0085797D01*
X0049557Y0085612D01*
X0048678Y0085448D01*
X0047795Y0085306D01*
X0046910Y0085186D01*
X0046021Y0085087D01*
X0045131Y0085011D01*
X0044239Y0084956D01*
X0043346Y0084923D01*
X0042452Y0084912D01*
X0041558Y0084923D01*
X0040665Y0084956D01*
X0039773Y0085011D01*
X0038883Y0085087D01*
X0037994Y0085186D01*
X0037109Y0085306D01*
X0036226Y0085448D01*
X0035347Y0085612D01*
X0034473Y0085797D01*
X0033603Y0086003D01*
X0032739Y0086231D01*
X0031881Y0086480D01*
X0031029Y0086750D01*
X0030183Y0087041D01*
X0029346Y0087352D01*
X0028516Y0087684D01*
X0027694Y0088036D01*
X0026882Y0088408D01*
X0026079Y0088800D01*
X0025285Y0089212D01*
X0024502Y0089643D01*
X0023730Y0090093D01*
X0022969Y0090562D01*
X0022220Y0091049D01*
X0021483Y0091555D01*
X0020758Y0092079D01*
X0020047Y0092620D01*
X0019349Y0093178D01*
X0018665Y0093754D01*
X0017996Y0094346D01*
X0017341Y0094954D01*
X0016701Y0095578D01*
X0016077Y0096218D01*
X0015469Y0096873D01*
X0014877Y0097542D01*
X0014301Y0098226D01*
X0013743Y0098924D01*
X0013202Y0099635D01*
X0012678Y0100360D01*
X0012172Y0101097D01*
X0011685Y0101846D01*
X0011216Y0102607D01*
X0010766Y0103379D01*
X0010335Y0104162D01*
X0009923Y0104956D01*
X0009531Y0105759D01*
X0009159Y0106571D01*
X0008807Y0107393D01*
X0008475Y0108223D01*
X0008164Y0109060D01*
X0007873Y0109906D01*
X0007603Y0110758D01*
X0007354Y0111616D01*
X0007126Y0112480D01*
X0006920Y0113350D01*
X0006735Y0114224D01*
X0006571Y0115103D01*
X0006429Y0115986D01*
X0006309Y0116871D01*
X0006210Y0117760D01*
X0006134Y0118650D01*
X0006079Y0119542D01*
X0006046Y0120435D01*
X0006035Y0121329D01*
X0019878Y0191758D02*
X0019880Y0191802D01*
X0019886Y0191846D01*
X0019896Y0191889D01*
X0019909Y0191931D01*
X0019926Y0191972D01*
X0019947Y0192011D01*
X0019971Y0192048D01*
X0019998Y0192083D01*
X0020028Y0192115D01*
X0020061Y0192145D01*
X0020097Y0192171D01*
X0020134Y0192195D01*
X0020174Y0192214D01*
X0020215Y0192231D01*
X0020258Y0192243D01*
X0020301Y0192252D01*
X0020345Y0192257D01*
X0020389Y0192258D01*
X0020433Y0192255D01*
X0020477Y0192248D01*
X0020520Y0192237D01*
X0020562Y0192223D01*
X0020602Y0192205D01*
X0020641Y0192183D01*
X0020677Y0192159D01*
X0020711Y0192131D01*
X0020743Y0192100D01*
X0020772Y0192066D01*
X0020798Y0192030D01*
X0020820Y0191992D01*
X0020839Y0191952D01*
X0020854Y0191910D01*
X0020866Y0191868D01*
X0020874Y0191824D01*
X0020878Y0191780D01*
X0020878Y0191736D01*
X0020874Y0191692D01*
X0020866Y0191648D01*
X0020854Y0191606D01*
X0020839Y0191564D01*
X0020820Y0191524D01*
X0020798Y0191486D01*
X0020772Y0191450D01*
X0020743Y0191416D01*
X0020711Y0191385D01*
X0020677Y0191357D01*
X0020641Y0191333D01*
X0020602Y0191311D01*
X0020562Y0191293D01*
X0020520Y0191279D01*
X0020477Y0191268D01*
X0020433Y0191261D01*
X0020389Y0191258D01*
X0020345Y0191259D01*
X0020301Y0191264D01*
X0020258Y0191273D01*
X0020215Y0191285D01*
X0020174Y0191302D01*
X0020134Y0191321D01*
X0020097Y0191345D01*
X0020061Y0191371D01*
X0020028Y0191401D01*
X0019998Y0191433D01*
X0019971Y0191468D01*
X0019947Y0191505D01*
X0019926Y0191544D01*
X0019909Y0191585D01*
X0019896Y0191627D01*
X0019886Y0191670D01*
X0019880Y0191714D01*
X0019878Y0191758D01*
X0059821Y0229063D02*
X0059821Y0265563D01*
X0082571Y0265563D01*
X0082571Y0262313D01*
X0112571Y0262313D01*
X0112571Y0265563D01*
X0135321Y0265563D01*
X0135321Y0229063D01*
X0112571Y0229063D01*
X0112571Y0232313D01*
X0082571Y0232313D01*
X0082571Y0229063D01*
X0059821Y0229063D01*
X0077886Y0247313D02*
X0077892Y0247796D01*
X0077910Y0248279D01*
X0077939Y0248761D01*
X0077981Y0249242D01*
X0078034Y0249723D01*
X0078099Y0250201D01*
X0078176Y0250678D01*
X0078264Y0251153D01*
X0078364Y0251626D01*
X0078476Y0252096D01*
X0078599Y0252563D01*
X0078734Y0253027D01*
X0078880Y0253488D01*
X0079037Y0253945D01*
X0079205Y0254398D01*
X0079384Y0254846D01*
X0079575Y0255290D01*
X0079776Y0255729D01*
X0079988Y0256164D01*
X0080210Y0256592D01*
X0080443Y0257016D01*
X0080687Y0257433D01*
X0080940Y0257844D01*
X0081204Y0258249D01*
X0081477Y0258648D01*
X0081760Y0259039D01*
X0082052Y0259424D01*
X0082354Y0259801D01*
X0082665Y0260171D01*
X0082985Y0260533D01*
X0083314Y0260887D01*
X0083652Y0261232D01*
X0083997Y0261570D01*
X0084351Y0261899D01*
X0084713Y0262219D01*
X0085083Y0262530D01*
X0085460Y0262832D01*
X0085845Y0263124D01*
X0086236Y0263407D01*
X0086635Y0263680D01*
X0087040Y0263944D01*
X0087451Y0264197D01*
X0087868Y0264441D01*
X0088292Y0264674D01*
X0088720Y0264896D01*
X0089155Y0265108D01*
X0089594Y0265309D01*
X0090038Y0265500D01*
X0090486Y0265679D01*
X0090939Y0265847D01*
X0091396Y0266004D01*
X0091857Y0266150D01*
X0092321Y0266285D01*
X0092788Y0266408D01*
X0093258Y0266520D01*
X0093731Y0266620D01*
X0094206Y0266708D01*
X0094683Y0266785D01*
X0095161Y0266850D01*
X0095642Y0266903D01*
X0096123Y0266945D01*
X0096605Y0266974D01*
X0097088Y0266992D01*
X0097571Y0266998D01*
X0098054Y0266992D01*
X0098537Y0266974D01*
X0099019Y0266945D01*
X0099500Y0266903D01*
X0099981Y0266850D01*
X0100459Y0266785D01*
X0100936Y0266708D01*
X0101411Y0266620D01*
X0101884Y0266520D01*
X0102354Y0266408D01*
X0102821Y0266285D01*
X0103285Y0266150D01*
X0103746Y0266004D01*
X0104203Y0265847D01*
X0104656Y0265679D01*
X0105104Y0265500D01*
X0105548Y0265309D01*
X0105987Y0265108D01*
X0106422Y0264896D01*
X0106850Y0264674D01*
X0107274Y0264441D01*
X0107691Y0264197D01*
X0108102Y0263944D01*
X0108507Y0263680D01*
X0108906Y0263407D01*
X0109297Y0263124D01*
X0109682Y0262832D01*
X0110059Y0262530D01*
X0110429Y0262219D01*
X0110791Y0261899D01*
X0111145Y0261570D01*
X0111490Y0261232D01*
X0111828Y0260887D01*
X0112157Y0260533D01*
X0112477Y0260171D01*
X0112788Y0259801D01*
X0113090Y0259424D01*
X0113382Y0259039D01*
X0113665Y0258648D01*
X0113938Y0258249D01*
X0114202Y0257844D01*
X0114455Y0257433D01*
X0114699Y0257016D01*
X0114932Y0256592D01*
X0115154Y0256164D01*
X0115366Y0255729D01*
X0115567Y0255290D01*
X0115758Y0254846D01*
X0115937Y0254398D01*
X0116105Y0253945D01*
X0116262Y0253488D01*
X0116408Y0253027D01*
X0116543Y0252563D01*
X0116666Y0252096D01*
X0116778Y0251626D01*
X0116878Y0251153D01*
X0116966Y0250678D01*
X0117043Y0250201D01*
X0117108Y0249723D01*
X0117161Y0249242D01*
X0117203Y0248761D01*
X0117232Y0248279D01*
X0117250Y0247796D01*
X0117256Y0247313D01*
X0117250Y0246830D01*
X0117232Y0246347D01*
X0117203Y0245865D01*
X0117161Y0245384D01*
X0117108Y0244903D01*
X0117043Y0244425D01*
X0116966Y0243948D01*
X0116878Y0243473D01*
X0116778Y0243000D01*
X0116666Y0242530D01*
X0116543Y0242063D01*
X0116408Y0241599D01*
X0116262Y0241138D01*
X0116105Y0240681D01*
X0115937Y0240228D01*
X0115758Y0239780D01*
X0115567Y0239336D01*
X0115366Y0238897D01*
X0115154Y0238462D01*
X0114932Y0238034D01*
X0114699Y0237610D01*
X0114455Y0237193D01*
X0114202Y0236782D01*
X0113938Y0236377D01*
X0113665Y0235978D01*
X0113382Y0235587D01*
X0113090Y0235202D01*
X0112788Y0234825D01*
X0112477Y0234455D01*
X0112157Y0234093D01*
X0111828Y0233739D01*
X0111490Y0233394D01*
X0111145Y0233056D01*
X0110791Y0232727D01*
X0110429Y0232407D01*
X0110059Y0232096D01*
X0109682Y0231794D01*
X0109297Y0231502D01*
X0108906Y0231219D01*
X0108507Y0230946D01*
X0108102Y0230682D01*
X0107691Y0230429D01*
X0107274Y0230185D01*
X0106850Y0229952D01*
X0106422Y0229730D01*
X0105987Y0229518D01*
X0105548Y0229317D01*
X0105104Y0229126D01*
X0104656Y0228947D01*
X0104203Y0228779D01*
X0103746Y0228622D01*
X0103285Y0228476D01*
X0102821Y0228341D01*
X0102354Y0228218D01*
X0101884Y0228106D01*
X0101411Y0228006D01*
X0100936Y0227918D01*
X0100459Y0227841D01*
X0099981Y0227776D01*
X0099500Y0227723D01*
X0099019Y0227681D01*
X0098537Y0227652D01*
X0098054Y0227634D01*
X0097571Y0227628D01*
X0097088Y0227634D01*
X0096605Y0227652D01*
X0096123Y0227681D01*
X0095642Y0227723D01*
X0095161Y0227776D01*
X0094683Y0227841D01*
X0094206Y0227918D01*
X0093731Y0228006D01*
X0093258Y0228106D01*
X0092788Y0228218D01*
X0092321Y0228341D01*
X0091857Y0228476D01*
X0091396Y0228622D01*
X0090939Y0228779D01*
X0090486Y0228947D01*
X0090038Y0229126D01*
X0089594Y0229317D01*
X0089155Y0229518D01*
X0088720Y0229730D01*
X0088292Y0229952D01*
X0087868Y0230185D01*
X0087451Y0230429D01*
X0087040Y0230682D01*
X0086635Y0230946D01*
X0086236Y0231219D01*
X0085845Y0231502D01*
X0085460Y0231794D01*
X0085083Y0232096D01*
X0084713Y0232407D01*
X0084351Y0232727D01*
X0083997Y0233056D01*
X0083652Y0233394D01*
X0083314Y0233739D01*
X0082985Y0234093D01*
X0082665Y0234455D01*
X0082354Y0234825D01*
X0082052Y0235202D01*
X0081760Y0235587D01*
X0081477Y0235978D01*
X0081204Y0236377D01*
X0080940Y0236782D01*
X0080687Y0237193D01*
X0080443Y0237610D01*
X0080210Y0238034D01*
X0079988Y0238462D01*
X0079776Y0238897D01*
X0079575Y0239336D01*
X0079384Y0239780D01*
X0079205Y0240228D01*
X0079037Y0240681D01*
X0078880Y0241138D01*
X0078734Y0241599D01*
X0078599Y0242063D01*
X0078476Y0242530D01*
X0078364Y0243000D01*
X0078264Y0243473D01*
X0078176Y0243948D01*
X0078099Y0244425D01*
X0078034Y0244903D01*
X0077981Y0245384D01*
X0077939Y0245865D01*
X0077910Y0246347D01*
X0077892Y0246830D01*
X0077886Y0247313D01*
X0062138Y0268967D02*
X0062138Y0296526D01*
X0065027Y0285663D02*
X0065027Y0321063D01*
X0110427Y0321063D01*
X0110427Y0285663D01*
X0065027Y0285663D01*
X0038515Y0296526D02*
X0038515Y0268967D01*
X0114500Y0286191D02*
X0135760Y0286191D01*
X0135760Y0324577D01*
X0114500Y0324577D01*
X0114500Y0286191D01*
X0139027Y0293257D02*
X0160527Y0293257D01*
X0174027Y0279757D01*
X0214027Y0279757D01*
X0227527Y0293257D01*
X0249027Y0293257D01*
X0249027Y0216257D01*
X0227527Y0216257D01*
X0214027Y0229757D01*
X0174027Y0229757D01*
X0160527Y0216257D01*
X0139027Y0216257D01*
X0139027Y0293257D01*
X0151212Y0305581D02*
X0151212Y0326841D01*
X0189598Y0326841D01*
X0189598Y0305581D01*
X0151212Y0305581D01*
X0204362Y0305581D02*
X0204362Y0326841D01*
X0242748Y0326841D01*
X0242748Y0305581D01*
X0204362Y0305581D01*
X0252734Y0265563D02*
X0252734Y0229063D01*
X0275484Y0229063D01*
X0275484Y0232313D01*
X0305484Y0232313D01*
X0305484Y0229063D01*
X0328234Y0229063D01*
X0328234Y0265563D01*
X0305484Y0265563D01*
X0305484Y0262313D01*
X0275484Y0262313D01*
X0275484Y0265563D01*
X0252734Y0265563D01*
X0257216Y0286191D02*
X0278476Y0286191D01*
X0278476Y0324577D01*
X0257216Y0324577D01*
X0257216Y0286191D01*
X0283532Y0288774D02*
X0283532Y0324174D01*
X0328932Y0324174D01*
X0328932Y0288774D01*
X0283532Y0288774D01*
X0270799Y0247313D02*
X0270805Y0247796D01*
X0270823Y0248279D01*
X0270852Y0248761D01*
X0270894Y0249242D01*
X0270947Y0249723D01*
X0271012Y0250201D01*
X0271089Y0250678D01*
X0271177Y0251153D01*
X0271277Y0251626D01*
X0271389Y0252096D01*
X0271512Y0252563D01*
X0271647Y0253027D01*
X0271793Y0253488D01*
X0271950Y0253945D01*
X0272118Y0254398D01*
X0272297Y0254846D01*
X0272488Y0255290D01*
X0272689Y0255729D01*
X0272901Y0256164D01*
X0273123Y0256592D01*
X0273356Y0257016D01*
X0273600Y0257433D01*
X0273853Y0257844D01*
X0274117Y0258249D01*
X0274390Y0258648D01*
X0274673Y0259039D01*
X0274965Y0259424D01*
X0275267Y0259801D01*
X0275578Y0260171D01*
X0275898Y0260533D01*
X0276227Y0260887D01*
X0276565Y0261232D01*
X0276910Y0261570D01*
X0277264Y0261899D01*
X0277626Y0262219D01*
X0277996Y0262530D01*
X0278373Y0262832D01*
X0278758Y0263124D01*
X0279149Y0263407D01*
X0279548Y0263680D01*
X0279953Y0263944D01*
X0280364Y0264197D01*
X0280781Y0264441D01*
X0281205Y0264674D01*
X0281633Y0264896D01*
X0282068Y0265108D01*
X0282507Y0265309D01*
X0282951Y0265500D01*
X0283399Y0265679D01*
X0283852Y0265847D01*
X0284309Y0266004D01*
X0284770Y0266150D01*
X0285234Y0266285D01*
X0285701Y0266408D01*
X0286171Y0266520D01*
X0286644Y0266620D01*
X0287119Y0266708D01*
X0287596Y0266785D01*
X0288074Y0266850D01*
X0288555Y0266903D01*
X0289036Y0266945D01*
X0289518Y0266974D01*
X0290001Y0266992D01*
X0290484Y0266998D01*
X0290967Y0266992D01*
X0291450Y0266974D01*
X0291932Y0266945D01*
X0292413Y0266903D01*
X0292894Y0266850D01*
X0293372Y0266785D01*
X0293849Y0266708D01*
X0294324Y0266620D01*
X0294797Y0266520D01*
X0295267Y0266408D01*
X0295734Y0266285D01*
X0296198Y0266150D01*
X0296659Y0266004D01*
X0297116Y0265847D01*
X0297569Y0265679D01*
X0298017Y0265500D01*
X0298461Y0265309D01*
X0298900Y0265108D01*
X0299335Y0264896D01*
X0299763Y0264674D01*
X0300187Y0264441D01*
X0300604Y0264197D01*
X0301015Y0263944D01*
X0301420Y0263680D01*
X0301819Y0263407D01*
X0302210Y0263124D01*
X0302595Y0262832D01*
X0302972Y0262530D01*
X0303342Y0262219D01*
X0303704Y0261899D01*
X0304058Y0261570D01*
X0304403Y0261232D01*
X0304741Y0260887D01*
X0305070Y0260533D01*
X0305390Y0260171D01*
X0305701Y0259801D01*
X0306003Y0259424D01*
X0306295Y0259039D01*
X0306578Y0258648D01*
X0306851Y0258249D01*
X0307115Y0257844D01*
X0307368Y0257433D01*
X0307612Y0257016D01*
X0307845Y0256592D01*
X0308067Y0256164D01*
X0308279Y0255729D01*
X0308480Y0255290D01*
X0308671Y0254846D01*
X0308850Y0254398D01*
X0309018Y0253945D01*
X0309175Y0253488D01*
X0309321Y0253027D01*
X0309456Y0252563D01*
X0309579Y0252096D01*
X0309691Y0251626D01*
X0309791Y0251153D01*
X0309879Y0250678D01*
X0309956Y0250201D01*
X0310021Y0249723D01*
X0310074Y0249242D01*
X0310116Y0248761D01*
X0310145Y0248279D01*
X0310163Y0247796D01*
X0310169Y0247313D01*
X0310163Y0246830D01*
X0310145Y0246347D01*
X0310116Y0245865D01*
X0310074Y0245384D01*
X0310021Y0244903D01*
X0309956Y0244425D01*
X0309879Y0243948D01*
X0309791Y0243473D01*
X0309691Y0243000D01*
X0309579Y0242530D01*
X0309456Y0242063D01*
X0309321Y0241599D01*
X0309175Y0241138D01*
X0309018Y0240681D01*
X0308850Y0240228D01*
X0308671Y0239780D01*
X0308480Y0239336D01*
X0308279Y0238897D01*
X0308067Y0238462D01*
X0307845Y0238034D01*
X0307612Y0237610D01*
X0307368Y0237193D01*
X0307115Y0236782D01*
X0306851Y0236377D01*
X0306578Y0235978D01*
X0306295Y0235587D01*
X0306003Y0235202D01*
X0305701Y0234825D01*
X0305390Y0234455D01*
X0305070Y0234093D01*
X0304741Y0233739D01*
X0304403Y0233394D01*
X0304058Y0233056D01*
X0303704Y0232727D01*
X0303342Y0232407D01*
X0302972Y0232096D01*
X0302595Y0231794D01*
X0302210Y0231502D01*
X0301819Y0231219D01*
X0301420Y0230946D01*
X0301015Y0230682D01*
X0300604Y0230429D01*
X0300187Y0230185D01*
X0299763Y0229952D01*
X0299335Y0229730D01*
X0298900Y0229518D01*
X0298461Y0229317D01*
X0298017Y0229126D01*
X0297569Y0228947D01*
X0297116Y0228779D01*
X0296659Y0228622D01*
X0296198Y0228476D01*
X0295734Y0228341D01*
X0295267Y0228218D01*
X0294797Y0228106D01*
X0294324Y0228006D01*
X0293849Y0227918D01*
X0293372Y0227841D01*
X0292894Y0227776D01*
X0292413Y0227723D01*
X0291932Y0227681D01*
X0291450Y0227652D01*
X0290967Y0227634D01*
X0290484Y0227628D01*
X0290001Y0227634D01*
X0289518Y0227652D01*
X0289036Y0227681D01*
X0288555Y0227723D01*
X0288074Y0227776D01*
X0287596Y0227841D01*
X0287119Y0227918D01*
X0286644Y0228006D01*
X0286171Y0228106D01*
X0285701Y0228218D01*
X0285234Y0228341D01*
X0284770Y0228476D01*
X0284309Y0228622D01*
X0283852Y0228779D01*
X0283399Y0228947D01*
X0282951Y0229126D01*
X0282507Y0229317D01*
X0282068Y0229518D01*
X0281633Y0229730D01*
X0281205Y0229952D01*
X0280781Y0230185D01*
X0280364Y0230429D01*
X0279953Y0230682D01*
X0279548Y0230946D01*
X0279149Y0231219D01*
X0278758Y0231502D01*
X0278373Y0231794D01*
X0277996Y0232096D01*
X0277626Y0232407D01*
X0277264Y0232727D01*
X0276910Y0233056D01*
X0276565Y0233394D01*
X0276227Y0233739D01*
X0275898Y0234093D01*
X0275578Y0234455D01*
X0275267Y0234825D01*
X0274965Y0235202D01*
X0274673Y0235587D01*
X0274390Y0235978D01*
X0274117Y0236377D01*
X0273853Y0236782D01*
X0273600Y0237193D01*
X0273356Y0237610D01*
X0273123Y0238034D01*
X0272901Y0238462D01*
X0272689Y0238897D01*
X0272488Y0239336D01*
X0272297Y0239780D01*
X0272118Y0240228D01*
X0271950Y0240681D01*
X0271793Y0241138D01*
X0271647Y0241599D01*
X0271512Y0242063D01*
X0271389Y0242530D01*
X0271277Y0243000D01*
X0271177Y0243473D01*
X0271089Y0243948D01*
X0271012Y0244425D01*
X0270947Y0244903D01*
X0270894Y0245384D01*
X0270852Y0245865D01*
X0270823Y0246347D01*
X0270805Y0246830D01*
X0270799Y0247313D01*
X0333791Y0233533D02*
X0333791Y0261093D01*
X0357413Y0261093D02*
X0357413Y0233533D01*
X0311138Y0184321D02*
X0311138Y0172510D01*
X0301326Y0172510D01*
X0301326Y0184321D01*
X0311138Y0184321D01*
X0308198Y0174478D02*
X0308200Y0174537D01*
X0308206Y0174595D01*
X0308216Y0174653D01*
X0308229Y0174710D01*
X0308247Y0174767D01*
X0308268Y0174822D01*
X0308293Y0174875D01*
X0308321Y0174926D01*
X0308352Y0174976D01*
X0308387Y0175023D01*
X0308425Y0175068D01*
X0308466Y0175111D01*
X0308510Y0175150D01*
X0308556Y0175186D01*
X0308604Y0175220D01*
X0308655Y0175250D01*
X0308708Y0175276D01*
X0308762Y0175299D01*
X0308817Y0175318D01*
X0308874Y0175334D01*
X0308932Y0175346D01*
X0308990Y0175354D01*
X0309049Y0175358D01*
X0309107Y0175358D01*
X0309166Y0175354D01*
X0309224Y0175346D01*
X0309282Y0175334D01*
X0309339Y0175318D01*
X0309394Y0175299D01*
X0309448Y0175276D01*
X0309501Y0175250D01*
X0309552Y0175220D01*
X0309600Y0175186D01*
X0309646Y0175150D01*
X0309690Y0175111D01*
X0309731Y0175068D01*
X0309769Y0175023D01*
X0309804Y0174976D01*
X0309835Y0174926D01*
X0309863Y0174875D01*
X0309888Y0174822D01*
X0309909Y0174767D01*
X0309927Y0174710D01*
X0309940Y0174653D01*
X0309950Y0174595D01*
X0309956Y0174537D01*
X0309958Y0174478D01*
X0309956Y0174419D01*
X0309950Y0174361D01*
X0309940Y0174303D01*
X0309927Y0174246D01*
X0309909Y0174189D01*
X0309888Y0174134D01*
X0309863Y0174081D01*
X0309835Y0174030D01*
X0309804Y0173980D01*
X0309769Y0173933D01*
X0309731Y0173888D01*
X0309690Y0173845D01*
X0309646Y0173806D01*
X0309600Y0173770D01*
X0309552Y0173736D01*
X0309501Y0173706D01*
X0309448Y0173680D01*
X0309394Y0173657D01*
X0309339Y0173638D01*
X0309282Y0173622D01*
X0309224Y0173610D01*
X0309166Y0173602D01*
X0309107Y0173598D01*
X0309049Y0173598D01*
X0308990Y0173602D01*
X0308932Y0173610D01*
X0308874Y0173622D01*
X0308817Y0173638D01*
X0308762Y0173657D01*
X0308708Y0173680D01*
X0308655Y0173706D01*
X0308604Y0173736D01*
X0308556Y0173770D01*
X0308510Y0173806D01*
X0308466Y0173845D01*
X0308425Y0173888D01*
X0308387Y0173933D01*
X0308352Y0173980D01*
X0308321Y0174030D01*
X0308293Y0174081D01*
X0308268Y0174134D01*
X0308247Y0174189D01*
X0308229Y0174246D01*
X0308216Y0174303D01*
X0308206Y0174361D01*
X0308200Y0174419D01*
X0308198Y0174478D01*
X0317059Y0171526D02*
X0356429Y0171526D01*
X0356429Y0122313D01*
X0317059Y0122313D01*
X0317059Y0171526D01*
X0233398Y0139045D02*
X0233409Y0139939D01*
X0233442Y0140832D01*
X0233497Y0141724D01*
X0233573Y0142614D01*
X0233672Y0143503D01*
X0233792Y0144388D01*
X0233934Y0145271D01*
X0234098Y0146150D01*
X0234283Y0147024D01*
X0234489Y0147894D01*
X0234717Y0148758D01*
X0234966Y0149616D01*
X0235236Y0150468D01*
X0235527Y0151314D01*
X0235838Y0152151D01*
X0236170Y0152981D01*
X0236522Y0153803D01*
X0236894Y0154615D01*
X0237286Y0155418D01*
X0237698Y0156212D01*
X0238129Y0156995D01*
X0238579Y0157767D01*
X0239048Y0158528D01*
X0239535Y0159277D01*
X0240041Y0160014D01*
X0240565Y0160739D01*
X0241106Y0161450D01*
X0241664Y0162148D01*
X0242240Y0162832D01*
X0242832Y0163501D01*
X0243440Y0164156D01*
X0244064Y0164796D01*
X0244704Y0165420D01*
X0245359Y0166028D01*
X0246028Y0166620D01*
X0246712Y0167196D01*
X0247410Y0167754D01*
X0248121Y0168295D01*
X0248846Y0168819D01*
X0249583Y0169325D01*
X0250332Y0169812D01*
X0251093Y0170281D01*
X0251865Y0170731D01*
X0252648Y0171162D01*
X0253442Y0171574D01*
X0254245Y0171966D01*
X0255057Y0172338D01*
X0255879Y0172690D01*
X0256709Y0173022D01*
X0257546Y0173333D01*
X0258392Y0173624D01*
X0259244Y0173894D01*
X0260102Y0174143D01*
X0260966Y0174371D01*
X0261836Y0174577D01*
X0262710Y0174762D01*
X0263589Y0174926D01*
X0264472Y0175068D01*
X0265357Y0175188D01*
X0266246Y0175287D01*
X0267136Y0175363D01*
X0268028Y0175418D01*
X0268921Y0175451D01*
X0269815Y0175462D01*
X0270709Y0175451D01*
X0271602Y0175418D01*
X0272494Y0175363D01*
X0273384Y0175287D01*
X0274273Y0175188D01*
X0275158Y0175068D01*
X0276041Y0174926D01*
X0276920Y0174762D01*
X0277794Y0174577D01*
X0278664Y0174371D01*
X0279528Y0174143D01*
X0280386Y0173894D01*
X0281238Y0173624D01*
X0282084Y0173333D01*
X0282921Y0173022D01*
X0283751Y0172690D01*
X0284573Y0172338D01*
X0285385Y0171966D01*
X0286188Y0171574D01*
X0286982Y0171162D01*
X0287765Y0170731D01*
X0288537Y0170281D01*
X0289298Y0169812D01*
X0290047Y0169325D01*
X0290784Y0168819D01*
X0291509Y0168295D01*
X0292220Y0167754D01*
X0292918Y0167196D01*
X0293602Y0166620D01*
X0294271Y0166028D01*
X0294926Y0165420D01*
X0295566Y0164796D01*
X0296190Y0164156D01*
X0296798Y0163501D01*
X0297390Y0162832D01*
X0297966Y0162148D01*
X0298524Y0161450D01*
X0299065Y0160739D01*
X0299589Y0160014D01*
X0300095Y0159277D01*
X0300582Y0158528D01*
X0301051Y0157767D01*
X0301501Y0156995D01*
X0301932Y0156212D01*
X0302344Y0155418D01*
X0302736Y0154615D01*
X0303108Y0153803D01*
X0303460Y0152981D01*
X0303792Y0152151D01*
X0304103Y0151314D01*
X0304394Y0150468D01*
X0304664Y0149616D01*
X0304913Y0148758D01*
X0305141Y0147894D01*
X0305347Y0147024D01*
X0305532Y0146150D01*
X0305696Y0145271D01*
X0305838Y0144388D01*
X0305958Y0143503D01*
X0306057Y0142614D01*
X0306133Y0141724D01*
X0306188Y0140832D01*
X0306221Y0139939D01*
X0306232Y0139045D01*
X0306221Y0138151D01*
X0306188Y0137258D01*
X0306133Y0136366D01*
X0306057Y0135476D01*
X0305958Y0134587D01*
X0305838Y0133702D01*
X0305696Y0132819D01*
X0305532Y0131940D01*
X0305347Y0131066D01*
X0305141Y0130196D01*
X0304913Y0129332D01*
X0304664Y0128474D01*
X0304394Y0127622D01*
X0304103Y0126776D01*
X0303792Y0125939D01*
X0303460Y0125109D01*
X0303108Y0124287D01*
X0302736Y0123475D01*
X0302344Y0122672D01*
X0301932Y0121878D01*
X0301501Y0121095D01*
X0301051Y0120323D01*
X0300582Y0119562D01*
X0300095Y0118813D01*
X0299589Y0118076D01*
X0299065Y0117351D01*
X0298524Y0116640D01*
X0297966Y0115942D01*
X0297390Y0115258D01*
X0296798Y0114589D01*
X0296190Y0113934D01*
X0295566Y0113294D01*
X0294926Y0112670D01*
X0294271Y0112062D01*
X0293602Y0111470D01*
X0292918Y0110894D01*
X0292220Y0110336D01*
X0291509Y0109795D01*
X0290784Y0109271D01*
X0290047Y0108765D01*
X0289298Y0108278D01*
X0288537Y0107809D01*
X0287765Y0107359D01*
X0286982Y0106928D01*
X0286188Y0106516D01*
X0285385Y0106124D01*
X0284573Y0105752D01*
X0283751Y0105400D01*
X0282921Y0105068D01*
X0282084Y0104757D01*
X0281238Y0104466D01*
X0280386Y0104196D01*
X0279528Y0103947D01*
X0278664Y0103719D01*
X0277794Y0103513D01*
X0276920Y0103328D01*
X0276041Y0103164D01*
X0275158Y0103022D01*
X0274273Y0102902D01*
X0273384Y0102803D01*
X0272494Y0102727D01*
X0271602Y0102672D01*
X0270709Y0102639D01*
X0269815Y0102628D01*
X0268921Y0102639D01*
X0268028Y0102672D01*
X0267136Y0102727D01*
X0266246Y0102803D01*
X0265357Y0102902D01*
X0264472Y0103022D01*
X0263589Y0103164D01*
X0262710Y0103328D01*
X0261836Y0103513D01*
X0260966Y0103719D01*
X0260102Y0103947D01*
X0259244Y0104196D01*
X0258392Y0104466D01*
X0257546Y0104757D01*
X0256709Y0105068D01*
X0255879Y0105400D01*
X0255057Y0105752D01*
X0254245Y0106124D01*
X0253442Y0106516D01*
X0252648Y0106928D01*
X0251865Y0107359D01*
X0251093Y0107809D01*
X0250332Y0108278D01*
X0249583Y0108765D01*
X0248846Y0109271D01*
X0248121Y0109795D01*
X0247410Y0110336D01*
X0246712Y0110894D01*
X0246028Y0111470D01*
X0245359Y0112062D01*
X0244704Y0112670D01*
X0244064Y0113294D01*
X0243440Y0113934D01*
X0242832Y0114589D01*
X0242240Y0115258D01*
X0241664Y0115942D01*
X0241106Y0116640D01*
X0240565Y0117351D01*
X0240041Y0118076D01*
X0239535Y0118813D01*
X0239048Y0119562D01*
X0238579Y0120323D01*
X0238129Y0121095D01*
X0237698Y0121878D01*
X0237286Y0122672D01*
X0236894Y0123475D01*
X0236522Y0124287D01*
X0236170Y0125109D01*
X0235838Y0125939D01*
X0235527Y0126776D01*
X0235236Y0127622D01*
X0234966Y0128474D01*
X0234717Y0129332D01*
X0234489Y0130196D01*
X0234283Y0131066D01*
X0234098Y0131940D01*
X0233934Y0132819D01*
X0233792Y0133702D01*
X0233672Y0134587D01*
X0233573Y0135476D01*
X0233497Y0136366D01*
X0233442Y0137258D01*
X0233409Y0138151D01*
X0233398Y0139045D01*
X0237334Y0164636D02*
X0237334Y0176447D01*
X0229460Y0176447D02*
X0222374Y0176447D01*
X0222374Y0174478D01*
X0222374Y0166604D02*
X0222374Y0164636D01*
X0229460Y0164636D01*
X0179460Y0159510D02*
X0179462Y0159576D01*
X0179468Y0159642D01*
X0179478Y0159708D01*
X0179491Y0159773D01*
X0179509Y0159837D01*
X0179530Y0159899D01*
X0179555Y0159961D01*
X0179583Y0160021D01*
X0179615Y0160079D01*
X0179651Y0160135D01*
X0179689Y0160188D01*
X0179731Y0160240D01*
X0179776Y0160289D01*
X0179823Y0160335D01*
X0179874Y0160378D01*
X0179926Y0160418D01*
X0179981Y0160455D01*
X0180038Y0160489D01*
X0180097Y0160519D01*
X0180158Y0160546D01*
X0180220Y0160569D01*
X0180283Y0160588D01*
X0180348Y0160604D01*
X0180413Y0160616D01*
X0180479Y0160624D01*
X0180545Y0160628D01*
X0180611Y0160628D01*
X0180677Y0160624D01*
X0180743Y0160616D01*
X0180808Y0160604D01*
X0180873Y0160588D01*
X0180936Y0160569D01*
X0180998Y0160546D01*
X0181059Y0160519D01*
X0181118Y0160489D01*
X0181175Y0160455D01*
X0181230Y0160418D01*
X0181282Y0160378D01*
X0181333Y0160335D01*
X0181380Y0160289D01*
X0181425Y0160240D01*
X0181467Y0160188D01*
X0181505Y0160135D01*
X0181541Y0160079D01*
X0181573Y0160021D01*
X0181601Y0159961D01*
X0181626Y0159899D01*
X0181647Y0159837D01*
X0181665Y0159773D01*
X0181678Y0159708D01*
X0181688Y0159642D01*
X0181694Y0159576D01*
X0181696Y0159510D01*
X0181694Y0159444D01*
X0181688Y0159378D01*
X0181678Y0159312D01*
X0181665Y0159247D01*
X0181647Y0159183D01*
X0181626Y0159121D01*
X0181601Y0159059D01*
X0181573Y0158999D01*
X0181541Y0158941D01*
X0181505Y0158885D01*
X0181467Y0158832D01*
X0181425Y0158780D01*
X0181380Y0158731D01*
X0181333Y0158685D01*
X0181282Y0158642D01*
X0181230Y0158602D01*
X0181175Y0158565D01*
X0181118Y0158531D01*
X0181059Y0158501D01*
X0180998Y0158474D01*
X0180936Y0158451D01*
X0180873Y0158432D01*
X0180808Y0158416D01*
X0180743Y0158404D01*
X0180677Y0158396D01*
X0180611Y0158392D01*
X0180545Y0158392D01*
X0180479Y0158396D01*
X0180413Y0158404D01*
X0180348Y0158416D01*
X0180283Y0158432D01*
X0180220Y0158451D01*
X0180158Y0158474D01*
X0180097Y0158501D01*
X0180038Y0158531D01*
X0179981Y0158565D01*
X0179926Y0158602D01*
X0179874Y0158642D01*
X0179823Y0158685D01*
X0179776Y0158731D01*
X0179731Y0158780D01*
X0179689Y0158832D01*
X0179651Y0158885D01*
X0179615Y0158941D01*
X0179583Y0158999D01*
X0179555Y0159059D01*
X0179530Y0159121D01*
X0179509Y0159183D01*
X0179491Y0159247D01*
X0179478Y0159312D01*
X0179468Y0159378D01*
X0179462Y0159444D01*
X0179460Y0159510D01*
X0069028Y0160699D02*
X0069039Y0161593D01*
X0069072Y0162486D01*
X0069127Y0163378D01*
X0069203Y0164268D01*
X0069302Y0165157D01*
X0069422Y0166042D01*
X0069564Y0166925D01*
X0069728Y0167804D01*
X0069913Y0168678D01*
X0070119Y0169548D01*
X0070347Y0170412D01*
X0070596Y0171270D01*
X0070866Y0172122D01*
X0071157Y0172968D01*
X0071468Y0173805D01*
X0071800Y0174635D01*
X0072152Y0175457D01*
X0072524Y0176269D01*
X0072916Y0177072D01*
X0073328Y0177866D01*
X0073759Y0178649D01*
X0074209Y0179421D01*
X0074678Y0180182D01*
X0075165Y0180931D01*
X0075671Y0181668D01*
X0076195Y0182393D01*
X0076736Y0183104D01*
X0077294Y0183802D01*
X0077870Y0184486D01*
X0078462Y0185155D01*
X0079070Y0185810D01*
X0079694Y0186450D01*
X0080334Y0187074D01*
X0080989Y0187682D01*
X0081658Y0188274D01*
X0082342Y0188850D01*
X0083040Y0189408D01*
X0083751Y0189949D01*
X0084476Y0190473D01*
X0085213Y0190979D01*
X0085962Y0191466D01*
X0086723Y0191935D01*
X0087495Y0192385D01*
X0088278Y0192816D01*
X0089072Y0193228D01*
X0089875Y0193620D01*
X0090687Y0193992D01*
X0091509Y0194344D01*
X0092339Y0194676D01*
X0093176Y0194987D01*
X0094022Y0195278D01*
X0094874Y0195548D01*
X0095732Y0195797D01*
X0096596Y0196025D01*
X0097466Y0196231D01*
X0098340Y0196416D01*
X0099219Y0196580D01*
X0100102Y0196722D01*
X0100987Y0196842D01*
X0101876Y0196941D01*
X0102766Y0197017D01*
X0103658Y0197072D01*
X0104551Y0197105D01*
X0105445Y0197116D01*
X0106339Y0197105D01*
X0107232Y0197072D01*
X0108124Y0197017D01*
X0109014Y0196941D01*
X0109903Y0196842D01*
X0110788Y0196722D01*
X0111671Y0196580D01*
X0112550Y0196416D01*
X0113424Y0196231D01*
X0114294Y0196025D01*
X0115158Y0195797D01*
X0116016Y0195548D01*
X0116868Y0195278D01*
X0117714Y0194987D01*
X0118551Y0194676D01*
X0119381Y0194344D01*
X0120203Y0193992D01*
X0121015Y0193620D01*
X0121818Y0193228D01*
X0122612Y0192816D01*
X0123395Y0192385D01*
X0124167Y0191935D01*
X0124928Y0191466D01*
X0125677Y0190979D01*
X0126414Y0190473D01*
X0127139Y0189949D01*
X0127850Y0189408D01*
X0128548Y0188850D01*
X0129232Y0188274D01*
X0129901Y0187682D01*
X0130556Y0187074D01*
X0131196Y0186450D01*
X0131820Y0185810D01*
X0132428Y0185155D01*
X0133020Y0184486D01*
X0133596Y0183802D01*
X0134154Y0183104D01*
X0134695Y0182393D01*
X0135219Y0181668D01*
X0135725Y0180931D01*
X0136212Y0180182D01*
X0136681Y0179421D01*
X0137131Y0178649D01*
X0137562Y0177866D01*
X0137974Y0177072D01*
X0138366Y0176269D01*
X0138738Y0175457D01*
X0139090Y0174635D01*
X0139422Y0173805D01*
X0139733Y0172968D01*
X0140024Y0172122D01*
X0140294Y0171270D01*
X0140543Y0170412D01*
X0140771Y0169548D01*
X0140977Y0168678D01*
X0141162Y0167804D01*
X0141326Y0166925D01*
X0141468Y0166042D01*
X0141588Y0165157D01*
X0141687Y0164268D01*
X0141763Y0163378D01*
X0141818Y0162486D01*
X0141851Y0161593D01*
X0141862Y0160699D01*
X0141851Y0159805D01*
X0141818Y0158912D01*
X0141763Y0158020D01*
X0141687Y0157130D01*
X0141588Y0156241D01*
X0141468Y0155356D01*
X0141326Y0154473D01*
X0141162Y0153594D01*
X0140977Y0152720D01*
X0140771Y0151850D01*
X0140543Y0150986D01*
X0140294Y0150128D01*
X0140024Y0149276D01*
X0139733Y0148430D01*
X0139422Y0147593D01*
X0139090Y0146763D01*
X0138738Y0145941D01*
X0138366Y0145129D01*
X0137974Y0144326D01*
X0137562Y0143532D01*
X0137131Y0142749D01*
X0136681Y0141977D01*
X0136212Y0141216D01*
X0135725Y0140467D01*
X0135219Y0139730D01*
X0134695Y0139005D01*
X0134154Y0138294D01*
X0133596Y0137596D01*
X0133020Y0136912D01*
X0132428Y0136243D01*
X0131820Y0135588D01*
X0131196Y0134948D01*
X0130556Y0134324D01*
X0129901Y0133716D01*
X0129232Y0133124D01*
X0128548Y0132548D01*
X0127850Y0131990D01*
X0127139Y0131449D01*
X0126414Y0130925D01*
X0125677Y0130419D01*
X0124928Y0129932D01*
X0124167Y0129463D01*
X0123395Y0129013D01*
X0122612Y0128582D01*
X0121818Y0128170D01*
X0121015Y0127778D01*
X0120203Y0127406D01*
X0119381Y0127054D01*
X0118551Y0126722D01*
X0117714Y0126411D01*
X0116868Y0126120D01*
X0116016Y0125850D01*
X0115158Y0125601D01*
X0114294Y0125373D01*
X0113424Y0125167D01*
X0112550Y0124982D01*
X0111671Y0124818D01*
X0110788Y0124676D01*
X0109903Y0124556D01*
X0109014Y0124457D01*
X0108124Y0124381D01*
X0107232Y0124326D01*
X0106339Y0124293D01*
X0105445Y0124282D01*
X0104551Y0124293D01*
X0103658Y0124326D01*
X0102766Y0124381D01*
X0101876Y0124457D01*
X0100987Y0124556D01*
X0100102Y0124676D01*
X0099219Y0124818D01*
X0098340Y0124982D01*
X0097466Y0125167D01*
X0096596Y0125373D01*
X0095732Y0125601D01*
X0094874Y0125850D01*
X0094022Y0126120D01*
X0093176Y0126411D01*
X0092339Y0126722D01*
X0091509Y0127054D01*
X0090687Y0127406D01*
X0089875Y0127778D01*
X0089072Y0128170D01*
X0088278Y0128582D01*
X0087495Y0129013D01*
X0086723Y0129463D01*
X0085962Y0129932D01*
X0085213Y0130419D01*
X0084476Y0130925D01*
X0083751Y0131449D01*
X0083040Y0131990D01*
X0082342Y0132548D01*
X0081658Y0133124D01*
X0080989Y0133716D01*
X0080334Y0134324D01*
X0079694Y0134948D01*
X0079070Y0135588D01*
X0078462Y0136243D01*
X0077870Y0136912D01*
X0077294Y0137596D01*
X0076736Y0138294D01*
X0076195Y0139005D01*
X0075671Y0139730D01*
X0075165Y0140467D01*
X0074678Y0141216D01*
X0074209Y0141977D01*
X0073759Y0142749D01*
X0073328Y0143532D01*
X0072916Y0144326D01*
X0072524Y0145129D01*
X0072152Y0145941D01*
X0071800Y0146763D01*
X0071468Y0147593D01*
X0071157Y0148430D01*
X0070866Y0149276D01*
X0070596Y0150128D01*
X0070347Y0150986D01*
X0070119Y0151850D01*
X0069913Y0152720D01*
X0069728Y0153594D01*
X0069564Y0154473D01*
X0069422Y0155356D01*
X0069302Y0156241D01*
X0069203Y0157130D01*
X0069127Y0158020D01*
X0069072Y0158912D01*
X0069039Y0159805D01*
X0069028Y0160699D01*
X0006035Y0042589D02*
X0006046Y0043483D01*
X0006079Y0044376D01*
X0006134Y0045268D01*
X0006210Y0046158D01*
X0006309Y0047047D01*
X0006429Y0047932D01*
X0006571Y0048815D01*
X0006735Y0049694D01*
X0006920Y0050568D01*
X0007126Y0051438D01*
X0007354Y0052302D01*
X0007603Y0053160D01*
X0007873Y0054012D01*
X0008164Y0054858D01*
X0008475Y0055695D01*
X0008807Y0056525D01*
X0009159Y0057347D01*
X0009531Y0058159D01*
X0009923Y0058962D01*
X0010335Y0059756D01*
X0010766Y0060539D01*
X0011216Y0061311D01*
X0011685Y0062072D01*
X0012172Y0062821D01*
X0012678Y0063558D01*
X0013202Y0064283D01*
X0013743Y0064994D01*
X0014301Y0065692D01*
X0014877Y0066376D01*
X0015469Y0067045D01*
X0016077Y0067700D01*
X0016701Y0068340D01*
X0017341Y0068964D01*
X0017996Y0069572D01*
X0018665Y0070164D01*
X0019349Y0070740D01*
X0020047Y0071298D01*
X0020758Y0071839D01*
X0021483Y0072363D01*
X0022220Y0072869D01*
X0022969Y0073356D01*
X0023730Y0073825D01*
X0024502Y0074275D01*
X0025285Y0074706D01*
X0026079Y0075118D01*
X0026882Y0075510D01*
X0027694Y0075882D01*
X0028516Y0076234D01*
X0029346Y0076566D01*
X0030183Y0076877D01*
X0031029Y0077168D01*
X0031881Y0077438D01*
X0032739Y0077687D01*
X0033603Y0077915D01*
X0034473Y0078121D01*
X0035347Y0078306D01*
X0036226Y0078470D01*
X0037109Y0078612D01*
X0037994Y0078732D01*
X0038883Y0078831D01*
X0039773Y0078907D01*
X0040665Y0078962D01*
X0041558Y0078995D01*
X0042452Y0079006D01*
X0043346Y0078995D01*
X0044239Y0078962D01*
X0045131Y0078907D01*
X0046021Y0078831D01*
X0046910Y0078732D01*
X0047795Y0078612D01*
X0048678Y0078470D01*
X0049557Y0078306D01*
X0050431Y0078121D01*
X0051301Y0077915D01*
X0052165Y0077687D01*
X0053023Y0077438D01*
X0053875Y0077168D01*
X0054721Y0076877D01*
X0055558Y0076566D01*
X0056388Y0076234D01*
X0057210Y0075882D01*
X0058022Y0075510D01*
X0058825Y0075118D01*
X0059619Y0074706D01*
X0060402Y0074275D01*
X0061174Y0073825D01*
X0061935Y0073356D01*
X0062684Y0072869D01*
X0063421Y0072363D01*
X0064146Y0071839D01*
X0064857Y0071298D01*
X0065555Y0070740D01*
X0066239Y0070164D01*
X0066908Y0069572D01*
X0067563Y0068964D01*
X0068203Y0068340D01*
X0068827Y0067700D01*
X0069435Y0067045D01*
X0070027Y0066376D01*
X0070603Y0065692D01*
X0071161Y0064994D01*
X0071702Y0064283D01*
X0072226Y0063558D01*
X0072732Y0062821D01*
X0073219Y0062072D01*
X0073688Y0061311D01*
X0074138Y0060539D01*
X0074569Y0059756D01*
X0074981Y0058962D01*
X0075373Y0058159D01*
X0075745Y0057347D01*
X0076097Y0056525D01*
X0076429Y0055695D01*
X0076740Y0054858D01*
X0077031Y0054012D01*
X0077301Y0053160D01*
X0077550Y0052302D01*
X0077778Y0051438D01*
X0077984Y0050568D01*
X0078169Y0049694D01*
X0078333Y0048815D01*
X0078475Y0047932D01*
X0078595Y0047047D01*
X0078694Y0046158D01*
X0078770Y0045268D01*
X0078825Y0044376D01*
X0078858Y0043483D01*
X0078869Y0042589D01*
X0078858Y0041695D01*
X0078825Y0040802D01*
X0078770Y0039910D01*
X0078694Y0039020D01*
X0078595Y0038131D01*
X0078475Y0037246D01*
X0078333Y0036363D01*
X0078169Y0035484D01*
X0077984Y0034610D01*
X0077778Y0033740D01*
X0077550Y0032876D01*
X0077301Y0032018D01*
X0077031Y0031166D01*
X0076740Y0030320D01*
X0076429Y0029483D01*
X0076097Y0028653D01*
X0075745Y0027831D01*
X0075373Y0027019D01*
X0074981Y0026216D01*
X0074569Y0025422D01*
X0074138Y0024639D01*
X0073688Y0023867D01*
X0073219Y0023106D01*
X0072732Y0022357D01*
X0072226Y0021620D01*
X0071702Y0020895D01*
X0071161Y0020184D01*
X0070603Y0019486D01*
X0070027Y0018802D01*
X0069435Y0018133D01*
X0068827Y0017478D01*
X0068203Y0016838D01*
X0067563Y0016214D01*
X0066908Y0015606D01*
X0066239Y0015014D01*
X0065555Y0014438D01*
X0064857Y0013880D01*
X0064146Y0013339D01*
X0063421Y0012815D01*
X0062684Y0012309D01*
X0061935Y0011822D01*
X0061174Y0011353D01*
X0060402Y0010903D01*
X0059619Y0010472D01*
X0058825Y0010060D01*
X0058022Y0009668D01*
X0057210Y0009296D01*
X0056388Y0008944D01*
X0055558Y0008612D01*
X0054721Y0008301D01*
X0053875Y0008010D01*
X0053023Y0007740D01*
X0052165Y0007491D01*
X0051301Y0007263D01*
X0050431Y0007057D01*
X0049557Y0006872D01*
X0048678Y0006708D01*
X0047795Y0006566D01*
X0046910Y0006446D01*
X0046021Y0006347D01*
X0045131Y0006271D01*
X0044239Y0006216D01*
X0043346Y0006183D01*
X0042452Y0006172D01*
X0041558Y0006183D01*
X0040665Y0006216D01*
X0039773Y0006271D01*
X0038883Y0006347D01*
X0037994Y0006446D01*
X0037109Y0006566D01*
X0036226Y0006708D01*
X0035347Y0006872D01*
X0034473Y0007057D01*
X0033603Y0007263D01*
X0032739Y0007491D01*
X0031881Y0007740D01*
X0031029Y0008010D01*
X0030183Y0008301D01*
X0029346Y0008612D01*
X0028516Y0008944D01*
X0027694Y0009296D01*
X0026882Y0009668D01*
X0026079Y0010060D01*
X0025285Y0010472D01*
X0024502Y0010903D01*
X0023730Y0011353D01*
X0022969Y0011822D01*
X0022220Y0012309D01*
X0021483Y0012815D01*
X0020758Y0013339D01*
X0020047Y0013880D01*
X0019349Y0014438D01*
X0018665Y0015014D01*
X0017996Y0015606D01*
X0017341Y0016214D01*
X0016701Y0016838D01*
X0016077Y0017478D01*
X0015469Y0018133D01*
X0014877Y0018802D01*
X0014301Y0019486D01*
X0013743Y0020184D01*
X0013202Y0020895D01*
X0012678Y0021620D01*
X0012172Y0022357D01*
X0011685Y0023106D01*
X0011216Y0023867D01*
X0010766Y0024639D01*
X0010335Y0025422D01*
X0009923Y0026216D01*
X0009531Y0027019D01*
X0009159Y0027831D01*
X0008807Y0028653D01*
X0008475Y0029483D01*
X0008164Y0030320D01*
X0007873Y0031166D01*
X0007603Y0032018D01*
X0007354Y0032876D01*
X0007126Y0033740D01*
X0006920Y0034610D01*
X0006735Y0035484D01*
X0006571Y0036363D01*
X0006429Y0037246D01*
X0006309Y0038131D01*
X0006210Y0039020D01*
X0006134Y0039910D01*
X0006079Y0040802D01*
X0006046Y0041695D01*
X0006035Y0042589D01*
X0155948Y0254757D02*
X0155959Y0255692D01*
X0155994Y0256625D01*
X0156051Y0257558D01*
X0156131Y0258489D01*
X0156234Y0259418D01*
X0156360Y0260344D01*
X0156509Y0261267D01*
X0156680Y0262186D01*
X0156873Y0263100D01*
X0157089Y0264009D01*
X0157327Y0264913D01*
X0157588Y0265811D01*
X0157870Y0266702D01*
X0158174Y0267585D01*
X0158500Y0268461D01*
X0158847Y0269329D01*
X0159215Y0270188D01*
X0159604Y0271038D01*
X0160014Y0271878D01*
X0160444Y0272707D01*
X0160895Y0273526D01*
X0161366Y0274334D01*
X0161856Y0275129D01*
X0162365Y0275913D01*
X0162894Y0276683D01*
X0163442Y0277441D01*
X0164008Y0278184D01*
X0164592Y0278914D01*
X0165193Y0279629D01*
X0165812Y0280329D01*
X0166448Y0281014D01*
X0167101Y0281683D01*
X0167770Y0282336D01*
X0168455Y0282972D01*
X0169155Y0283591D01*
X0169870Y0284192D01*
X0170600Y0284776D01*
X0171343Y0285342D01*
X0172101Y0285890D01*
X0172871Y0286419D01*
X0173655Y0286928D01*
X0174450Y0287418D01*
X0175258Y0287889D01*
X0176077Y0288340D01*
X0176906Y0288770D01*
X0177746Y0289180D01*
X0178596Y0289569D01*
X0179455Y0289937D01*
X0180323Y0290284D01*
X0181199Y0290610D01*
X0182082Y0290914D01*
X0182973Y0291196D01*
X0183871Y0291457D01*
X0184775Y0291695D01*
X0185684Y0291911D01*
X0186598Y0292104D01*
X0187517Y0292275D01*
X0188440Y0292424D01*
X0189366Y0292550D01*
X0190295Y0292653D01*
X0191226Y0292733D01*
X0192159Y0292790D01*
X0193092Y0292825D01*
X0194027Y0292836D01*
X0194962Y0292825D01*
X0195895Y0292790D01*
X0196828Y0292733D01*
X0197759Y0292653D01*
X0198688Y0292550D01*
X0199614Y0292424D01*
X0200537Y0292275D01*
X0201456Y0292104D01*
X0202370Y0291911D01*
X0203279Y0291695D01*
X0204183Y0291457D01*
X0205081Y0291196D01*
X0205972Y0290914D01*
X0206855Y0290610D01*
X0207731Y0290284D01*
X0208599Y0289937D01*
X0209458Y0289569D01*
X0210308Y0289180D01*
X0211148Y0288770D01*
X0211977Y0288340D01*
X0212796Y0287889D01*
X0213604Y0287418D01*
X0214399Y0286928D01*
X0215183Y0286419D01*
X0215953Y0285890D01*
X0216711Y0285342D01*
X0217454Y0284776D01*
X0218184Y0284192D01*
X0218899Y0283591D01*
X0219599Y0282972D01*
X0220284Y0282336D01*
X0220953Y0281683D01*
X0221606Y0281014D01*
X0222242Y0280329D01*
X0222861Y0279629D01*
X0223462Y0278914D01*
X0224046Y0278184D01*
X0224612Y0277441D01*
X0225160Y0276683D01*
X0225689Y0275913D01*
X0226198Y0275129D01*
X0226688Y0274334D01*
X0227159Y0273526D01*
X0227610Y0272707D01*
X0228040Y0271878D01*
X0228450Y0271038D01*
X0228839Y0270188D01*
X0229207Y0269329D01*
X0229554Y0268461D01*
X0229880Y0267585D01*
X0230184Y0266702D01*
X0230466Y0265811D01*
X0230727Y0264913D01*
X0230965Y0264009D01*
X0231181Y0263100D01*
X0231374Y0262186D01*
X0231545Y0261267D01*
X0231694Y0260344D01*
X0231820Y0259418D01*
X0231923Y0258489D01*
X0232003Y0257558D01*
X0232060Y0256625D01*
X0232095Y0255692D01*
X0232106Y0254757D01*
X0232095Y0253822D01*
X0232060Y0252889D01*
X0232003Y0251956D01*
X0231923Y0251025D01*
X0231820Y0250096D01*
X0231694Y0249170D01*
X0231545Y0248247D01*
X0231374Y0247328D01*
X0231181Y0246414D01*
X0230965Y0245505D01*
X0230727Y0244601D01*
X0230466Y0243703D01*
X0230184Y0242812D01*
X0229880Y0241929D01*
X0229554Y0241053D01*
X0229207Y0240185D01*
X0228839Y0239326D01*
X0228450Y0238476D01*
X0228040Y0237636D01*
X0227610Y0236807D01*
X0227159Y0235988D01*
X0226688Y0235180D01*
X0226198Y0234385D01*
X0225689Y0233601D01*
X0225160Y0232831D01*
X0224612Y0232073D01*
X0224046Y0231330D01*
X0223462Y0230600D01*
X0222861Y0229885D01*
X0222242Y0229185D01*
X0221606Y0228500D01*
X0220953Y0227831D01*
X0220284Y0227178D01*
X0219599Y0226542D01*
X0218899Y0225923D01*
X0218184Y0225322D01*
X0217454Y0224738D01*
X0216711Y0224172D01*
X0215953Y0223624D01*
X0215183Y0223095D01*
X0214399Y0222586D01*
X0213604Y0222096D01*
X0212796Y0221625D01*
X0211977Y0221174D01*
X0211148Y0220744D01*
X0210308Y0220334D01*
X0209458Y0219945D01*
X0208599Y0219577D01*
X0207731Y0219230D01*
X0206855Y0218904D01*
X0205972Y0218600D01*
X0205081Y0218318D01*
X0204183Y0218057D01*
X0203279Y0217819D01*
X0202370Y0217603D01*
X0201456Y0217410D01*
X0200537Y0217239D01*
X0199614Y0217090D01*
X0198688Y0216964D01*
X0197759Y0216861D01*
X0196828Y0216781D01*
X0195895Y0216724D01*
X0194962Y0216689D01*
X0194027Y0216678D01*
X0193092Y0216689D01*
X0192159Y0216724D01*
X0191226Y0216781D01*
X0190295Y0216861D01*
X0189366Y0216964D01*
X0188440Y0217090D01*
X0187517Y0217239D01*
X0186598Y0217410D01*
X0185684Y0217603D01*
X0184775Y0217819D01*
X0183871Y0218057D01*
X0182973Y0218318D01*
X0182082Y0218600D01*
X0181199Y0218904D01*
X0180323Y0219230D01*
X0179455Y0219577D01*
X0178596Y0219945D01*
X0177746Y0220334D01*
X0176906Y0220744D01*
X0176077Y0221174D01*
X0175258Y0221625D01*
X0174450Y0222096D01*
X0173655Y0222586D01*
X0172871Y0223095D01*
X0172101Y0223624D01*
X0171343Y0224172D01*
X0170600Y0224738D01*
X0169870Y0225322D01*
X0169155Y0225923D01*
X0168455Y0226542D01*
X0167770Y0227178D01*
X0167101Y0227831D01*
X0166448Y0228500D01*
X0165812Y0229185D01*
X0165193Y0229885D01*
X0164592Y0230600D01*
X0164008Y0231330D01*
X0163442Y0232073D01*
X0162894Y0232831D01*
X0162365Y0233601D01*
X0161856Y0234385D01*
X0161366Y0235180D01*
X0160895Y0235988D01*
X0160444Y0236807D01*
X0160014Y0237636D01*
X0159604Y0238476D01*
X0159215Y0239326D01*
X0158847Y0240185D01*
X0158500Y0241053D01*
X0158174Y0241929D01*
X0157870Y0242812D01*
X0157588Y0243703D01*
X0157327Y0244601D01*
X0157089Y0245505D01*
X0156873Y0246414D01*
X0156680Y0247328D01*
X0156509Y0248247D01*
X0156360Y0249170D01*
X0156234Y0250096D01*
X0156131Y0251025D01*
X0156051Y0251956D01*
X0155994Y0252889D01*
X0155959Y0253822D01*
X0155948Y0254757D01*
D16*
X0021783Y0193163D02*
X0021783Y0183352D01*
X0009972Y0183352D01*
X0009972Y0193163D01*
X0021783Y0193163D01*
D17*
X0111195Y0292503D02*
X0111562Y0292503D01*
X0111929Y0292870D01*
X0111929Y0293604D01*
X0112296Y0293971D01*
X0112663Y0293971D01*
X0113030Y0293604D01*
X0113030Y0292870D01*
X0112663Y0292503D01*
X0111195Y0292503D02*
X0110828Y0292870D01*
X0110828Y0293604D01*
X0111195Y0293971D01*
X0110828Y0294713D02*
X0112663Y0294713D01*
X0113030Y0295080D01*
X0113030Y0295814D01*
X0112663Y0296180D01*
X0110828Y0296180D01*
X0110828Y0296922D02*
X0110828Y0298023D01*
X0111195Y0298390D01*
X0111929Y0298390D01*
X0112296Y0298023D01*
X0112296Y0296922D01*
X0113030Y0296922D02*
X0110828Y0296922D01*
X0110828Y0299132D02*
X0110828Y0300233D01*
X0111195Y0300600D01*
X0111929Y0300600D01*
X0112296Y0300233D01*
X0112296Y0299132D01*
X0113030Y0299132D02*
X0110828Y0299132D01*
X0110828Y0301342D02*
X0113030Y0301342D01*
X0113030Y0302810D01*
X0113030Y0304286D02*
X0111929Y0304286D01*
X0111195Y0305020D01*
X0110828Y0305020D01*
X0110828Y0305762D02*
X0112296Y0305762D01*
X0113030Y0306496D01*
X0112296Y0307230D01*
X0110828Y0307230D01*
X0111562Y0307972D02*
X0110828Y0308706D01*
X0111562Y0309440D01*
X0113030Y0309440D01*
X0113030Y0310182D02*
X0113030Y0311650D01*
X0112296Y0312392D02*
X0113030Y0313126D01*
X0112296Y0313860D01*
X0110828Y0313860D01*
X0110828Y0314602D02*
X0113030Y0314602D01*
X0113030Y0316069D01*
X0111929Y0315335D02*
X0111929Y0314602D01*
X0110828Y0314602D02*
X0110828Y0316069D01*
X0110828Y0312392D02*
X0112296Y0312392D01*
X0113030Y0310182D02*
X0110828Y0310182D01*
X0111929Y0309440D02*
X0111929Y0307972D01*
X0111562Y0307972D02*
X0113030Y0307972D01*
X0111929Y0304286D02*
X0111195Y0303552D01*
X0110828Y0303552D01*
X0098627Y0302997D02*
X0097893Y0303731D01*
X0096425Y0303731D01*
X0096792Y0304473D02*
X0098260Y0304473D01*
X0098627Y0304840D01*
X0098627Y0305574D01*
X0098260Y0305941D01*
X0096792Y0305941D01*
X0096425Y0305574D01*
X0096425Y0304840D01*
X0096792Y0304473D01*
X0096425Y0302263D02*
X0097893Y0302263D01*
X0098627Y0302997D01*
X0098260Y0306683D02*
X0096425Y0306683D01*
X0096425Y0308151D02*
X0098260Y0308151D01*
X0098627Y0307784D01*
X0098627Y0307050D01*
X0098260Y0306683D01*
X0096425Y0308893D02*
X0096425Y0310361D01*
X0096425Y0309627D02*
X0098627Y0309627D01*
X0088627Y0307784D02*
X0088627Y0306683D01*
X0086425Y0306683D01*
X0086425Y0307784D01*
X0086792Y0308151D01*
X0088260Y0308151D01*
X0088627Y0307784D01*
X0088627Y0305941D02*
X0086425Y0305941D01*
X0086425Y0304473D02*
X0088627Y0305941D01*
X0088627Y0304473D02*
X0086425Y0304473D01*
X0086792Y0303731D02*
X0086425Y0303364D01*
X0086425Y0302630D01*
X0086792Y0302263D01*
X0088260Y0302263D01*
X0088627Y0302630D01*
X0088627Y0303364D01*
X0088260Y0303731D01*
X0087526Y0303731D01*
X0087526Y0302997D01*
X0078627Y0302997D02*
X0077893Y0303731D01*
X0076425Y0303731D01*
X0076425Y0304473D02*
X0076425Y0305207D01*
X0076425Y0304840D02*
X0078627Y0304840D01*
X0078627Y0304473D02*
X0078627Y0305207D01*
X0078627Y0305947D02*
X0076425Y0305947D01*
X0078627Y0307414D01*
X0076425Y0307414D01*
X0078627Y0302997D02*
X0077893Y0302263D01*
X0076425Y0302263D01*
X0160283Y0301911D02*
X0160283Y0304113D01*
X0161383Y0304113D01*
X0161750Y0303746D01*
X0161750Y0303012D01*
X0161383Y0302645D01*
X0160283Y0302645D01*
X0162492Y0302278D02*
X0162859Y0301911D01*
X0163593Y0301911D01*
X0163960Y0302278D01*
X0163960Y0304113D01*
X0164702Y0304113D02*
X0165803Y0304113D01*
X0166170Y0303746D01*
X0166170Y0303012D01*
X0165803Y0302645D01*
X0164702Y0302645D01*
X0165436Y0302645D02*
X0166170Y0301911D01*
X0166912Y0302278D02*
X0167279Y0301911D01*
X0168013Y0301911D01*
X0168380Y0302278D01*
X0168380Y0303012D01*
X0167646Y0303012D01*
X0166912Y0303746D02*
X0167279Y0304113D01*
X0168013Y0304113D01*
X0168380Y0303746D01*
X0169122Y0304113D02*
X0169122Y0301911D01*
X0170590Y0301911D01*
X0171332Y0302645D02*
X0171332Y0304113D01*
X0170590Y0304113D02*
X0169122Y0304113D01*
X0169122Y0303012D02*
X0169856Y0303012D01*
X0171332Y0302645D02*
X0172066Y0301911D01*
X0172800Y0302645D01*
X0172800Y0304113D01*
X0173542Y0303379D02*
X0174276Y0304113D01*
X0175010Y0303379D01*
X0175010Y0301911D01*
X0175752Y0301911D02*
X0177220Y0301911D01*
X0177962Y0302645D02*
X0178696Y0301911D01*
X0179430Y0302645D01*
X0179430Y0304113D01*
X0180171Y0304113D02*
X0180171Y0301911D01*
X0181639Y0301911D01*
X0180905Y0303012D02*
X0180171Y0303012D01*
X0180171Y0304113D02*
X0181639Y0304113D01*
X0177962Y0304113D02*
X0177962Y0302645D01*
X0175752Y0301911D02*
X0175752Y0304113D01*
X0175010Y0303012D02*
X0173542Y0303012D01*
X0173542Y0303379D02*
X0173542Y0301911D01*
X0166912Y0302278D02*
X0166912Y0303746D01*
X0164702Y0304113D02*
X0164702Y0301911D01*
X0162492Y0302278D02*
X0162492Y0304113D01*
X0221167Y0304113D02*
X0221167Y0301911D01*
X0221167Y0303012D02*
X0221901Y0303012D01*
X0221167Y0304113D02*
X0222635Y0304113D01*
X0223377Y0303379D02*
X0224111Y0304113D01*
X0224845Y0303379D01*
X0224845Y0301911D01*
X0225587Y0301911D02*
X0225587Y0304113D01*
X0227054Y0301911D01*
X0227054Y0304113D01*
X0224845Y0303012D02*
X0223377Y0303012D01*
X0223377Y0303379D02*
X0223377Y0301911D01*
X0253544Y0301568D02*
X0255746Y0301568D01*
X0255379Y0300093D02*
X0255746Y0299726D01*
X0255746Y0298992D01*
X0255379Y0298625D01*
X0254645Y0298992D02*
X0254645Y0299726D01*
X0255012Y0300093D01*
X0255379Y0300093D01*
X0254645Y0298992D02*
X0254278Y0298625D01*
X0253911Y0298625D01*
X0253544Y0298992D01*
X0253544Y0299726D01*
X0253911Y0300093D01*
X0253544Y0300834D02*
X0253544Y0302302D01*
X0253911Y0303044D02*
X0255379Y0303044D01*
X0255746Y0303411D01*
X0255746Y0304145D01*
X0255379Y0304512D01*
X0253911Y0304512D01*
X0253544Y0304145D01*
X0253544Y0303411D01*
X0253911Y0303044D01*
X0253544Y0305254D02*
X0253544Y0306355D01*
X0253911Y0306722D01*
X0254645Y0306722D01*
X0255012Y0306355D01*
X0255012Y0305254D01*
X0255746Y0305254D02*
X0253544Y0305254D01*
X0255012Y0305988D02*
X0255746Y0306722D01*
X0255746Y0297885D02*
X0255746Y0297151D01*
X0255746Y0297518D02*
X0253544Y0297518D01*
X0253544Y0297151D02*
X0253544Y0297885D01*
X0253544Y0296409D02*
X0255746Y0296409D01*
X0255746Y0294941D02*
X0253544Y0294941D01*
X0254278Y0295675D01*
X0253544Y0296409D01*
X0253911Y0294199D02*
X0254645Y0294199D01*
X0255012Y0293833D01*
X0255012Y0292732D01*
X0255012Y0293466D02*
X0255746Y0294199D01*
X0255746Y0292732D02*
X0253544Y0292732D01*
X0253544Y0293833D01*
X0253911Y0294199D01*
X0253544Y0291990D02*
X0253544Y0290522D01*
X0255746Y0290522D01*
X0255746Y0291990D01*
X0254645Y0291256D02*
X0254645Y0290522D01*
X0254645Y0289780D02*
X0254645Y0288312D01*
X0255746Y0288312D02*
X0253544Y0288312D01*
X0253544Y0287570D02*
X0253544Y0286102D01*
X0253544Y0286836D02*
X0255746Y0286836D01*
X0255746Y0289780D02*
X0253544Y0289780D01*
X0294930Y0305374D02*
X0296398Y0305374D01*
X0297132Y0306108D01*
X0296398Y0306842D01*
X0294930Y0306842D01*
X0294930Y0307584D02*
X0294930Y0308317D01*
X0294930Y0307950D02*
X0297132Y0307950D01*
X0297132Y0307584D02*
X0297132Y0308317D01*
X0297132Y0309057D02*
X0294930Y0309057D01*
X0297132Y0310525D01*
X0294930Y0310525D01*
X0304930Y0310894D02*
X0304930Y0309793D01*
X0307132Y0309793D01*
X0307132Y0310894D01*
X0306765Y0311261D01*
X0305297Y0311261D01*
X0304930Y0310894D01*
X0304930Y0309051D02*
X0307132Y0309051D01*
X0304930Y0307584D01*
X0307132Y0307584D01*
X0306765Y0306842D02*
X0306031Y0306842D01*
X0306031Y0306108D01*
X0305297Y0306842D02*
X0304930Y0306475D01*
X0304930Y0305741D01*
X0305297Y0305374D01*
X0306765Y0305374D01*
X0307132Y0305741D01*
X0307132Y0306475D01*
X0306765Y0306842D01*
X0314930Y0306842D02*
X0316398Y0306842D01*
X0317132Y0306108D01*
X0316398Y0305374D01*
X0314930Y0305374D01*
X0315297Y0307584D02*
X0316765Y0307584D01*
X0317132Y0307950D01*
X0317132Y0308684D01*
X0316765Y0309051D01*
X0315297Y0309051D01*
X0314930Y0308684D01*
X0314930Y0307950D01*
X0315297Y0307584D01*
X0314930Y0309793D02*
X0316765Y0309793D01*
X0317132Y0310160D01*
X0317132Y0310894D01*
X0316765Y0311261D01*
X0314930Y0311261D01*
X0314930Y0312003D02*
X0314930Y0313471D01*
X0314930Y0312737D02*
X0317132Y0312737D01*
X0326966Y0127057D02*
X0328067Y0127057D01*
X0328434Y0126690D01*
X0328434Y0125222D01*
X0328067Y0124856D01*
X0326966Y0124856D01*
X0326966Y0127057D01*
X0329176Y0127057D02*
X0329910Y0127057D01*
X0329543Y0127057D02*
X0329543Y0124856D01*
X0329176Y0124856D02*
X0329910Y0124856D01*
X0330649Y0124856D02*
X0330649Y0127057D01*
X0331750Y0127057D01*
X0332117Y0126690D01*
X0332117Y0125956D01*
X0331750Y0125589D01*
X0330649Y0125589D01*
X0335069Y0125222D02*
X0335436Y0124856D01*
X0336170Y0124856D01*
X0336537Y0125222D01*
X0336537Y0125589D01*
X0336170Y0125956D01*
X0335436Y0125956D01*
X0335069Y0126323D01*
X0335069Y0126690D01*
X0335436Y0127057D01*
X0336170Y0127057D01*
X0336537Y0126690D01*
X0337279Y0127057D02*
X0337279Y0124856D01*
X0338013Y0125589D01*
X0338747Y0124856D01*
X0338747Y0127057D01*
X0339489Y0127057D02*
X0340223Y0127057D01*
X0339856Y0127057D02*
X0339856Y0124856D01*
X0339489Y0124856D02*
X0340223Y0124856D01*
X0341696Y0124856D02*
X0341696Y0127057D01*
X0340962Y0127057D02*
X0342430Y0127057D01*
X0343172Y0126690D02*
X0343172Y0125222D01*
X0343539Y0124856D01*
X0344273Y0124856D01*
X0344640Y0125222D01*
X0345382Y0124856D02*
X0345382Y0127057D01*
X0344640Y0126690D02*
X0344273Y0127057D01*
X0343539Y0127057D01*
X0343172Y0126690D01*
X0345382Y0125956D02*
X0346850Y0125956D01*
X0346850Y0124856D02*
X0346850Y0127057D01*
X0113365Y0012065D02*
X0113365Y0009863D01*
X0112631Y0009863D02*
X0114099Y0009863D01*
X0112631Y0011331D02*
X0113365Y0012065D01*
X0111889Y0012065D02*
X0111889Y0009863D01*
X0111889Y0010964D02*
X0110421Y0010964D01*
X0110421Y0009863D02*
X0110421Y0012065D01*
D18*
X0192649Y0189124D03*
M02*
