G75*
%MOIN*%
%OFA0B0*%
%FSLAX25Y25*%
%IPPOS*%
%LPD*%
%AMOC8*
5,1,8,0,0,1.08239X$1,22.5*
%
%ADD10R,0.40000X0.20000*%
%ADD11C,0.10000*%
%ADD12C,0.06000*%
%ADD13C,0.05700*%
%ADD14C,0.09449*%
%ADD15R,0.20000X0.40000*%
%ADD16OC8,0.10335*%
%ADD17C,0.05906*%
%ADD18R,0.03543X0.03150*%
%ADD19C,0.04724*%
%ADD20R,0.04331X0.03937*%
%ADD21C,0.05000*%
%ADD22C,0.01000*%
%ADD23C,0.02778*%
%ADD24C,0.00984*%
%ADD25C,0.10000*%
%ADD26C,0.00800*%
%ADD27C,0.02000*%
%ADD28C,0.00600*%
%ADD29C,0.03200*%
%ADD30C,0.00787*%
D10*
X0044421Y0313494D03*
D11*
X0115884Y0171138D03*
X0095005Y0150259D03*
X0057216Y0121329D03*
X0027689Y0121329D03*
X0090681Y0081959D03*
X0120208Y0081959D03*
X0057216Y0042589D03*
X0027689Y0042589D03*
X0243240Y0044557D03*
X0272767Y0044557D03*
X0306232Y0083927D03*
X0335760Y0083927D03*
X0284578Y0139045D03*
X0255051Y0139045D03*
D12*
X0097727Y0291163D02*
X0097727Y0297163D01*
X0087727Y0297163D02*
X0087727Y0291163D01*
X0077727Y0291163D02*
X0077727Y0297163D01*
X0296232Y0294274D02*
X0296232Y0300274D01*
X0306232Y0300274D02*
X0306232Y0294274D01*
X0316232Y0294274D02*
X0316232Y0300274D01*
D13*
X0213201Y0137904D03*
X0213201Y0127904D03*
X0213201Y0117904D03*
X0213201Y0107904D03*
X0213201Y0097904D03*
X0213201Y0087904D03*
X0213201Y0077904D03*
X0213201Y0067904D03*
X0213201Y0057904D03*
X0213201Y0047904D03*
X0213201Y0037904D03*
X0213201Y0027904D03*
X0213201Y0017904D03*
X0213201Y0007904D03*
X0163201Y0017904D03*
X0153201Y0017904D03*
X0153201Y0027904D03*
X0153201Y0037904D03*
X0163201Y0037904D03*
X0163201Y0047904D03*
X0153201Y0047904D03*
X0153201Y0057904D03*
X0163201Y0057904D03*
X0153201Y0067904D03*
X0153201Y0077904D03*
X0153201Y0087904D03*
X0153201Y0097904D03*
X0153201Y0107904D03*
X0153201Y0117904D03*
X0153201Y0127904D03*
X0153201Y0137904D03*
X0163201Y0137904D03*
X0173201Y0137904D03*
X0183201Y0137904D03*
X0193201Y0137904D03*
X0203201Y0137904D03*
X0153201Y0007904D03*
D14*
X0122531Y0024163D03*
X0100878Y0024163D03*
X0125130Y0294557D03*
X0125130Y0316211D03*
X0159578Y0316211D03*
X0181232Y0316211D03*
X0212728Y0316211D03*
X0234382Y0316211D03*
X0267846Y0316211D03*
X0267846Y0294557D03*
D15*
X0345602Y0287667D03*
D16*
X0028279Y0286683D03*
X0014893Y0286683D03*
X0014893Y0233652D03*
X0028279Y0233652D03*
D17*
X0184185Y0092982D03*
X0184185Y0063061D03*
D18*
X0170405Y0074281D03*
X0170405Y0081762D03*
X0178673Y0078022D03*
D19*
X0322492Y0132156D03*
X0322492Y0142156D03*
X0322492Y0152156D03*
X0322492Y0162156D03*
X0352492Y0162156D03*
X0352492Y0152156D03*
X0352492Y0142156D03*
X0352492Y0132156D03*
D20*
X0345012Y0132156D03*
X0338319Y0132156D03*
X0338319Y0141998D03*
X0345012Y0141998D03*
X0345012Y0151841D03*
X0338319Y0151841D03*
X0338319Y0161683D03*
X0345012Y0161683D03*
D21*
X0093634Y0306368D02*
X0087531Y0300266D01*
X0087727Y0294163D01*
X0087531Y0300659D01*
X0081823Y0306368D01*
X0062138Y0306368D01*
X0050326Y0294557D01*
X0085760Y0274872D02*
X0087531Y0276644D01*
X0087727Y0294163D01*
D22*
X0153201Y0017904D02*
X0163201Y0007904D01*
X0213201Y0007904D01*
D23*
X0203870Y0026841D03*
X0188122Y0026841D03*
X0184185Y0007156D03*
X0144815Y0011093D03*
X0133004Y0011093D03*
X0117256Y0011093D03*
X0101508Y0011093D03*
X0085760Y0011093D03*
X0085760Y0026841D03*
X0093634Y0038652D03*
X0105445Y0050463D03*
X0117256Y0062274D03*
X0133004Y0062274D03*
X0137925Y0062274D03*
X0137925Y0072116D03*
X0133004Y0078022D03*
X0133004Y0093770D03*
X0140878Y0107549D03*
X0146312Y0113455D03*
X0133004Y0109518D03*
X0129067Y0125266D03*
X0140878Y0130187D03*
X0129067Y0141014D03*
X0123161Y0153809D03*
X0123161Y0157321D03*
X0123161Y0160699D03*
X0123161Y0164077D03*
X0136941Y0166604D03*
X0140878Y0162667D03*
X0144815Y0162667D03*
X0148752Y0162667D03*
X0148752Y0166604D03*
X0144815Y0166604D03*
X0144815Y0170541D03*
X0148752Y0170541D03*
X0148752Y0174478D03*
X0144815Y0174478D03*
X0140878Y0174478D03*
X0140878Y0170541D03*
X0136941Y0174478D03*
X0136941Y0178415D03*
X0140878Y0178415D03*
X0144815Y0178415D03*
X0148752Y0178415D03*
X0148752Y0182352D03*
X0144815Y0182352D03*
X0140878Y0182352D03*
X0144815Y0158730D03*
X0144815Y0154793D03*
X0148752Y0153809D03*
X0148752Y0149872D03*
X0152689Y0149872D03*
X0156626Y0149872D03*
X0160563Y0149872D03*
X0164500Y0149872D03*
X0168437Y0149872D03*
X0172374Y0149872D03*
X0172374Y0145935D03*
X0168437Y0145935D03*
X0164500Y0145935D03*
X0160563Y0145935D03*
X0156626Y0145935D03*
X0152689Y0145935D03*
X0152689Y0153809D03*
X0156626Y0153809D03*
X0160563Y0153809D03*
X0164500Y0153809D03*
X0168437Y0153809D03*
X0172374Y0153809D03*
X0192059Y0144951D03*
X0202965Y0144951D03*
X0217329Y0133140D03*
X0217329Y0124675D03*
X0217329Y0121297D03*
X0229494Y0122707D03*
X0229494Y0126644D03*
X0229494Y0130581D03*
X0235272Y0130944D03*
X0233924Y0134322D03*
X0235366Y0121329D03*
X0235366Y0105581D03*
X0251114Y0105581D03*
X0251114Y0121329D03*
X0266862Y0121329D03*
X0268988Y0133888D03*
X0267846Y0151841D03*
X0271783Y0151841D03*
X0271783Y0155778D03*
X0267846Y0155778D03*
X0267846Y0159715D03*
X0263909Y0155778D03*
X0258988Y0148888D03*
X0251114Y0137077D03*
X0282610Y0152825D03*
X0298358Y0152825D03*
X0314106Y0152825D03*
X0329854Y0152825D03*
X0329854Y0168573D03*
X0345602Y0168573D03*
X0329854Y0137077D03*
X0314106Y0137077D03*
X0298358Y0137077D03*
X0302295Y0121329D03*
X0314106Y0121329D03*
X0329854Y0121329D03*
X0329854Y0105581D03*
X0314106Y0105581D03*
X0298358Y0089833D03*
X0282610Y0089833D03*
X0282610Y0105581D03*
X0266862Y0105581D03*
X0235366Y0089833D03*
X0229501Y0085896D03*
X0235366Y0074085D03*
X0235366Y0058337D03*
X0251114Y0058337D03*
X0251114Y0074085D03*
X0266862Y0074085D03*
X0282610Y0074085D03*
X0282610Y0058337D03*
X0266862Y0058337D03*
X0262925Y0042589D03*
X0251114Y0042589D03*
X0235366Y0042589D03*
X0229501Y0032746D03*
X0225523Y0030457D03*
X0235366Y0026841D03*
X0235366Y0011093D03*
X0251114Y0011093D03*
X0251114Y0026841D03*
X0266862Y0026841D03*
X0282610Y0026841D03*
X0282610Y0011093D03*
X0266862Y0011093D03*
X0298358Y0011093D03*
X0298358Y0026841D03*
X0314106Y0011093D03*
X0329854Y0011093D03*
X0341665Y0030778D03*
X0345602Y0042589D03*
X0345602Y0058337D03*
X0345602Y0074085D03*
X0345602Y0089833D03*
X0345602Y0105581D03*
X0345602Y0121329D03*
X0329854Y0089833D03*
X0329854Y0074085D03*
X0329854Y0058337D03*
X0314106Y0058337D03*
X0298358Y0074085D03*
X0298358Y0042589D03*
X0203870Y0050463D03*
X0188122Y0050463D03*
X0172374Y0050463D03*
X0172374Y0066211D03*
X0160563Y0078022D03*
X0168437Y0089833D03*
X0180248Y0105581D03*
X0185641Y0118770D03*
X0185641Y0122148D03*
X0185641Y0125526D03*
X0192571Y0125526D03*
X0192571Y0122148D03*
X0192571Y0118770D03*
X0172374Y0129203D03*
X0160563Y0129203D03*
X0160563Y0117392D03*
X0148752Y0158730D03*
X0107413Y0157321D03*
X0107413Y0160699D03*
X0107413Y0164077D03*
X0101508Y0168573D03*
X0101508Y0180384D03*
X0085760Y0180384D03*
X0085760Y0168573D03*
X0085760Y0152825D03*
X0070012Y0152825D03*
X0070012Y0168573D03*
X0058201Y0168573D03*
X0058201Y0180384D03*
X0070012Y0180384D03*
X0070012Y0196132D03*
X0058201Y0196132D03*
X0085760Y0196132D03*
X0101508Y0196132D03*
X0101508Y0211880D03*
X0101508Y0227628D03*
X0117256Y0227628D03*
X0133004Y0227628D03*
X0133004Y0219754D03*
X0136941Y0215817D03*
X0140878Y0215817D03*
X0144815Y0215817D03*
X0144815Y0211880D03*
X0148752Y0211880D03*
X0140878Y0211880D03*
X0136941Y0211880D03*
X0133004Y0211880D03*
X0140878Y0219754D03*
X0148752Y0219754D03*
X0148752Y0227628D03*
X0164500Y0227628D03*
X0164500Y0217785D03*
X0180248Y0217785D03*
X0180248Y0227628D03*
X0195996Y0227628D03*
X0195996Y0213848D03*
X0211744Y0227628D03*
X0227492Y0227628D03*
X0243240Y0227628D03*
X0255051Y0241407D03*
X0258988Y0237470D03*
X0262925Y0233533D03*
X0266862Y0229596D03*
X0270799Y0225659D03*
X0258988Y0227628D03*
X0251114Y0245344D03*
X0247177Y0249281D03*
X0243240Y0253219D03*
X0239303Y0257156D03*
X0235366Y0261093D03*
X0231429Y0265030D03*
X0227492Y0268967D03*
X0223555Y0272904D03*
X0219618Y0276841D03*
X0215681Y0280778D03*
X0211744Y0284715D03*
X0207807Y0288652D03*
X0195996Y0290620D03*
X0180248Y0290620D03*
X0164500Y0290620D03*
X0160563Y0301879D03*
X0152689Y0310857D03*
X0148752Y0324085D03*
X0148752Y0290620D03*
X0148752Y0274872D03*
X0133004Y0274872D03*
X0133004Y0259124D03*
X0148752Y0259124D03*
X0148752Y0243376D03*
X0133004Y0243376D03*
X0117256Y0243376D03*
X0117256Y0259124D03*
X0101508Y0259124D03*
X0101508Y0243376D03*
X0085760Y0259124D03*
X0077886Y0259124D03*
X0077886Y0255187D03*
X0073949Y0255187D03*
X0073949Y0259124D03*
X0073949Y0263061D03*
X0077886Y0263061D03*
X0077886Y0266998D03*
X0077886Y0270935D03*
X0077886Y0274872D03*
X0077886Y0278809D03*
X0077886Y0282746D03*
X0073949Y0278809D03*
X0073949Y0274872D03*
X0073949Y0270935D03*
X0073949Y0266998D03*
X0070012Y0266998D03*
X0070012Y0270935D03*
X0070012Y0274872D03*
X0066075Y0270935D03*
X0066075Y0266998D03*
X0062138Y0266998D03*
X0062138Y0263061D03*
X0066075Y0263061D03*
X0070012Y0263061D03*
X0070012Y0259124D03*
X0070012Y0255187D03*
X0066075Y0255187D03*
X0066075Y0259124D03*
X0062138Y0259124D03*
X0062138Y0255187D03*
X0038515Y0274872D03*
X0038515Y0278809D03*
X0038515Y0282746D03*
X0038515Y0286683D03*
X0042452Y0286683D03*
X0042452Y0282746D03*
X0046389Y0282746D03*
X0046389Y0286683D03*
X0050326Y0286683D03*
X0050326Y0282746D03*
X0054263Y0282746D03*
X0054263Y0286683D03*
X0058201Y0286683D03*
X0059185Y0290620D03*
X0062138Y0290620D03*
X0062138Y0294557D03*
X0059185Y0294557D03*
X0059185Y0298494D03*
X0062138Y0298494D03*
X0066075Y0298494D03*
X0066075Y0294557D03*
X0070012Y0302431D03*
X0070012Y0306368D03*
X0073949Y0306368D03*
X0070012Y0310305D03*
X0070012Y0314242D03*
X0070012Y0318179D03*
X0070012Y0322116D03*
X0073949Y0322116D03*
X0085760Y0322116D03*
X0101508Y0322116D03*
X0101508Y0306368D03*
X0085760Y0306368D03*
X0041468Y0298494D03*
X0038515Y0298494D03*
X0038515Y0294557D03*
X0041468Y0294557D03*
X0041468Y0290620D03*
X0038515Y0290620D03*
X0164500Y0274872D03*
X0180248Y0274872D03*
X0195996Y0274872D03*
X0211744Y0274872D03*
X0211744Y0259124D03*
X0227492Y0259124D03*
X0227492Y0243376D03*
X0243240Y0243376D03*
X0258988Y0263061D03*
X0262925Y0259124D03*
X0266862Y0255187D03*
X0270799Y0251250D03*
X0274736Y0247313D03*
X0278673Y0247313D03*
X0278673Y0243376D03*
X0282610Y0239439D03*
X0286547Y0235502D03*
X0290484Y0231565D03*
X0290484Y0243376D03*
X0290484Y0259124D03*
X0274736Y0259124D03*
X0255051Y0266998D03*
X0251114Y0270935D03*
X0247177Y0274872D03*
X0247177Y0278809D03*
X0243240Y0278809D03*
X0239303Y0282746D03*
X0235366Y0286683D03*
X0231429Y0290620D03*
X0231429Y0294557D03*
X0227492Y0294557D03*
X0241271Y0301879D03*
X0243240Y0290620D03*
X0258988Y0290620D03*
X0262925Y0301879D03*
X0278673Y0298494D03*
X0270799Y0282746D03*
X0258988Y0274872D03*
X0249145Y0311289D03*
X0251114Y0324085D03*
X0255051Y0324085D03*
X0278673Y0318179D03*
X0290484Y0322116D03*
X0294421Y0318179D03*
X0310169Y0318179D03*
X0310169Y0306368D03*
X0325917Y0306368D03*
X0328870Y0302431D03*
X0332807Y0302431D03*
X0332807Y0298494D03*
X0332807Y0294557D03*
X0332807Y0290620D03*
X0328870Y0290620D03*
X0328870Y0294557D03*
X0328870Y0298494D03*
X0324933Y0298494D03*
X0324933Y0294557D03*
X0324933Y0290620D03*
X0324933Y0286683D03*
X0328870Y0286683D03*
X0332807Y0286683D03*
X0332807Y0282746D03*
X0332807Y0278809D03*
X0332807Y0274872D03*
X0332807Y0270935D03*
X0332807Y0266998D03*
X0328870Y0274872D03*
X0328870Y0278809D03*
X0328870Y0282746D03*
X0324933Y0282746D03*
X0318043Y0270935D03*
X0310169Y0270935D03*
X0306232Y0259124D03*
X0306232Y0243376D03*
X0321980Y0243376D03*
X0330838Y0247313D03*
X0330838Y0259124D03*
X0321980Y0255187D03*
X0354460Y0259124D03*
X0358397Y0266998D03*
X0358397Y0270935D03*
X0358397Y0274872D03*
X0358397Y0278809D03*
X0358397Y0282746D03*
X0358397Y0286683D03*
X0358397Y0290620D03*
X0358397Y0294557D03*
X0358397Y0298494D03*
X0358397Y0302431D03*
X0358397Y0306368D03*
X0358397Y0310305D03*
X0340681Y0310305D03*
X0336744Y0310305D03*
X0332807Y0306368D03*
X0325917Y0318179D03*
X0354460Y0247313D03*
X0289500Y0180384D03*
X0281626Y0176447D03*
X0264893Y0191211D03*
X0260956Y0191211D03*
X0257019Y0191211D03*
X0260956Y0195148D03*
X0260956Y0187274D03*
X0211744Y0243376D03*
X0195996Y0243376D03*
X0195996Y0259124D03*
X0180248Y0259124D03*
X0180248Y0243376D03*
X0164500Y0243376D03*
X0164500Y0259124D03*
X0213712Y0301879D03*
X0205838Y0310857D03*
X0199933Y0324085D03*
X0107413Y0153809D03*
X0085760Y0137077D03*
X0070012Y0137077D03*
X0054263Y0137077D03*
X0038515Y0137077D03*
X0022767Y0137077D03*
X0007019Y0137077D03*
X0007019Y0152825D03*
X0022767Y0152825D03*
X0038515Y0152825D03*
X0054263Y0152825D03*
X0038515Y0121329D03*
X0038515Y0105581D03*
X0022767Y0105581D03*
X0018830Y0121329D03*
X0007019Y0121329D03*
X0007019Y0105581D03*
X0007019Y0089833D03*
X0007019Y0074085D03*
X0007019Y0058337D03*
X0007019Y0042589D03*
X0018830Y0042589D03*
X0022767Y0058337D03*
X0022767Y0074085D03*
X0038515Y0074085D03*
X0038515Y0058337D03*
X0054263Y0058337D03*
X0054263Y0074085D03*
X0054263Y0089833D03*
X0038515Y0089833D03*
X0022767Y0089833D03*
X0054263Y0105581D03*
X0070012Y0105581D03*
X0081823Y0101644D03*
X0085760Y0089833D03*
X0070012Y0089833D03*
X0070012Y0074085D03*
X0081823Y0062274D03*
X0085760Y0074085D03*
X0101508Y0085896D03*
X0070012Y0058337D03*
X0038515Y0042589D03*
X0038515Y0026841D03*
X0022767Y0026841D03*
X0038515Y0011093D03*
X0054263Y0011093D03*
X0054263Y0026841D03*
X0070012Y0026841D03*
X0070012Y0011093D03*
X0129067Y0030778D03*
X0129067Y0046526D03*
X0138397Y0047553D03*
X0138397Y0050931D03*
X0188122Y0074085D03*
X0007019Y0026841D03*
D24*
X0137925Y0062274D02*
X0137925Y0062628D01*
X0153201Y0077904D01*
X0153201Y0087904D02*
X0137925Y0072628D01*
X0137925Y0072116D01*
X0140878Y0107549D02*
X0140878Y0108021D01*
X0146312Y0113455D01*
X0147296Y0112470D01*
X0157767Y0112470D01*
X0183201Y0137904D01*
X0172374Y0156762D02*
X0148752Y0156762D01*
X0148752Y0162667D01*
X0172374Y0176447D01*
X0172374Y0156762D01*
X0172374Y0157509D02*
X0148752Y0157509D01*
X0148752Y0158492D02*
X0172374Y0158492D01*
X0172374Y0159475D02*
X0148752Y0159475D01*
X0148752Y0160458D02*
X0172374Y0160458D01*
X0172374Y0161440D02*
X0148752Y0161440D01*
X0148752Y0162423D02*
X0172374Y0162423D01*
X0172374Y0163406D02*
X0150018Y0163406D01*
X0151703Y0164389D02*
X0172374Y0164389D01*
X0172374Y0165371D02*
X0153387Y0165371D01*
X0155072Y0166354D02*
X0172374Y0166354D01*
X0172374Y0167337D02*
X0156757Y0167337D01*
X0158442Y0168320D02*
X0172374Y0168320D01*
X0172374Y0169303D02*
X0160126Y0169303D01*
X0161811Y0170285D02*
X0172374Y0170285D01*
X0172374Y0171268D02*
X0163496Y0171268D01*
X0165181Y0172251D02*
X0172374Y0172251D01*
X0172374Y0173234D02*
X0166865Y0173234D01*
X0168550Y0174216D02*
X0172374Y0174216D01*
X0172374Y0175199D02*
X0170235Y0175199D01*
X0171919Y0176182D02*
X0172374Y0176182D01*
X0174976Y0203699D02*
X0349232Y0203699D01*
X0348250Y0202716D02*
X0221166Y0202716D01*
X0267356Y0201734D02*
X0347267Y0201734D01*
X0346284Y0200751D02*
X0313546Y0200751D01*
X0345602Y0200069D02*
X0160563Y0204006D01*
X0156626Y0207943D01*
X0156626Y0278809D01*
X0160563Y0282746D01*
X0349539Y0282746D01*
X0353476Y0278809D01*
X0353476Y0207943D01*
X0345602Y0200069D01*
X0350215Y0204682D02*
X0159887Y0204682D01*
X0158904Y0205665D02*
X0351198Y0205665D01*
X0352181Y0206648D02*
X0157921Y0206648D01*
X0156938Y0207630D02*
X0353163Y0207630D01*
X0353476Y0208613D02*
X0156626Y0208613D01*
X0156626Y0209596D02*
X0353476Y0209596D01*
X0353476Y0210579D02*
X0156626Y0210579D01*
X0156626Y0211561D02*
X0353476Y0211561D01*
X0353476Y0212544D02*
X0156626Y0212544D01*
X0156626Y0213527D02*
X0353476Y0213527D01*
X0353476Y0214510D02*
X0156626Y0214510D01*
X0156626Y0215492D02*
X0353476Y0215492D01*
X0353476Y0216475D02*
X0156626Y0216475D01*
X0156626Y0217458D02*
X0353476Y0217458D01*
X0353476Y0218441D02*
X0156626Y0218441D01*
X0156626Y0219423D02*
X0353476Y0219423D01*
X0353476Y0220406D02*
X0156626Y0220406D01*
X0156626Y0221389D02*
X0353476Y0221389D01*
X0353476Y0222372D02*
X0156626Y0222372D01*
X0156626Y0223355D02*
X0353476Y0223355D01*
X0353476Y0224337D02*
X0156626Y0224337D01*
X0156626Y0225320D02*
X0353476Y0225320D01*
X0353476Y0226303D02*
X0156626Y0226303D01*
X0156626Y0227286D02*
X0353476Y0227286D01*
X0353476Y0228268D02*
X0156626Y0228268D01*
X0156626Y0229251D02*
X0353476Y0229251D01*
X0353476Y0230234D02*
X0156626Y0230234D01*
X0156626Y0231217D02*
X0353476Y0231217D01*
X0353476Y0232199D02*
X0156626Y0232199D01*
X0156626Y0233182D02*
X0353476Y0233182D01*
X0353476Y0234165D02*
X0156626Y0234165D01*
X0156626Y0235148D02*
X0353476Y0235148D01*
X0353476Y0236130D02*
X0156626Y0236130D01*
X0156626Y0237113D02*
X0353476Y0237113D01*
X0353476Y0238096D02*
X0156626Y0238096D01*
X0156626Y0239079D02*
X0353476Y0239079D01*
X0353476Y0240061D02*
X0156626Y0240061D01*
X0156626Y0241044D02*
X0353476Y0241044D01*
X0353476Y0242027D02*
X0156626Y0242027D01*
X0156626Y0243010D02*
X0353476Y0243010D01*
X0353476Y0243993D02*
X0156626Y0243993D01*
X0156626Y0244975D02*
X0353476Y0244975D01*
X0353476Y0245958D02*
X0156626Y0245958D01*
X0156626Y0246941D02*
X0353476Y0246941D01*
X0353476Y0247924D02*
X0156626Y0247924D01*
X0156626Y0248906D02*
X0353476Y0248906D01*
X0353476Y0249889D02*
X0156626Y0249889D01*
X0156626Y0250872D02*
X0353476Y0250872D01*
X0353476Y0251855D02*
X0156626Y0251855D01*
X0156626Y0252837D02*
X0353476Y0252837D01*
X0353476Y0253820D02*
X0156626Y0253820D01*
X0156626Y0254803D02*
X0353476Y0254803D01*
X0353476Y0255786D02*
X0156626Y0255786D01*
X0156626Y0256768D02*
X0353476Y0256768D01*
X0353476Y0257751D02*
X0156626Y0257751D01*
X0156626Y0258734D02*
X0353476Y0258734D01*
X0353476Y0259717D02*
X0156626Y0259717D01*
X0156626Y0260700D02*
X0353476Y0260700D01*
X0353476Y0261682D02*
X0156626Y0261682D01*
X0156626Y0262665D02*
X0353476Y0262665D01*
X0353476Y0263648D02*
X0156626Y0263648D01*
X0156626Y0264631D02*
X0353476Y0264631D01*
X0353476Y0265613D02*
X0156626Y0265613D01*
X0156626Y0266596D02*
X0353476Y0266596D01*
X0353476Y0267579D02*
X0156626Y0267579D01*
X0156626Y0268562D02*
X0353476Y0268562D01*
X0353476Y0269544D02*
X0156626Y0269544D01*
X0156626Y0270527D02*
X0353476Y0270527D01*
X0353476Y0271510D02*
X0156626Y0271510D01*
X0156626Y0272493D02*
X0353476Y0272493D01*
X0353476Y0273475D02*
X0156626Y0273475D01*
X0156626Y0274458D02*
X0353476Y0274458D01*
X0353476Y0275441D02*
X0156626Y0275441D01*
X0156626Y0276424D02*
X0353476Y0276424D01*
X0353476Y0277406D02*
X0156626Y0277406D01*
X0156626Y0278389D02*
X0353476Y0278389D01*
X0352913Y0279372D02*
X0157189Y0279372D01*
X0158171Y0280355D02*
X0351930Y0280355D01*
X0350948Y0281338D02*
X0159154Y0281338D01*
X0160137Y0282320D02*
X0349965Y0282320D01*
X0345602Y0287667D02*
X0342649Y0290620D01*
X0332807Y0290620D01*
X0123161Y0160699D02*
X0107413Y0160699D01*
X0107413Y0157321D02*
X0123161Y0157321D01*
D25*
X0133988Y0144951D02*
X0101508Y0144951D01*
X0096199Y0150259D01*
X0095005Y0150259D01*
X0160563Y0149872D02*
X0160563Y0211880D01*
X0345602Y0211880D01*
X0345602Y0287667D01*
X0342649Y0287667D01*
X0329854Y0274872D01*
X0266862Y0274872D01*
X0085760Y0274872D01*
X0070012Y0274872D01*
X0050326Y0294557D01*
X0031389Y0313494D01*
X0044421Y0313494D01*
X0260956Y0191211D02*
X0260956Y0162667D01*
X0267846Y0155778D01*
X0270799Y0152825D01*
X0284578Y0139045D01*
D26*
X0139893Y0150856D02*
X0130051Y0160699D01*
X0123161Y0160699D01*
X0107413Y0160699D02*
X0105445Y0160699D01*
X0095005Y0150259D01*
D27*
X0007019Y0229410D02*
X0007019Y0019739D01*
X0008575Y0021295D01*
X0010922Y0022650D01*
X0013539Y0023351D01*
X0016248Y0023351D01*
X0018865Y0022650D01*
X0021211Y0021295D01*
X0023127Y0019379D01*
X0024482Y0017033D01*
X0025183Y0014416D01*
X0025183Y0011706D01*
X0024482Y0009089D01*
X0023127Y0006743D01*
X0021571Y0005187D01*
X0147561Y0005187D01*
X0146951Y0006660D01*
X0146951Y0009147D01*
X0147902Y0011444D01*
X0149660Y0013202D01*
X0151957Y0014154D01*
X0154444Y0014154D01*
X0156741Y0013202D01*
X0158499Y0011444D01*
X0159450Y0009147D01*
X0159450Y0006660D01*
X0158840Y0005187D01*
X0342861Y0005187D01*
X0341305Y0006743D01*
X0339951Y0009089D01*
X0339249Y0011706D01*
X0339249Y0014416D01*
X0339951Y0017033D01*
X0341305Y0019379D01*
X0343221Y0021295D01*
X0345567Y0022650D01*
X0348184Y0023351D01*
X0350894Y0023351D01*
X0353511Y0022650D01*
X0355857Y0021295D01*
X0357413Y0019739D01*
X0357413Y0128979D01*
X0357377Y0128891D01*
X0355756Y0127271D01*
X0353638Y0126393D01*
X0351346Y0126393D01*
X0349228Y0127271D01*
X0349148Y0127350D01*
X0349103Y0127305D01*
X0347853Y0126787D01*
X0342170Y0126787D01*
X0340920Y0127305D01*
X0339964Y0128261D01*
X0339446Y0129511D01*
X0339446Y0134800D01*
X0339964Y0136050D01*
X0340920Y0137006D01*
X0341090Y0137077D01*
X0340920Y0137147D01*
X0339964Y0138104D01*
X0339446Y0139353D01*
X0339446Y0144643D01*
X0339964Y0145892D01*
X0340920Y0146849D01*
X0341090Y0146919D01*
X0340920Y0146990D01*
X0339964Y0147946D01*
X0339446Y0149196D01*
X0339446Y0154485D01*
X0339964Y0155735D01*
X0340920Y0156691D01*
X0341090Y0156762D01*
X0340920Y0156832D01*
X0339964Y0157789D01*
X0339446Y0159038D01*
X0339446Y0164328D01*
X0339964Y0165578D01*
X0340920Y0166534D01*
X0342170Y0167052D01*
X0347853Y0167052D01*
X0348833Y0166646D01*
X0349228Y0167040D01*
X0351346Y0167918D01*
X0353638Y0167918D01*
X0355756Y0167040D01*
X0357377Y0165420D01*
X0357413Y0165332D01*
X0357413Y0311501D01*
X0355857Y0309945D01*
X0353511Y0308591D01*
X0350894Y0307889D01*
X0348184Y0307889D01*
X0345567Y0308591D01*
X0343221Y0309945D01*
X0341305Y0311861D01*
X0339951Y0314207D01*
X0339249Y0316824D01*
X0339249Y0319534D01*
X0339951Y0322151D01*
X0341305Y0324497D01*
X0342861Y0326053D01*
X0021571Y0326053D01*
X0023127Y0324497D01*
X0024482Y0322151D01*
X0025183Y0319534D01*
X0025183Y0316824D01*
X0024482Y0314207D01*
X0023127Y0311861D01*
X0021211Y0309945D01*
X0018865Y0308591D01*
X0016248Y0307889D01*
X0013539Y0307889D01*
X0010922Y0308591D01*
X0008575Y0309945D01*
X0007019Y0311501D01*
X0007019Y0290925D01*
X0011345Y0295250D01*
X0018442Y0295250D01*
X0021586Y0292106D01*
X0024731Y0295250D01*
X0031828Y0295250D01*
X0036847Y0290232D01*
X0036847Y0283134D01*
X0031828Y0278116D01*
X0024731Y0278116D01*
X0021586Y0281260D01*
X0018442Y0278116D01*
X0011345Y0278116D01*
X0007019Y0282441D01*
X0007019Y0237894D01*
X0011345Y0242219D01*
X0018442Y0242219D01*
X0021586Y0239075D01*
X0024731Y0242219D01*
X0031828Y0242219D01*
X0036847Y0237200D01*
X0036847Y0230103D01*
X0031828Y0225084D01*
X0024731Y0225084D01*
X0021586Y0228228D01*
X0018442Y0225084D01*
X0011345Y0225084D01*
X0007019Y0229410D01*
X0007019Y0229080D02*
X0007349Y0229080D01*
X0007019Y0227082D02*
X0009347Y0227082D01*
X0007019Y0225083D02*
X0357413Y0225083D01*
X0357413Y0223085D02*
X0007019Y0223085D01*
X0007019Y0221086D02*
X0357413Y0221086D01*
X0357413Y0219088D02*
X0007019Y0219088D01*
X0007019Y0217089D02*
X0357413Y0217089D01*
X0357413Y0215091D02*
X0007019Y0215091D01*
X0007019Y0213092D02*
X0357413Y0213092D01*
X0357413Y0211094D02*
X0007019Y0211094D01*
X0007019Y0209095D02*
X0357413Y0209095D01*
X0357413Y0207097D02*
X0007019Y0207097D01*
X0007019Y0205098D02*
X0357413Y0205098D01*
X0357413Y0203100D02*
X0007019Y0203100D01*
X0007019Y0201101D02*
X0357413Y0201101D01*
X0357413Y0199103D02*
X0263854Y0199103D01*
X0263718Y0199159D02*
X0263669Y0199208D01*
X0261909Y0199937D01*
X0260004Y0199937D01*
X0258244Y0199208D01*
X0258195Y0199159D01*
X0256198Y0198332D01*
X0253835Y0195969D01*
X0253008Y0193972D01*
X0252959Y0193923D01*
X0252230Y0192163D01*
X0252230Y0190258D01*
X0252556Y0189471D01*
X0252556Y0160996D01*
X0253835Y0157909D01*
X0260725Y0151019D01*
X0266041Y0145704D01*
X0279820Y0131924D01*
X0282908Y0130645D01*
X0286249Y0130645D01*
X0289337Y0131924D01*
X0291700Y0134287D01*
X0292978Y0137374D01*
X0292978Y0140716D01*
X0291700Y0143803D01*
X0277920Y0157583D01*
X0272604Y0162899D01*
X0269356Y0166147D01*
X0269356Y0189471D01*
X0269682Y0190258D01*
X0269682Y0192163D01*
X0268953Y0193923D01*
X0268905Y0193972D01*
X0268078Y0195969D01*
X0265715Y0198332D01*
X0263718Y0199159D01*
X0266942Y0197104D02*
X0357413Y0197104D01*
X0357413Y0195106D02*
X0268435Y0195106D01*
X0269291Y0193107D02*
X0357413Y0193107D01*
X0357413Y0191109D02*
X0269682Y0191109D01*
X0269356Y0189110D02*
X0357413Y0189110D01*
X0357413Y0187112D02*
X0269356Y0187112D01*
X0269356Y0185113D02*
X0357413Y0185113D01*
X0357413Y0183115D02*
X0269356Y0183115D01*
X0269356Y0181116D02*
X0357413Y0181116D01*
X0357413Y0179118D02*
X0269356Y0179118D01*
X0269356Y0177119D02*
X0357413Y0177119D01*
X0357413Y0175120D02*
X0269356Y0175120D01*
X0269356Y0173122D02*
X0357413Y0173122D01*
X0357413Y0171123D02*
X0269356Y0171123D01*
X0269356Y0169125D02*
X0357413Y0169125D01*
X0357413Y0167126D02*
X0355548Y0167126D01*
X0349435Y0167126D02*
X0325548Y0167126D01*
X0325756Y0167040D02*
X0323638Y0167918D01*
X0321346Y0167918D01*
X0319228Y0167040D01*
X0317607Y0165420D01*
X0316730Y0163302D01*
X0316730Y0161009D01*
X0317607Y0158891D01*
X0319228Y0157271D01*
X0319506Y0157155D01*
X0319228Y0157040D01*
X0317607Y0155420D01*
X0316730Y0153302D01*
X0316730Y0151009D01*
X0317607Y0148891D01*
X0319228Y0147271D01*
X0319506Y0147155D01*
X0319228Y0147040D01*
X0317607Y0145420D01*
X0316730Y0143302D01*
X0316730Y0141009D01*
X0317607Y0138891D01*
X0319228Y0137271D01*
X0319506Y0137155D01*
X0319228Y0137040D01*
X0317607Y0135420D01*
X0316730Y0133302D01*
X0316730Y0131009D01*
X0317607Y0128891D01*
X0319228Y0127271D01*
X0321346Y0126393D01*
X0323638Y0126393D01*
X0325756Y0127271D01*
X0327377Y0128891D01*
X0328254Y0131009D01*
X0328254Y0133302D01*
X0327377Y0135420D01*
X0325756Y0137040D01*
X0325478Y0137155D01*
X0325756Y0137271D01*
X0327377Y0138891D01*
X0328254Y0141009D01*
X0328254Y0143302D01*
X0327377Y0145420D01*
X0325756Y0147040D01*
X0325478Y0147155D01*
X0325756Y0147271D01*
X0327377Y0148891D01*
X0328254Y0151009D01*
X0328254Y0153302D01*
X0327377Y0155420D01*
X0325756Y0157040D01*
X0325478Y0157155D01*
X0325756Y0157271D01*
X0327377Y0158891D01*
X0328254Y0161009D01*
X0328254Y0163302D01*
X0327377Y0165420D01*
X0325756Y0167040D01*
X0327498Y0165128D02*
X0339778Y0165128D01*
X0339446Y0163129D02*
X0328254Y0163129D01*
X0328254Y0161131D02*
X0339446Y0161131D01*
X0339446Y0159132D02*
X0327477Y0159132D01*
X0325530Y0157134D02*
X0340619Y0157134D01*
X0339715Y0155135D02*
X0327495Y0155135D01*
X0328254Y0153137D02*
X0339446Y0153137D01*
X0339446Y0151138D02*
X0328254Y0151138D01*
X0327480Y0149140D02*
X0339469Y0149140D01*
X0340769Y0147141D02*
X0325512Y0147141D01*
X0327491Y0145143D02*
X0339653Y0145143D01*
X0339446Y0143144D02*
X0328254Y0143144D01*
X0328254Y0141146D02*
X0339446Y0141146D01*
X0339531Y0139147D02*
X0327483Y0139147D01*
X0325494Y0137149D02*
X0340919Y0137149D01*
X0339591Y0135150D02*
X0327488Y0135150D01*
X0328254Y0133152D02*
X0339446Y0133152D01*
X0339446Y0131153D02*
X0328254Y0131153D01*
X0327486Y0129155D02*
X0339594Y0129155D01*
X0341279Y0127156D02*
X0325480Y0127156D01*
X0319504Y0127156D02*
X0238257Y0127156D01*
X0237985Y0126884D02*
X0239332Y0128231D01*
X0240061Y0129991D01*
X0240061Y0131897D01*
X0239332Y0133657D01*
X0238713Y0134275D01*
X0238713Y0135274D01*
X0237984Y0137035D01*
X0236637Y0138382D01*
X0234877Y0139111D01*
X0232972Y0139111D01*
X0231212Y0138382D01*
X0230852Y0138022D01*
X0220916Y0138022D01*
X0220373Y0138565D01*
X0219450Y0138947D01*
X0219450Y0139147D01*
X0272597Y0139147D01*
X0274596Y0137149D02*
X0237870Y0137149D01*
X0238713Y0135150D02*
X0276594Y0135150D01*
X0278593Y0133152D02*
X0239541Y0133152D01*
X0240061Y0131153D02*
X0281681Y0131153D01*
X0287476Y0131153D02*
X0316730Y0131153D01*
X0316730Y0133152D02*
X0290564Y0133152D01*
X0292057Y0135150D02*
X0317495Y0135150D01*
X0319489Y0137149D02*
X0292885Y0137149D01*
X0292978Y0139147D02*
X0317501Y0139147D01*
X0316730Y0141146D02*
X0292800Y0141146D01*
X0291973Y0143144D02*
X0316730Y0143144D01*
X0317492Y0145143D02*
X0290360Y0145143D01*
X0288362Y0147141D02*
X0319471Y0147141D01*
X0317504Y0149140D02*
X0286363Y0149140D01*
X0284365Y0151138D02*
X0316730Y0151138D01*
X0316730Y0153137D02*
X0282366Y0153137D01*
X0280368Y0155135D02*
X0317489Y0155135D01*
X0319453Y0157134D02*
X0278369Y0157134D01*
X0277920Y0157583D02*
X0277920Y0157583D01*
X0276371Y0159132D02*
X0317507Y0159132D01*
X0316730Y0161131D02*
X0274372Y0161131D01*
X0272604Y0162899D02*
X0272604Y0162899D01*
X0272374Y0163129D02*
X0316730Y0163129D01*
X0317486Y0165128D02*
X0270375Y0165128D01*
X0269356Y0167126D02*
X0319435Y0167126D01*
X0348933Y0156762D02*
X0348961Y0156773D01*
X0348944Y0156757D01*
X0348933Y0156762D01*
X0349370Y0157099D02*
X0349449Y0157179D01*
X0349506Y0157156D01*
X0349370Y0157099D01*
X0349405Y0157134D02*
X0349453Y0157134D01*
X0355478Y0157156D02*
X0355756Y0157271D01*
X0357377Y0158891D01*
X0357413Y0158979D01*
X0357413Y0155332D01*
X0357377Y0155420D01*
X0355756Y0157040D01*
X0355478Y0157156D01*
X0355530Y0157134D02*
X0357413Y0157134D01*
X0357413Y0148979D02*
X0357413Y0145332D01*
X0357377Y0145420D01*
X0355756Y0147040D01*
X0355478Y0147155D01*
X0355756Y0147271D01*
X0357377Y0148891D01*
X0357413Y0148979D01*
X0357413Y0147141D02*
X0355512Y0147141D01*
X0349506Y0147155D02*
X0349228Y0147040D01*
X0349056Y0146868D01*
X0348933Y0146919D01*
X0349103Y0146990D01*
X0349338Y0147225D01*
X0349506Y0147155D01*
X0349471Y0147141D02*
X0349254Y0147141D01*
X0357413Y0138979D02*
X0357413Y0135332D01*
X0357377Y0135420D01*
X0355756Y0137040D01*
X0355478Y0137155D01*
X0355756Y0137271D01*
X0357377Y0138891D01*
X0357413Y0138979D01*
X0357413Y0137149D02*
X0355494Y0137149D01*
X0349506Y0137155D02*
X0349228Y0137040D01*
X0349148Y0136961D01*
X0349103Y0137006D01*
X0348933Y0137077D01*
X0349103Y0137147D01*
X0349227Y0137271D01*
X0349228Y0137271D01*
X0349506Y0137155D01*
X0349489Y0137149D02*
X0349104Y0137149D01*
X0348745Y0127156D02*
X0349504Y0127156D01*
X0355480Y0127156D02*
X0357413Y0127156D01*
X0357413Y0125158D02*
X0234062Y0125158D01*
X0233862Y0124675D02*
X0234283Y0125691D01*
X0234283Y0126170D01*
X0234320Y0126155D01*
X0236225Y0126155D01*
X0237985Y0126884D01*
X0239715Y0129155D02*
X0317498Y0129155D01*
X0357413Y0123159D02*
X0234283Y0123159D01*
X0234283Y0123659D02*
X0233862Y0124675D01*
X0234283Y0123659D02*
X0234283Y0121754D01*
X0233554Y0119994D01*
X0232207Y0118647D01*
X0230447Y0117918D01*
X0228542Y0117918D01*
X0226781Y0118647D01*
X0226422Y0119007D01*
X0221564Y0119007D01*
X0221389Y0118584D01*
X0220042Y0117237D01*
X0219450Y0116993D01*
X0219450Y0116660D01*
X0218499Y0114363D01*
X0217039Y0112904D01*
X0218499Y0111444D01*
X0219450Y0109147D01*
X0219450Y0106660D01*
X0218499Y0104363D01*
X0217039Y0102904D01*
X0218499Y0101444D01*
X0219450Y0099147D01*
X0219450Y0096660D01*
X0218499Y0094363D01*
X0217039Y0092904D01*
X0218499Y0091444D01*
X0219265Y0089596D01*
X0226428Y0089596D01*
X0226788Y0089956D01*
X0228548Y0090685D01*
X0230453Y0090685D01*
X0232213Y0089956D01*
X0233560Y0088608D01*
X0234289Y0086848D01*
X0234289Y0084943D01*
X0233560Y0083183D01*
X0232213Y0081836D01*
X0230453Y0081107D01*
X0228548Y0081107D01*
X0226788Y0081836D01*
X0226428Y0082196D01*
X0217747Y0082196D01*
X0218499Y0081444D01*
X0219450Y0079147D01*
X0219450Y0076660D01*
X0218499Y0074363D01*
X0217039Y0072904D01*
X0218499Y0071444D01*
X0219450Y0069147D01*
X0219450Y0066660D01*
X0218499Y0064363D01*
X0217039Y0062904D01*
X0218499Y0061444D01*
X0219450Y0059147D01*
X0219450Y0056660D01*
X0218499Y0054363D01*
X0217039Y0052904D01*
X0218499Y0051444D01*
X0219450Y0049147D01*
X0219450Y0046660D01*
X0218499Y0044363D01*
X0217039Y0042904D01*
X0218499Y0041444D01*
X0219450Y0039147D01*
X0219450Y0036886D01*
X0219891Y0036446D01*
X0226428Y0036446D01*
X0226788Y0036806D01*
X0228548Y0037535D01*
X0230453Y0037535D01*
X0232213Y0036806D01*
X0233560Y0035459D01*
X0234289Y0033699D01*
X0234289Y0031793D01*
X0233560Y0030033D01*
X0232213Y0028686D01*
X0230453Y0027957D01*
X0228548Y0027957D01*
X0226788Y0028686D01*
X0226428Y0029046D01*
X0219450Y0029046D01*
X0219450Y0026660D01*
X0218499Y0024363D01*
X0217039Y0022904D01*
X0218499Y0021444D01*
X0219450Y0019147D01*
X0219450Y0016660D01*
X0218499Y0014363D01*
X0216741Y0012605D01*
X0214444Y0011654D01*
X0211957Y0011654D01*
X0209660Y0012605D01*
X0207902Y0014363D01*
X0206951Y0016660D01*
X0206951Y0019147D01*
X0207902Y0021444D01*
X0209362Y0022904D01*
X0207902Y0024363D01*
X0206951Y0026660D01*
X0206951Y0029147D01*
X0207902Y0031444D01*
X0209362Y0032904D01*
X0207902Y0034363D01*
X0206951Y0036660D01*
X0206951Y0039147D01*
X0207902Y0041444D01*
X0209362Y0042904D01*
X0207902Y0044363D01*
X0206951Y0046660D01*
X0206951Y0049147D01*
X0207902Y0051444D01*
X0209362Y0052904D01*
X0207902Y0054363D01*
X0206951Y0056660D01*
X0206951Y0059147D01*
X0207902Y0061444D01*
X0209362Y0062904D01*
X0207902Y0064363D01*
X0206951Y0066660D01*
X0206951Y0069147D01*
X0207902Y0071444D01*
X0209362Y0072904D01*
X0207902Y0074363D01*
X0206951Y0076660D01*
X0206951Y0079147D01*
X0207902Y0081444D01*
X0209362Y0082904D01*
X0207902Y0084363D01*
X0206951Y0086660D01*
X0206951Y0089147D01*
X0207902Y0091444D01*
X0209362Y0092904D01*
X0207902Y0094363D01*
X0206951Y0096660D01*
X0206951Y0099147D01*
X0207902Y0101444D01*
X0209362Y0102904D01*
X0207902Y0104363D01*
X0206951Y0106660D01*
X0206951Y0109147D01*
X0207902Y0111444D01*
X0209362Y0112904D01*
X0207902Y0114363D01*
X0206951Y0116660D01*
X0206951Y0119147D01*
X0207902Y0121444D01*
X0209362Y0122904D01*
X0207902Y0124363D01*
X0206951Y0126660D01*
X0206951Y0129147D01*
X0207902Y0131444D01*
X0209362Y0132904D01*
X0208201Y0134065D01*
X0206741Y0132605D01*
X0204444Y0131654D01*
X0201957Y0131654D01*
X0199660Y0132605D01*
X0198201Y0134065D01*
X0196741Y0132605D01*
X0194444Y0131654D01*
X0191957Y0131654D01*
X0189660Y0132605D01*
X0187902Y0134363D01*
X0186951Y0136660D01*
X0186951Y0139147D01*
X0179450Y0139147D01*
X0178499Y0141444D01*
X0176741Y0143202D01*
X0174444Y0144154D01*
X0171957Y0144154D01*
X0169660Y0143202D01*
X0168201Y0141742D01*
X0166741Y0143202D01*
X0164444Y0144154D01*
X0161957Y0144154D01*
X0159660Y0143202D01*
X0158201Y0141742D01*
X0156741Y0143202D01*
X0154444Y0144154D01*
X0151957Y0144154D01*
X0149660Y0143202D01*
X0147902Y0141444D01*
X0146951Y0139147D01*
X0007019Y0139147D01*
X0007019Y0137149D02*
X0146951Y0137149D01*
X0146951Y0136660D02*
X0147902Y0134363D01*
X0149362Y0132904D01*
X0147902Y0131444D01*
X0147021Y0129316D01*
X0145667Y0130670D01*
X0145667Y0131140D01*
X0144938Y0132900D01*
X0143590Y0134247D01*
X0141830Y0134976D01*
X0139925Y0134976D01*
X0138165Y0134247D01*
X0136818Y0132900D01*
X0136089Y0131140D01*
X0136089Y0129234D01*
X0136818Y0127474D01*
X0138165Y0126127D01*
X0139925Y0125398D01*
X0140473Y0125398D01*
X0146951Y0118921D01*
X0146951Y0116660D01*
X0147902Y0114363D01*
X0149362Y0112904D01*
X0147902Y0111444D01*
X0146951Y0109147D01*
X0146951Y0106660D01*
X0147902Y0104363D01*
X0149362Y0102904D01*
X0147902Y0101444D01*
X0146951Y0099147D01*
X0146951Y0096660D01*
X0147902Y0094363D01*
X0149362Y0092904D01*
X0147902Y0091444D01*
X0146951Y0089147D01*
X0146951Y0087158D01*
X0136504Y0076711D01*
X0135212Y0076176D01*
X0133865Y0074829D01*
X0133136Y0073069D01*
X0133136Y0071164D01*
X0133865Y0069403D01*
X0135212Y0068056D01*
X0136972Y0067327D01*
X0137120Y0067327D01*
X0136772Y0066980D01*
X0135212Y0066334D01*
X0133865Y0064986D01*
X0133136Y0063226D01*
X0133136Y0061321D01*
X0133865Y0059561D01*
X0135212Y0058214D01*
X0136972Y0057485D01*
X0138877Y0057485D01*
X0140638Y0058214D01*
X0141985Y0059561D01*
X0142714Y0061321D01*
X0142714Y0061913D01*
X0147100Y0066299D01*
X0147902Y0064363D01*
X0149362Y0062904D01*
X0147902Y0061444D01*
X0146951Y0059147D01*
X0146951Y0056886D01*
X0144696Y0054631D01*
X0141469Y0054631D01*
X0141109Y0054991D01*
X0139349Y0055720D01*
X0137444Y0055720D01*
X0135684Y0054991D01*
X0134337Y0053644D01*
X0133608Y0051884D01*
X0133608Y0049979D01*
X0133913Y0049242D01*
X0133608Y0048506D01*
X0133608Y0046601D01*
X0134337Y0044841D01*
X0135684Y0043493D01*
X0137444Y0042764D01*
X0139349Y0042764D01*
X0141109Y0043493D01*
X0141819Y0044204D01*
X0148062Y0044204D01*
X0149362Y0042904D01*
X0147902Y0041444D01*
X0146951Y0039147D01*
X0146951Y0036660D01*
X0147902Y0034363D01*
X0149362Y0032904D01*
X0147902Y0031444D01*
X0146951Y0029147D01*
X0146951Y0026660D01*
X0147902Y0024363D01*
X0149660Y0022605D01*
X0151957Y0021654D01*
X0154444Y0021654D01*
X0156741Y0022605D01*
X0158499Y0024363D01*
X0159450Y0026660D01*
X0159450Y0029147D01*
X0158499Y0031444D01*
X0157039Y0032904D01*
X0158200Y0034065D01*
X0159660Y0032605D01*
X0161957Y0031654D01*
X0164444Y0031654D01*
X0166741Y0032605D01*
X0168499Y0034363D01*
X0169450Y0036660D01*
X0169450Y0039147D01*
X0168499Y0041444D01*
X0167039Y0042904D01*
X0168499Y0044363D01*
X0169450Y0046660D01*
X0169450Y0049147D01*
X0168499Y0051444D01*
X0167039Y0052904D01*
X0168499Y0054363D01*
X0169450Y0056660D01*
X0169450Y0059147D01*
X0168499Y0061444D01*
X0166741Y0063202D01*
X0164444Y0064154D01*
X0161957Y0064154D01*
X0159660Y0063202D01*
X0158201Y0061742D01*
X0157039Y0062904D01*
X0158499Y0064363D01*
X0159450Y0066660D01*
X0159450Y0068921D01*
X0161111Y0070581D01*
X0165950Y0070581D01*
X0166708Y0069824D01*
X0167957Y0069307D01*
X0172853Y0069307D01*
X0174103Y0069824D01*
X0175059Y0070781D01*
X0175577Y0072030D01*
X0175577Y0073315D01*
X0176225Y0073047D01*
X0181121Y0073047D01*
X0182371Y0073564D01*
X0183327Y0074521D01*
X0183845Y0075771D01*
X0183845Y0080273D01*
X0183327Y0081522D01*
X0182373Y0082476D01*
X0182373Y0085938D01*
X0183065Y0086630D01*
X0185448Y0086630D01*
X0187783Y0087597D01*
X0189570Y0089384D01*
X0190537Y0091719D01*
X0190537Y0094246D01*
X0189570Y0096581D01*
X0187783Y0098368D01*
X0185448Y0099335D01*
X0182921Y0099335D01*
X0180586Y0098368D01*
X0178799Y0096581D01*
X0177832Y0094246D01*
X0177832Y0091862D01*
X0175536Y0089566D01*
X0174973Y0088206D01*
X0174973Y0082476D01*
X0174019Y0081522D01*
X0173501Y0080273D01*
X0173501Y0078988D01*
X0172853Y0079256D01*
X0167957Y0079256D01*
X0166708Y0078739D01*
X0165950Y0077981D01*
X0159450Y0077981D01*
X0159450Y0079147D01*
X0158499Y0081444D01*
X0157039Y0082904D01*
X0158499Y0084363D01*
X0159450Y0086660D01*
X0159450Y0089147D01*
X0158499Y0091444D01*
X0157039Y0092904D01*
X0158499Y0094363D01*
X0159450Y0096660D01*
X0159450Y0099147D01*
X0158499Y0101444D01*
X0157039Y0102904D01*
X0158499Y0104363D01*
X0159450Y0106660D01*
X0159450Y0109147D01*
X0158499Y0111444D01*
X0157039Y0112904D01*
X0158499Y0114363D01*
X0159450Y0116660D01*
X0159450Y0119147D01*
X0158499Y0121444D01*
X0157039Y0122904D01*
X0158499Y0124363D01*
X0159450Y0126660D01*
X0159450Y0129147D01*
X0158499Y0131444D01*
X0157039Y0132904D01*
X0158201Y0134065D01*
X0159660Y0132605D01*
X0161957Y0131654D01*
X0164444Y0131654D01*
X0166741Y0132605D01*
X0168201Y0134065D01*
X0169660Y0132605D01*
X0171957Y0131654D01*
X0174444Y0131654D01*
X0176741Y0132605D01*
X0178499Y0134363D01*
X0179450Y0136660D01*
X0179450Y0139147D01*
X0179450Y0137149D02*
X0186951Y0137149D01*
X0186951Y0139147D02*
X0187902Y0141444D01*
X0189660Y0143202D01*
X0191957Y0144154D01*
X0194444Y0144154D01*
X0196741Y0143202D01*
X0198201Y0141742D01*
X0199660Y0143202D01*
X0201957Y0144154D01*
X0204444Y0144154D01*
X0206741Y0143202D01*
X0208201Y0141742D01*
X0209660Y0143202D01*
X0211957Y0144154D01*
X0214444Y0144154D01*
X0216741Y0143202D01*
X0218499Y0141444D01*
X0219450Y0139147D01*
X0218622Y0141146D02*
X0270599Y0141146D01*
X0268600Y0143144D02*
X0216799Y0143144D01*
X0209602Y0143144D02*
X0206799Y0143144D01*
X0199602Y0143144D02*
X0196799Y0143144D01*
X0189602Y0143144D02*
X0176799Y0143144D01*
X0178622Y0141146D02*
X0187779Y0141146D01*
X0187576Y0135150D02*
X0178825Y0135150D01*
X0177288Y0133152D02*
X0189113Y0133152D01*
X0189859Y0129585D02*
X0189499Y0129226D01*
X0188713Y0129226D01*
X0188353Y0129585D01*
X0186593Y0130315D01*
X0184688Y0130315D01*
X0182928Y0129585D01*
X0181581Y0128238D01*
X0180852Y0126478D01*
X0180852Y0124573D01*
X0181157Y0123837D01*
X0180852Y0123100D01*
X0180852Y0121195D01*
X0181157Y0120459D01*
X0180852Y0119722D01*
X0180852Y0117817D01*
X0181581Y0116057D01*
X0182928Y0114710D01*
X0184688Y0113981D01*
X0186593Y0113981D01*
X0188353Y0114710D01*
X0188713Y0115070D01*
X0189499Y0115070D01*
X0189859Y0114710D01*
X0191619Y0113981D01*
X0193524Y0113981D01*
X0195284Y0114710D01*
X0196631Y0116057D01*
X0197360Y0117817D01*
X0197360Y0119722D01*
X0197055Y0120459D01*
X0197360Y0121195D01*
X0197360Y0123100D01*
X0197055Y0123837D01*
X0197360Y0124573D01*
X0197360Y0126478D01*
X0196631Y0128238D01*
X0195284Y0129585D01*
X0193524Y0130315D01*
X0191619Y0130315D01*
X0189859Y0129585D01*
X0195715Y0129155D02*
X0206954Y0129155D01*
X0206951Y0127156D02*
X0197079Y0127156D01*
X0197360Y0125158D02*
X0207573Y0125158D01*
X0209106Y0123159D02*
X0197336Y0123159D01*
X0197346Y0121161D02*
X0207785Y0121161D01*
X0206957Y0119162D02*
X0197360Y0119162D01*
X0197090Y0117164D02*
X0206951Y0117164D01*
X0207570Y0115165D02*
X0195739Y0115165D01*
X0206960Y0109170D02*
X0159441Y0109170D01*
X0159450Y0107171D02*
X0206951Y0107171D01*
X0207567Y0105173D02*
X0158834Y0105173D01*
X0157310Y0103174D02*
X0209091Y0103174D01*
X0207791Y0101176D02*
X0158610Y0101176D01*
X0159438Y0099177D02*
X0182540Y0099177D01*
X0185830Y0099177D02*
X0206963Y0099177D01*
X0206951Y0097179D02*
X0188973Y0097179D01*
X0190151Y0095180D02*
X0207564Y0095180D01*
X0209084Y0093182D02*
X0190537Y0093182D01*
X0190316Y0091183D02*
X0207794Y0091183D01*
X0206966Y0089184D02*
X0189371Y0089184D01*
X0186792Y0087186D02*
X0206951Y0087186D01*
X0207561Y0085187D02*
X0182373Y0085187D01*
X0182373Y0083189D02*
X0209076Y0083189D01*
X0207797Y0081190D02*
X0183464Y0081190D01*
X0183845Y0079192D02*
X0206969Y0079192D01*
X0206951Y0077193D02*
X0183845Y0077193D01*
X0183606Y0075195D02*
X0207557Y0075195D01*
X0209069Y0073196D02*
X0181482Y0073196D01*
X0182921Y0069414D02*
X0180586Y0068447D01*
X0178799Y0066660D01*
X0177832Y0064325D01*
X0177832Y0061797D01*
X0178799Y0059462D01*
X0180586Y0057675D01*
X0182921Y0056708D01*
X0185448Y0056708D01*
X0187783Y0057675D01*
X0189570Y0059462D01*
X0190537Y0061797D01*
X0190537Y0064325D01*
X0189570Y0066660D01*
X0187783Y0068447D01*
X0185448Y0069414D01*
X0182921Y0069414D01*
X0182404Y0069199D02*
X0159729Y0069199D01*
X0159450Y0067201D02*
X0179340Y0067201D01*
X0178196Y0065202D02*
X0158847Y0065202D01*
X0159665Y0063204D02*
X0157340Y0063204D01*
X0149061Y0063204D02*
X0144005Y0063204D01*
X0142666Y0061205D02*
X0147803Y0061205D01*
X0146975Y0059207D02*
X0141631Y0059207D01*
X0140581Y0055210D02*
X0145274Y0055210D01*
X0146951Y0057208D02*
X0007019Y0057208D01*
X0007019Y0055210D02*
X0136212Y0055210D01*
X0134157Y0053211D02*
X0007019Y0053211D01*
X0007019Y0051213D02*
X0133608Y0051213D01*
X0133901Y0049214D02*
X0062470Y0049214D01*
X0061974Y0049710D02*
X0058887Y0050989D01*
X0055545Y0050989D01*
X0052458Y0049710D01*
X0050095Y0047347D01*
X0048816Y0044259D01*
X0048816Y0040918D01*
X0050095Y0037830D01*
X0052458Y0035467D01*
X0055545Y0034189D01*
X0058887Y0034189D01*
X0061974Y0035467D01*
X0064337Y0037830D01*
X0065616Y0040918D01*
X0065616Y0044259D01*
X0064337Y0047347D01*
X0061974Y0049710D01*
X0064392Y0047216D02*
X0133608Y0047216D01*
X0134181Y0045217D02*
X0065220Y0045217D01*
X0065616Y0043219D02*
X0136347Y0043219D01*
X0140446Y0043219D02*
X0149046Y0043219D01*
X0147809Y0041220D02*
X0065616Y0041220D01*
X0064914Y0039222D02*
X0146982Y0039222D01*
X0146951Y0037223D02*
X0063730Y0037223D01*
X0061388Y0035225D02*
X0147545Y0035225D01*
X0149039Y0033226D02*
X0007019Y0033226D01*
X0007019Y0031228D02*
X0096702Y0031228D01*
X0096276Y0031051D02*
X0093990Y0028765D01*
X0092753Y0025779D01*
X0092753Y0022547D01*
X0093990Y0019561D01*
X0096276Y0017276D01*
X0099262Y0016039D01*
X0102494Y0016039D01*
X0105480Y0017276D01*
X0107765Y0019561D01*
X0109002Y0022547D01*
X0109002Y0025779D01*
X0107765Y0028765D01*
X0105480Y0031051D01*
X0102494Y0032288D01*
X0099262Y0032288D01*
X0096276Y0031051D01*
X0094454Y0029229D02*
X0007019Y0029229D01*
X0007019Y0027231D02*
X0093354Y0027231D01*
X0092753Y0025232D02*
X0007019Y0025232D01*
X0007019Y0023234D02*
X0013102Y0023234D01*
X0016685Y0023234D02*
X0092753Y0023234D01*
X0093297Y0021235D02*
X0021271Y0021235D01*
X0023210Y0019237D02*
X0094315Y0019237D01*
X0096367Y0017238D02*
X0024363Y0017238D01*
X0024962Y0015240D02*
X0157539Y0015240D01*
X0157902Y0014363D02*
X0159660Y0012605D01*
X0161957Y0011654D01*
X0164444Y0011654D01*
X0166741Y0012605D01*
X0168499Y0014363D01*
X0169450Y0016660D01*
X0169450Y0019147D01*
X0168499Y0021444D01*
X0166741Y0023202D01*
X0164444Y0024154D01*
X0161957Y0024154D01*
X0159660Y0023202D01*
X0157902Y0021444D01*
X0156951Y0019147D01*
X0156951Y0016660D01*
X0157902Y0014363D01*
X0159024Y0013241D02*
X0156647Y0013241D01*
X0158582Y0011243D02*
X0339374Y0011243D01*
X0339249Y0013241D02*
X0217377Y0013241D01*
X0218862Y0015240D02*
X0339470Y0015240D01*
X0340069Y0017238D02*
X0219450Y0017238D01*
X0219413Y0019237D02*
X0341223Y0019237D01*
X0343161Y0021235D02*
X0218585Y0021235D01*
X0217369Y0023234D02*
X0347747Y0023234D01*
X0351331Y0023234D02*
X0357413Y0023234D01*
X0357413Y0025232D02*
X0218859Y0025232D01*
X0219450Y0027231D02*
X0357413Y0027231D01*
X0357413Y0029229D02*
X0232756Y0029229D01*
X0234055Y0031228D02*
X0357413Y0031228D01*
X0357413Y0033226D02*
X0234289Y0033226D01*
X0233657Y0035225D02*
X0357413Y0035225D01*
X0357413Y0037223D02*
X0277012Y0037223D01*
X0277526Y0037436D02*
X0279889Y0039799D01*
X0281167Y0042886D01*
X0281167Y0046228D01*
X0279889Y0049315D01*
X0277526Y0051678D01*
X0274438Y0052957D01*
X0271097Y0052957D01*
X0268009Y0051678D01*
X0265646Y0049315D01*
X0264367Y0046228D01*
X0264367Y0042886D01*
X0265646Y0039799D01*
X0268009Y0037436D01*
X0271097Y0036157D01*
X0274438Y0036157D01*
X0277526Y0037436D01*
X0279311Y0039222D02*
X0357413Y0039222D01*
X0357413Y0041220D02*
X0280477Y0041220D01*
X0281167Y0043219D02*
X0357413Y0043219D01*
X0357413Y0045217D02*
X0281167Y0045217D01*
X0280758Y0047216D02*
X0357413Y0047216D01*
X0357413Y0049214D02*
X0279930Y0049214D01*
X0277991Y0051213D02*
X0357413Y0051213D01*
X0357413Y0053211D02*
X0217347Y0053211D01*
X0218595Y0051213D02*
X0267544Y0051213D01*
X0265604Y0049214D02*
X0219423Y0049214D01*
X0219450Y0047216D02*
X0264777Y0047216D01*
X0264367Y0045217D02*
X0218853Y0045217D01*
X0217355Y0043219D02*
X0264367Y0043219D01*
X0265058Y0041220D02*
X0218592Y0041220D01*
X0219419Y0039222D02*
X0266223Y0039222D01*
X0268523Y0037223D02*
X0231206Y0037223D01*
X0227795Y0037223D02*
X0219450Y0037223D01*
X0209039Y0033226D02*
X0167362Y0033226D01*
X0168856Y0035225D02*
X0207545Y0035225D01*
X0206951Y0037223D02*
X0169450Y0037223D01*
X0169419Y0039222D02*
X0206982Y0039222D01*
X0207809Y0041220D02*
X0168592Y0041220D01*
X0167355Y0043219D02*
X0209046Y0043219D01*
X0207548Y0045217D02*
X0168853Y0045217D01*
X0169450Y0047216D02*
X0206951Y0047216D01*
X0206978Y0049214D02*
X0169423Y0049214D01*
X0168595Y0051213D02*
X0207806Y0051213D01*
X0209054Y0053211D02*
X0167347Y0053211D01*
X0168850Y0055210D02*
X0207551Y0055210D01*
X0206951Y0057208D02*
X0186656Y0057208D01*
X0189315Y0059207D02*
X0206975Y0059207D01*
X0207803Y0061205D02*
X0190292Y0061205D01*
X0190537Y0063204D02*
X0209061Y0063204D01*
X0207554Y0065202D02*
X0190174Y0065202D01*
X0189029Y0067201D02*
X0206951Y0067201D01*
X0206972Y0069199D02*
X0185966Y0069199D01*
X0177832Y0063204D02*
X0166736Y0063204D01*
X0168598Y0061205D02*
X0178077Y0061205D01*
X0179055Y0059207D02*
X0169426Y0059207D01*
X0169450Y0057208D02*
X0181714Y0057208D01*
X0175232Y0071198D02*
X0207800Y0071198D01*
X0217332Y0073196D02*
X0357413Y0073196D01*
X0357413Y0071198D02*
X0218601Y0071198D01*
X0219429Y0069199D02*
X0357413Y0069199D01*
X0357413Y0067201D02*
X0219450Y0067201D01*
X0218847Y0065202D02*
X0357413Y0065202D01*
X0357413Y0063204D02*
X0217340Y0063204D01*
X0218598Y0061205D02*
X0357413Y0061205D01*
X0357413Y0059207D02*
X0219426Y0059207D01*
X0219450Y0057208D02*
X0357413Y0057208D01*
X0357413Y0055210D02*
X0218850Y0055210D01*
X0218843Y0075195D02*
X0357413Y0075195D01*
X0357413Y0077193D02*
X0340905Y0077193D01*
X0340518Y0076806D02*
X0342881Y0079169D01*
X0344160Y0082256D01*
X0344160Y0085598D01*
X0342881Y0088685D01*
X0340518Y0091048D01*
X0337430Y0092327D01*
X0334089Y0092327D01*
X0331001Y0091048D01*
X0328638Y0088685D01*
X0327360Y0085598D01*
X0327360Y0082256D01*
X0328638Y0079169D01*
X0331001Y0076806D01*
X0334089Y0075527D01*
X0337430Y0075527D01*
X0340518Y0076806D01*
X0342890Y0079192D02*
X0357413Y0079192D01*
X0357413Y0081190D02*
X0343718Y0081190D01*
X0344160Y0083189D02*
X0357413Y0083189D01*
X0357413Y0085187D02*
X0344160Y0085187D01*
X0343502Y0087186D02*
X0357413Y0087186D01*
X0357413Y0089184D02*
X0342382Y0089184D01*
X0340193Y0091183D02*
X0357413Y0091183D01*
X0357413Y0093182D02*
X0217317Y0093182D01*
X0218607Y0091183D02*
X0331327Y0091183D01*
X0329138Y0089184D02*
X0232984Y0089184D01*
X0234150Y0087186D02*
X0328017Y0087186D01*
X0327360Y0085187D02*
X0234289Y0085187D01*
X0233563Y0083189D02*
X0327360Y0083189D01*
X0327801Y0081190D02*
X0230655Y0081190D01*
X0228346Y0081190D02*
X0218604Y0081190D01*
X0219432Y0079192D02*
X0328629Y0079192D01*
X0330614Y0077193D02*
X0219450Y0077193D01*
X0218837Y0095180D02*
X0357413Y0095180D01*
X0357413Y0097179D02*
X0219450Y0097179D01*
X0219438Y0099177D02*
X0357413Y0099177D01*
X0357413Y0101176D02*
X0218610Y0101176D01*
X0217310Y0103174D02*
X0357413Y0103174D01*
X0357413Y0105173D02*
X0218834Y0105173D01*
X0219450Y0107171D02*
X0357413Y0107171D01*
X0357413Y0109170D02*
X0219441Y0109170D01*
X0218613Y0111168D02*
X0357413Y0111168D01*
X0357413Y0113167D02*
X0217302Y0113167D01*
X0218831Y0115165D02*
X0357413Y0115165D01*
X0357413Y0117164D02*
X0219864Y0117164D01*
X0209099Y0113167D02*
X0157302Y0113167D01*
X0158613Y0111168D02*
X0207788Y0111168D01*
X0207782Y0131153D02*
X0158619Y0131153D01*
X0159113Y0133152D02*
X0157288Y0133152D01*
X0159447Y0129155D02*
X0182497Y0129155D01*
X0181133Y0127156D02*
X0159450Y0127156D01*
X0158828Y0125158D02*
X0180852Y0125158D01*
X0180876Y0123159D02*
X0157295Y0123159D01*
X0158616Y0121161D02*
X0180866Y0121161D01*
X0180852Y0119162D02*
X0159444Y0119162D01*
X0159450Y0117164D02*
X0181122Y0117164D01*
X0182473Y0115165D02*
X0158831Y0115165D01*
X0149099Y0113167D02*
X0059461Y0113167D01*
X0058887Y0112929D02*
X0061974Y0114208D01*
X0064337Y0116571D01*
X0065616Y0119658D01*
X0065616Y0123000D01*
X0064337Y0126087D01*
X0061974Y0128450D01*
X0058887Y0129729D01*
X0055545Y0129729D01*
X0052458Y0128450D01*
X0050095Y0126087D01*
X0048816Y0123000D01*
X0048816Y0119658D01*
X0050095Y0116571D01*
X0052458Y0114208D01*
X0055545Y0112929D01*
X0058887Y0112929D01*
X0054971Y0113167D02*
X0007019Y0113167D01*
X0007019Y0115165D02*
X0051500Y0115165D01*
X0049849Y0117164D02*
X0007019Y0117164D01*
X0007019Y0119162D02*
X0049022Y0119162D01*
X0048816Y0121161D02*
X0007019Y0121161D01*
X0007019Y0123159D02*
X0048882Y0123159D01*
X0049710Y0125158D02*
X0007019Y0125158D01*
X0007019Y0127156D02*
X0051164Y0127156D01*
X0054160Y0129155D02*
X0007019Y0129155D01*
X0007019Y0131153D02*
X0136094Y0131153D01*
X0136122Y0129155D02*
X0060273Y0129155D01*
X0063268Y0127156D02*
X0137136Y0127156D01*
X0140714Y0125158D02*
X0064722Y0125158D01*
X0065550Y0123159D02*
X0142712Y0123159D01*
X0144711Y0121161D02*
X0065616Y0121161D01*
X0065411Y0119162D02*
X0146709Y0119162D01*
X0146951Y0117164D02*
X0064583Y0117164D01*
X0062932Y0115165D02*
X0147570Y0115165D01*
X0147788Y0111168D02*
X0007019Y0111168D01*
X0007019Y0109170D02*
X0146960Y0109170D01*
X0146951Y0107171D02*
X0007019Y0107171D01*
X0007019Y0105173D02*
X0147567Y0105173D01*
X0149091Y0103174D02*
X0007019Y0103174D01*
X0007019Y0101176D02*
X0147791Y0101176D01*
X0146963Y0099177D02*
X0007019Y0099177D01*
X0007019Y0097179D02*
X0146951Y0097179D01*
X0147564Y0095180D02*
X0007019Y0095180D01*
X0007019Y0093182D02*
X0149084Y0093182D01*
X0147794Y0091183D02*
X0007019Y0091183D01*
X0007019Y0089184D02*
X0115703Y0089184D01*
X0115450Y0089080D02*
X0113087Y0086717D01*
X0111808Y0083630D01*
X0111808Y0080288D01*
X0113087Y0077200D01*
X0115450Y0074837D01*
X0118537Y0073559D01*
X0121879Y0073559D01*
X0124967Y0074837D01*
X0127330Y0077200D01*
X0128608Y0080288D01*
X0128608Y0083630D01*
X0127330Y0086717D01*
X0124967Y0089080D01*
X0121879Y0090359D01*
X0118537Y0090359D01*
X0115450Y0089080D01*
X0113556Y0087186D02*
X0007019Y0087186D01*
X0007019Y0085187D02*
X0112454Y0085187D01*
X0111808Y0083189D02*
X0007019Y0083189D01*
X0007019Y0081190D02*
X0111808Y0081190D01*
X0112262Y0079192D02*
X0007019Y0079192D01*
X0007019Y0077193D02*
X0113094Y0077193D01*
X0115093Y0075195D02*
X0007019Y0075195D01*
X0007019Y0073196D02*
X0133189Y0073196D01*
X0133136Y0071198D02*
X0007019Y0071198D01*
X0007019Y0069199D02*
X0134069Y0069199D01*
X0136994Y0067201D02*
X0007019Y0067201D01*
X0007019Y0065202D02*
X0134081Y0065202D01*
X0133136Y0063204D02*
X0007019Y0063204D01*
X0007019Y0061205D02*
X0133184Y0061205D01*
X0134219Y0059207D02*
X0007019Y0059207D01*
X0007019Y0049214D02*
X0051963Y0049214D01*
X0050041Y0047216D02*
X0007019Y0047216D01*
X0007019Y0045217D02*
X0049213Y0045217D01*
X0048816Y0043219D02*
X0007019Y0043219D01*
X0007019Y0041220D02*
X0048816Y0041220D01*
X0049519Y0039222D02*
X0007019Y0039222D01*
X0007019Y0037223D02*
X0050702Y0037223D01*
X0053044Y0035225D02*
X0007019Y0035225D01*
X0007019Y0021235D02*
X0008516Y0021235D01*
X0025183Y0013241D02*
X0149754Y0013241D01*
X0147819Y0011243D02*
X0025059Y0011243D01*
X0024523Y0009244D02*
X0146991Y0009244D01*
X0146951Y0007246D02*
X0023417Y0007246D01*
X0021631Y0005247D02*
X0147536Y0005247D01*
X0158865Y0005247D02*
X0342801Y0005247D01*
X0341015Y0007246D02*
X0159450Y0007246D01*
X0159410Y0009244D02*
X0339909Y0009244D01*
X0355917Y0021235D02*
X0357413Y0021235D01*
X0357413Y0119162D02*
X0232722Y0119162D01*
X0234037Y0121161D02*
X0357413Y0121161D01*
X0266602Y0145143D02*
X0007019Y0145143D01*
X0007019Y0147141D02*
X0264603Y0147141D01*
X0266041Y0145704D02*
X0266041Y0145704D01*
X0262605Y0149140D02*
X0124403Y0149140D01*
X0124114Y0149020D02*
X0125874Y0149749D01*
X0127221Y0151096D01*
X0127950Y0152856D01*
X0127950Y0154762D01*
X0127617Y0155565D01*
X0127950Y0156368D01*
X0127950Y0158273D01*
X0127221Y0160034D01*
X0126556Y0160699D01*
X0127221Y0161364D01*
X0127950Y0163124D01*
X0127950Y0165029D01*
X0127221Y0166790D01*
X0125874Y0168137D01*
X0124114Y0168866D01*
X0124035Y0168866D01*
X0124284Y0169468D01*
X0124284Y0172809D01*
X0123005Y0175897D01*
X0120642Y0178260D01*
X0117555Y0179538D01*
X0114213Y0179538D01*
X0111126Y0178260D01*
X0108763Y0175897D01*
X0107484Y0172809D01*
X0107484Y0169468D01*
X0107733Y0168866D01*
X0106461Y0168866D01*
X0104700Y0168137D01*
X0103353Y0166790D01*
X0102624Y0165029D01*
X0102624Y0163124D01*
X0103353Y0161364D01*
X0104018Y0160699D01*
X0103353Y0160034D01*
X0102624Y0158273D01*
X0102624Y0156368D01*
X0102957Y0155565D01*
X0102624Y0154762D01*
X0102624Y0152856D01*
X0103353Y0151096D01*
X0104700Y0149749D01*
X0106461Y0149020D01*
X0108366Y0149020D01*
X0110126Y0149749D01*
X0110486Y0150109D01*
X0120088Y0150109D01*
X0120448Y0149749D01*
X0122209Y0149020D01*
X0124114Y0149020D01*
X0121919Y0149140D02*
X0108655Y0149140D01*
X0106171Y0149140D02*
X0007019Y0149140D01*
X0007019Y0151138D02*
X0103336Y0151138D01*
X0102624Y0153137D02*
X0007019Y0153137D01*
X0007019Y0155135D02*
X0102779Y0155135D01*
X0102624Y0157134D02*
X0007019Y0157134D01*
X0007019Y0159132D02*
X0102980Y0159132D01*
X0103586Y0161131D02*
X0007019Y0161131D01*
X0007019Y0163129D02*
X0102624Y0163129D01*
X0102665Y0165128D02*
X0007019Y0165128D01*
X0007019Y0167126D02*
X0103690Y0167126D01*
X0107626Y0169125D02*
X0007019Y0169125D01*
X0007019Y0171123D02*
X0107484Y0171123D01*
X0107614Y0173122D02*
X0007019Y0173122D01*
X0007019Y0175120D02*
X0108442Y0175120D01*
X0109985Y0177119D02*
X0007019Y0177119D01*
X0007019Y0179118D02*
X0113197Y0179118D01*
X0118571Y0179118D02*
X0252556Y0179118D01*
X0252556Y0181116D02*
X0007019Y0181116D01*
X0007019Y0183115D02*
X0252556Y0183115D01*
X0252556Y0185113D02*
X0007019Y0185113D01*
X0007019Y0187112D02*
X0252556Y0187112D01*
X0252556Y0189110D02*
X0007019Y0189110D01*
X0007019Y0191109D02*
X0252230Y0191109D01*
X0252621Y0193107D02*
X0007019Y0193107D01*
X0007019Y0195106D02*
X0253478Y0195106D01*
X0254971Y0197104D02*
X0007019Y0197104D01*
X0007019Y0199103D02*
X0258059Y0199103D01*
X0252556Y0177119D02*
X0121783Y0177119D01*
X0123327Y0175120D02*
X0252556Y0175120D01*
X0252556Y0173122D02*
X0124155Y0173122D01*
X0124284Y0171123D02*
X0252556Y0171123D01*
X0252556Y0169125D02*
X0124142Y0169125D01*
X0126884Y0167126D02*
X0252556Y0167126D01*
X0252556Y0165128D02*
X0127909Y0165128D01*
X0127950Y0163129D02*
X0252556Y0163129D01*
X0252556Y0161131D02*
X0126988Y0161131D01*
X0127594Y0159132D02*
X0253329Y0159132D01*
X0254610Y0157134D02*
X0127950Y0157134D01*
X0127795Y0155135D02*
X0256609Y0155135D01*
X0258607Y0153137D02*
X0127950Y0153137D01*
X0127238Y0151138D02*
X0260606Y0151138D01*
X0260725Y0151019D02*
X0260725Y0151019D01*
X0209113Y0133152D02*
X0207288Y0133152D01*
X0199113Y0133152D02*
X0197288Y0133152D01*
X0169113Y0133152D02*
X0167288Y0133152D01*
X0166799Y0143144D02*
X0169602Y0143144D01*
X0159602Y0143144D02*
X0156799Y0143144D01*
X0149602Y0143144D02*
X0007019Y0143144D01*
X0007019Y0141146D02*
X0147779Y0141146D01*
X0146951Y0139147D02*
X0146951Y0136660D01*
X0147576Y0135150D02*
X0007019Y0135150D01*
X0007019Y0133152D02*
X0137070Y0133152D01*
X0144686Y0133152D02*
X0149113Y0133152D01*
X0147782Y0131153D02*
X0145661Y0131153D01*
X0159450Y0097179D02*
X0179397Y0097179D01*
X0178219Y0095180D02*
X0158837Y0095180D01*
X0157317Y0093182D02*
X0177832Y0093182D01*
X0177153Y0091183D02*
X0158607Y0091183D01*
X0159435Y0089184D02*
X0175378Y0089184D01*
X0174973Y0087186D02*
X0159450Y0087186D01*
X0158840Y0085187D02*
X0174973Y0085187D01*
X0174973Y0083189D02*
X0157325Y0083189D01*
X0158604Y0081190D02*
X0173881Y0081190D01*
X0173501Y0079192D02*
X0173009Y0079192D01*
X0167802Y0079192D02*
X0159432Y0079192D01*
X0146951Y0087186D02*
X0126860Y0087186D01*
X0127963Y0085187D02*
X0144980Y0085187D01*
X0142982Y0083189D02*
X0128608Y0083189D01*
X0128608Y0081190D02*
X0140983Y0081190D01*
X0138985Y0079192D02*
X0128154Y0079192D01*
X0127323Y0077193D02*
X0136986Y0077193D01*
X0134231Y0075195D02*
X0125324Y0075195D01*
X0124714Y0089184D02*
X0146966Y0089184D01*
X0147554Y0065202D02*
X0146004Y0065202D01*
X0158201Y0054065D02*
X0159362Y0052904D01*
X0158200Y0051742D01*
X0157039Y0052904D01*
X0158201Y0054065D01*
X0157347Y0053211D02*
X0159054Y0053211D01*
X0158200Y0044065D02*
X0159362Y0042904D01*
X0158200Y0041742D01*
X0157039Y0042904D01*
X0158200Y0044065D01*
X0157355Y0043219D02*
X0159046Y0043219D01*
X0159039Y0033226D02*
X0157362Y0033226D01*
X0158589Y0031228D02*
X0207812Y0031228D01*
X0206985Y0029229D02*
X0159416Y0029229D01*
X0159450Y0027231D02*
X0206951Y0027231D01*
X0207542Y0025232D02*
X0158859Y0025232D01*
X0159736Y0023234D02*
X0157369Y0023234D01*
X0157816Y0021235D02*
X0130112Y0021235D01*
X0130656Y0022547D02*
X0129419Y0019561D01*
X0127133Y0017276D01*
X0124147Y0016039D01*
X0120915Y0016039D01*
X0117929Y0017276D01*
X0115644Y0019561D01*
X0114407Y0022547D01*
X0114407Y0025779D01*
X0115644Y0028765D01*
X0117929Y0031051D01*
X0120915Y0032288D01*
X0124147Y0032288D01*
X0127133Y0031051D01*
X0129419Y0028765D01*
X0130656Y0025779D01*
X0130656Y0022547D01*
X0130656Y0023234D02*
X0149032Y0023234D01*
X0147542Y0025232D02*
X0130656Y0025232D01*
X0130055Y0027231D02*
X0146951Y0027231D01*
X0146985Y0029229D02*
X0128955Y0029229D01*
X0126707Y0031228D02*
X0147812Y0031228D01*
X0156988Y0019237D02*
X0129094Y0019237D01*
X0127042Y0017238D02*
X0156951Y0017238D01*
X0166665Y0023234D02*
X0209032Y0023234D01*
X0207816Y0021235D02*
X0168585Y0021235D01*
X0169413Y0019237D02*
X0206988Y0019237D01*
X0206951Y0017238D02*
X0169450Y0017238D01*
X0168862Y0015240D02*
X0207539Y0015240D01*
X0209024Y0013241D02*
X0167377Y0013241D01*
X0118020Y0017238D02*
X0105389Y0017238D01*
X0107441Y0019237D02*
X0115968Y0019237D01*
X0114950Y0021235D02*
X0108459Y0021235D01*
X0109002Y0023234D02*
X0114407Y0023234D01*
X0114407Y0025232D02*
X0109002Y0025232D01*
X0108401Y0027231D02*
X0115008Y0027231D01*
X0116107Y0029229D02*
X0107302Y0029229D01*
X0105053Y0031228D02*
X0118356Y0031228D01*
X0175577Y0073196D02*
X0175864Y0073196D01*
X0033825Y0227082D02*
X0357413Y0227082D01*
X0357413Y0229080D02*
X0035824Y0229080D01*
X0036847Y0231079D02*
X0357413Y0231079D01*
X0357413Y0233077D02*
X0036847Y0233077D01*
X0036847Y0235076D02*
X0357413Y0235076D01*
X0357413Y0237074D02*
X0036847Y0237074D01*
X0034974Y0239073D02*
X0357413Y0239073D01*
X0357413Y0241071D02*
X0032975Y0241071D01*
X0023583Y0241071D02*
X0019590Y0241071D01*
X0010197Y0241071D02*
X0007019Y0241071D01*
X0007019Y0239073D02*
X0008199Y0239073D01*
X0007019Y0243070D02*
X0357413Y0243070D01*
X0357413Y0245068D02*
X0007019Y0245068D01*
X0007019Y0247067D02*
X0357413Y0247067D01*
X0357413Y0249065D02*
X0007019Y0249065D01*
X0007019Y0251064D02*
X0357413Y0251064D01*
X0357413Y0253062D02*
X0007019Y0253062D01*
X0007019Y0255061D02*
X0357413Y0255061D01*
X0357413Y0257059D02*
X0007019Y0257059D01*
X0007019Y0259058D02*
X0357413Y0259058D01*
X0357413Y0261056D02*
X0007019Y0261056D01*
X0007019Y0263055D02*
X0357413Y0263055D01*
X0357413Y0265053D02*
X0007019Y0265053D01*
X0007019Y0267052D02*
X0357413Y0267052D01*
X0357413Y0269051D02*
X0007019Y0269051D01*
X0007019Y0271049D02*
X0357413Y0271049D01*
X0357413Y0273048D02*
X0007019Y0273048D01*
X0007019Y0275046D02*
X0357413Y0275046D01*
X0357413Y0277045D02*
X0007019Y0277045D01*
X0007019Y0279043D02*
X0010417Y0279043D01*
X0008419Y0281042D02*
X0007019Y0281042D01*
X0007019Y0291034D02*
X0007128Y0291034D01*
X0007019Y0293033D02*
X0009127Y0293033D01*
X0011125Y0295031D02*
X0007019Y0295031D01*
X0007019Y0297030D02*
X0071327Y0297030D01*
X0071327Y0298436D02*
X0072302Y0300789D01*
X0074102Y0302589D01*
X0076454Y0303563D01*
X0079000Y0303563D01*
X0081353Y0302589D01*
X0083153Y0300789D01*
X0084127Y0298436D01*
X0084127Y0289890D01*
X0083153Y0287538D01*
X0081353Y0285738D01*
X0079000Y0284763D01*
X0076454Y0284763D01*
X0074102Y0285738D01*
X0072302Y0287538D01*
X0071327Y0289890D01*
X0071327Y0298436D01*
X0071572Y0299028D02*
X0007019Y0299028D01*
X0007019Y0301027D02*
X0072540Y0301027D01*
X0075155Y0303025D02*
X0007019Y0303025D01*
X0007019Y0305024D02*
X0152186Y0305024D01*
X0150720Y0306489D02*
X0155774Y0301436D01*
X0155774Y0300927D01*
X0156503Y0299166D01*
X0157850Y0297819D01*
X0159610Y0297090D01*
X0161515Y0297090D01*
X0163275Y0297819D01*
X0164623Y0299166D01*
X0165352Y0300927D01*
X0165352Y0302832D01*
X0164623Y0304592D01*
X0163275Y0305939D01*
X0161515Y0306668D01*
X0161006Y0306668D01*
X0159588Y0308086D01*
X0161195Y0308086D01*
X0164181Y0309323D01*
X0166466Y0311609D01*
X0167703Y0314595D01*
X0167703Y0317827D01*
X0166466Y0320813D01*
X0164181Y0323098D01*
X0161195Y0324335D01*
X0157962Y0324335D01*
X0154976Y0323098D01*
X0152691Y0320813D01*
X0151454Y0317827D01*
X0151454Y0315529D01*
X0149976Y0314917D01*
X0148629Y0313570D01*
X0147900Y0311810D01*
X0147900Y0309904D01*
X0148629Y0308144D01*
X0149976Y0306797D01*
X0150720Y0306489D01*
X0149751Y0307022D02*
X0007019Y0307022D01*
X0007019Y0309021D02*
X0010177Y0309021D01*
X0007501Y0311019D02*
X0007019Y0311019D01*
X0019610Y0309021D02*
X0121257Y0309021D01*
X0120528Y0309323D02*
X0123514Y0308086D01*
X0126746Y0308086D01*
X0129732Y0309323D01*
X0132017Y0311609D01*
X0133254Y0314595D01*
X0133254Y0317827D01*
X0132017Y0320813D01*
X0129732Y0323098D01*
X0126746Y0324335D01*
X0123514Y0324335D01*
X0120528Y0323098D01*
X0118242Y0320813D01*
X0117005Y0317827D01*
X0117005Y0314595D01*
X0118242Y0311609D01*
X0120528Y0309323D01*
X0118831Y0311019D02*
X0022285Y0311019D01*
X0023795Y0313018D02*
X0117658Y0313018D01*
X0117005Y0315016D02*
X0024699Y0315016D01*
X0025183Y0317015D02*
X0117005Y0317015D01*
X0117497Y0319013D02*
X0025183Y0319013D01*
X0024787Y0321012D02*
X0118441Y0321012D01*
X0120440Y0323010D02*
X0023986Y0323010D01*
X0022616Y0325009D02*
X0341817Y0325009D01*
X0340447Y0323010D02*
X0272536Y0323010D01*
X0272448Y0323098D02*
X0269462Y0324335D01*
X0266230Y0324335D01*
X0263244Y0323098D01*
X0260959Y0320813D01*
X0259722Y0317827D01*
X0259722Y0314595D01*
X0260959Y0311609D01*
X0263244Y0309323D01*
X0264146Y0308949D01*
X0264146Y0308333D01*
X0262481Y0306668D01*
X0261972Y0306668D01*
X0260212Y0305939D01*
X0258865Y0304592D01*
X0258136Y0302832D01*
X0258136Y0300927D01*
X0258865Y0299166D01*
X0260212Y0297819D01*
X0261972Y0297090D01*
X0263877Y0297090D01*
X0265638Y0297819D01*
X0266985Y0299166D01*
X0267714Y0300927D01*
X0267714Y0301436D01*
X0270983Y0304705D01*
X0271546Y0306064D01*
X0271546Y0308949D01*
X0272448Y0309323D01*
X0274734Y0311609D01*
X0275971Y0314595D01*
X0275971Y0317827D01*
X0274734Y0320813D01*
X0272448Y0323098D01*
X0274535Y0321012D02*
X0339645Y0321012D01*
X0339249Y0319013D02*
X0275479Y0319013D01*
X0275971Y0317015D02*
X0339249Y0317015D01*
X0339734Y0315016D02*
X0275971Y0315016D01*
X0275317Y0313018D02*
X0340637Y0313018D01*
X0342147Y0311019D02*
X0274144Y0311019D01*
X0271718Y0309021D02*
X0344822Y0309021D01*
X0354256Y0309021D02*
X0357413Y0309021D01*
X0357413Y0311019D02*
X0356931Y0311019D01*
X0357413Y0307022D02*
X0271546Y0307022D01*
X0271115Y0305024D02*
X0291931Y0305024D01*
X0292607Y0305699D02*
X0290806Y0303899D01*
X0289832Y0301547D01*
X0289832Y0293001D01*
X0290806Y0290648D01*
X0292607Y0288848D01*
X0294959Y0287874D01*
X0297505Y0287874D01*
X0299857Y0288848D01*
X0301658Y0290648D01*
X0302632Y0293001D01*
X0302632Y0301547D01*
X0301658Y0303899D01*
X0299857Y0305699D01*
X0297505Y0306674D01*
X0294959Y0306674D01*
X0292607Y0305699D01*
X0290444Y0303025D02*
X0269304Y0303025D01*
X0267714Y0301027D02*
X0289832Y0301027D01*
X0289832Y0299028D02*
X0266847Y0299028D01*
X0259003Y0299028D02*
X0245193Y0299028D01*
X0245331Y0299166D02*
X0246060Y0300927D01*
X0246060Y0301436D01*
X0251852Y0307227D01*
X0251858Y0307229D01*
X0253205Y0308577D01*
X0253934Y0310337D01*
X0253934Y0312242D01*
X0253205Y0314002D01*
X0251858Y0315349D01*
X0250098Y0316078D01*
X0248193Y0316078D01*
X0246433Y0315349D01*
X0245085Y0314002D01*
X0244356Y0312242D01*
X0244356Y0310337D01*
X0244397Y0310238D01*
X0240828Y0306668D01*
X0240319Y0306668D01*
X0238559Y0305939D01*
X0237211Y0304592D01*
X0236482Y0302832D01*
X0236482Y0300927D01*
X0237211Y0299166D01*
X0238559Y0297819D01*
X0240319Y0297090D01*
X0242224Y0297090D01*
X0243984Y0297819D01*
X0245331Y0299166D01*
X0246060Y0301027D02*
X0258136Y0301027D01*
X0258216Y0303025D02*
X0247650Y0303025D01*
X0249649Y0305024D02*
X0259297Y0305024D01*
X0262835Y0307022D02*
X0251647Y0307022D01*
X0253389Y0309021D02*
X0263974Y0309021D01*
X0261548Y0311019D02*
X0253934Y0311019D01*
X0253613Y0313018D02*
X0260375Y0313018D01*
X0259722Y0315016D02*
X0252191Y0315016D01*
X0246100Y0315016D02*
X0242506Y0315016D01*
X0242506Y0314595D02*
X0241269Y0311609D01*
X0238984Y0309323D01*
X0235998Y0308086D01*
X0232766Y0308086D01*
X0229779Y0309323D01*
X0227494Y0311609D01*
X0226257Y0314595D01*
X0226257Y0317827D01*
X0227494Y0320813D01*
X0229779Y0323098D01*
X0232766Y0324335D01*
X0235998Y0324335D01*
X0238984Y0323098D01*
X0241269Y0320813D01*
X0242506Y0317827D01*
X0242506Y0314595D01*
X0241853Y0313018D02*
X0244678Y0313018D01*
X0244356Y0311019D02*
X0240680Y0311019D01*
X0238254Y0309021D02*
X0243180Y0309021D01*
X0241182Y0307022D02*
X0213802Y0307022D01*
X0214156Y0306668D02*
X0212738Y0308086D01*
X0214344Y0308086D01*
X0217330Y0309323D01*
X0219616Y0311609D01*
X0220852Y0314595D01*
X0220852Y0317827D01*
X0219616Y0320813D01*
X0217330Y0323098D01*
X0214344Y0324335D01*
X0211112Y0324335D01*
X0208126Y0323098D01*
X0205841Y0320813D01*
X0204604Y0317827D01*
X0204604Y0315529D01*
X0203126Y0314917D01*
X0201778Y0313570D01*
X0201049Y0311810D01*
X0201049Y0309904D01*
X0201778Y0308144D01*
X0203126Y0306797D01*
X0203870Y0306489D01*
X0208923Y0301436D01*
X0208923Y0300927D01*
X0209652Y0299166D01*
X0211000Y0297819D01*
X0212760Y0297090D01*
X0214665Y0297090D01*
X0216425Y0297819D01*
X0217772Y0299166D01*
X0218501Y0300927D01*
X0218501Y0302832D01*
X0217772Y0304592D01*
X0216425Y0305939D01*
X0214665Y0306668D01*
X0214156Y0306668D01*
X0216600Y0309021D02*
X0230509Y0309021D01*
X0228083Y0311019D02*
X0219026Y0311019D01*
X0220199Y0313018D02*
X0226910Y0313018D01*
X0226257Y0315016D02*
X0220852Y0315016D01*
X0220852Y0317015D02*
X0226257Y0317015D01*
X0226749Y0319013D02*
X0220361Y0319013D01*
X0219417Y0321012D02*
X0227693Y0321012D01*
X0229692Y0323010D02*
X0217418Y0323010D01*
X0208038Y0323010D02*
X0185922Y0323010D01*
X0185834Y0323098D02*
X0182848Y0324335D01*
X0179616Y0324335D01*
X0176630Y0323098D01*
X0174344Y0320813D01*
X0173108Y0317827D01*
X0173108Y0314595D01*
X0174344Y0311609D01*
X0176630Y0309323D01*
X0179616Y0308086D01*
X0182848Y0308086D01*
X0185834Y0309323D01*
X0188120Y0311609D01*
X0189356Y0314595D01*
X0189356Y0317827D01*
X0188120Y0320813D01*
X0185834Y0323098D01*
X0187920Y0321012D02*
X0206040Y0321012D01*
X0205095Y0319013D02*
X0188865Y0319013D01*
X0189356Y0317015D02*
X0204604Y0317015D01*
X0203365Y0315016D02*
X0189356Y0315016D01*
X0188703Y0313018D02*
X0201550Y0313018D01*
X0201049Y0311019D02*
X0187530Y0311019D01*
X0185104Y0309021D02*
X0201415Y0309021D01*
X0202901Y0307022D02*
X0160652Y0307022D01*
X0163451Y0309021D02*
X0177360Y0309021D01*
X0174934Y0311019D02*
X0165877Y0311019D01*
X0167050Y0313018D02*
X0173761Y0313018D01*
X0173108Y0315016D02*
X0167703Y0315016D01*
X0167703Y0317015D02*
X0173108Y0317015D01*
X0173599Y0319013D02*
X0167211Y0319013D01*
X0166267Y0321012D02*
X0174544Y0321012D01*
X0176542Y0323010D02*
X0164268Y0323010D01*
X0154888Y0323010D02*
X0129820Y0323010D01*
X0131818Y0321012D02*
X0152890Y0321012D01*
X0151946Y0319013D02*
X0132763Y0319013D01*
X0133254Y0317015D02*
X0151454Y0317015D01*
X0150216Y0315016D02*
X0133254Y0315016D01*
X0132601Y0313018D02*
X0148400Y0313018D01*
X0147900Y0311019D02*
X0131428Y0311019D01*
X0129002Y0309021D02*
X0148266Y0309021D01*
X0154184Y0303025D02*
X0100300Y0303025D01*
X0101353Y0302589D02*
X0099000Y0303563D01*
X0096454Y0303563D01*
X0094102Y0302589D01*
X0092302Y0300789D01*
X0091327Y0298436D01*
X0091327Y0289890D01*
X0092302Y0287538D01*
X0094102Y0285738D01*
X0096454Y0284763D01*
X0099000Y0284763D01*
X0101353Y0285738D01*
X0103153Y0287538D01*
X0104127Y0289890D01*
X0104127Y0298436D01*
X0103153Y0300789D01*
X0101353Y0302589D01*
X0102915Y0301027D02*
X0120110Y0301027D01*
X0120528Y0301445D02*
X0118242Y0299159D01*
X0117005Y0296173D01*
X0117005Y0292941D01*
X0118242Y0289955D01*
X0120528Y0287670D01*
X0123514Y0286433D01*
X0126746Y0286433D01*
X0129732Y0287670D01*
X0132017Y0289955D01*
X0133254Y0292941D01*
X0133254Y0296173D01*
X0132017Y0299159D01*
X0129732Y0301445D01*
X0126746Y0302681D01*
X0123514Y0302681D01*
X0120528Y0301445D01*
X0118188Y0299028D02*
X0103882Y0299028D01*
X0104127Y0297030D02*
X0117360Y0297030D01*
X0117005Y0295031D02*
X0104127Y0295031D01*
X0104127Y0293033D02*
X0117005Y0293033D01*
X0117795Y0291034D02*
X0104127Y0291034D01*
X0103773Y0289036D02*
X0119161Y0289036D01*
X0122054Y0287037D02*
X0102652Y0287037D01*
X0099665Y0285039D02*
X0357413Y0285039D01*
X0357413Y0287037D02*
X0128205Y0287037D01*
X0131098Y0289036D02*
X0292419Y0289036D01*
X0290647Y0291034D02*
X0132464Y0291034D01*
X0133254Y0293033D02*
X0289832Y0293033D01*
X0289832Y0295031D02*
X0133254Y0295031D01*
X0132899Y0297030D02*
X0289832Y0297030D01*
X0300045Y0289036D02*
X0312419Y0289036D01*
X0312607Y0288848D02*
X0310806Y0290648D01*
X0309832Y0293001D01*
X0309832Y0301547D01*
X0310806Y0303899D01*
X0312607Y0305699D01*
X0314959Y0306674D01*
X0317505Y0306674D01*
X0319857Y0305699D01*
X0321658Y0303899D01*
X0322632Y0301547D01*
X0322632Y0293001D01*
X0321658Y0290648D01*
X0319857Y0288848D01*
X0317505Y0287874D01*
X0314959Y0287874D01*
X0312607Y0288848D01*
X0310647Y0291034D02*
X0301817Y0291034D01*
X0302632Y0293033D02*
X0309832Y0293033D01*
X0309832Y0295031D02*
X0302632Y0295031D01*
X0302632Y0297030D02*
X0309832Y0297030D01*
X0309832Y0299028D02*
X0302632Y0299028D01*
X0302632Y0301027D02*
X0309832Y0301027D01*
X0310444Y0303025D02*
X0302020Y0303025D01*
X0300533Y0305024D02*
X0311931Y0305024D01*
X0320533Y0305024D02*
X0357413Y0305024D01*
X0357413Y0303025D02*
X0322020Y0303025D01*
X0322632Y0301027D02*
X0357413Y0301027D01*
X0357413Y0299028D02*
X0322632Y0299028D01*
X0322632Y0297030D02*
X0357413Y0297030D01*
X0357413Y0295031D02*
X0322632Y0295031D01*
X0322632Y0293033D02*
X0357413Y0293033D01*
X0357413Y0291034D02*
X0321817Y0291034D01*
X0320045Y0289036D02*
X0357413Y0289036D01*
X0357413Y0283040D02*
X0036752Y0283040D01*
X0036847Y0285039D02*
X0075790Y0285039D01*
X0072803Y0287037D02*
X0036847Y0287037D01*
X0036847Y0289036D02*
X0071681Y0289036D01*
X0071327Y0291034D02*
X0036044Y0291034D01*
X0034046Y0293033D02*
X0071327Y0293033D01*
X0071327Y0295031D02*
X0032047Y0295031D01*
X0024511Y0295031D02*
X0018661Y0295031D01*
X0020660Y0293033D02*
X0022513Y0293033D01*
X0021805Y0281042D02*
X0021368Y0281042D01*
X0019369Y0279043D02*
X0023803Y0279043D01*
X0032755Y0279043D02*
X0357413Y0279043D01*
X0357413Y0281042D02*
X0034754Y0281042D01*
X0079665Y0285039D02*
X0095790Y0285039D01*
X0092803Y0287037D02*
X0082652Y0287037D01*
X0083773Y0289036D02*
X0091681Y0289036D01*
X0091327Y0291034D02*
X0084127Y0291034D01*
X0084127Y0293033D02*
X0091327Y0293033D01*
X0091327Y0295031D02*
X0084127Y0295031D01*
X0084127Y0297030D02*
X0091327Y0297030D01*
X0091572Y0299028D02*
X0083882Y0299028D01*
X0082915Y0301027D02*
X0092540Y0301027D01*
X0095155Y0303025D02*
X0080300Y0303025D01*
X0130150Y0301027D02*
X0155774Y0301027D01*
X0156641Y0299028D02*
X0132071Y0299028D01*
X0164484Y0299028D02*
X0209791Y0299028D01*
X0208923Y0301027D02*
X0165352Y0301027D01*
X0165272Y0303025D02*
X0207334Y0303025D01*
X0205335Y0305024D02*
X0164191Y0305024D01*
X0217340Y0305024D02*
X0237643Y0305024D01*
X0236563Y0303025D02*
X0218421Y0303025D01*
X0218501Y0301027D02*
X0236482Y0301027D01*
X0237350Y0299028D02*
X0217634Y0299028D01*
X0242506Y0317015D02*
X0259722Y0317015D01*
X0260213Y0319013D02*
X0242014Y0319013D01*
X0241070Y0321012D02*
X0261158Y0321012D01*
X0263156Y0323010D02*
X0239072Y0323010D01*
X0022733Y0227082D02*
X0020440Y0227082D01*
D28*
X0107413Y0164077D02*
X0123161Y0164077D01*
X0123161Y0153809D02*
X0107413Y0153809D01*
X0140878Y0130187D02*
X0140917Y0130187D01*
X0153201Y0117904D01*
X0178673Y0087470D02*
X0184185Y0092982D01*
X0178673Y0087470D02*
X0178673Y0078022D01*
X0170405Y0074281D02*
X0159578Y0074281D01*
X0153201Y0067904D01*
X0153201Y0057904D02*
X0146228Y0050931D01*
X0138397Y0050931D01*
X0138747Y0047904D02*
X0153201Y0047904D01*
X0138747Y0047904D02*
X0138397Y0047553D01*
X0213201Y0037904D02*
X0218358Y0032746D01*
X0229501Y0032746D01*
X0213279Y0017982D02*
X0213201Y0017904D01*
X0215208Y0085896D02*
X0213201Y0087904D01*
X0215208Y0085896D02*
X0229501Y0085896D01*
X0217329Y0121297D02*
X0218738Y0122707D01*
X0229494Y0122707D01*
X0229494Y0126644D02*
X0219297Y0126644D01*
X0217329Y0124675D01*
X0213201Y0127904D02*
X0226817Y0127904D01*
X0229494Y0130581D01*
X0230442Y0132870D02*
X0232368Y0130944D01*
X0235272Y0130944D01*
X0233924Y0134322D02*
X0219384Y0134322D01*
X0218277Y0135429D01*
X0215675Y0135429D01*
X0213201Y0137904D01*
X0217329Y0133140D02*
X0217599Y0132870D01*
X0230442Y0132870D01*
X0217462Y0133007D02*
X0217329Y0133140D01*
X0192571Y0125526D02*
X0185641Y0125526D01*
X0185641Y0122148D02*
X0192571Y0122148D01*
X0192571Y0118770D02*
X0185641Y0118770D01*
X0263909Y0155778D02*
X0267846Y0155778D01*
X0267846Y0159715D01*
X0267846Y0155778D02*
X0271783Y0155778D01*
X0271783Y0151841D01*
X0267846Y0151841D01*
X0270799Y0152825D02*
X0271783Y0151841D01*
X0338319Y0151841D02*
X0338319Y0141998D01*
X0338319Y0132156D01*
X0345012Y0132156D02*
X0352492Y0132156D01*
X0352334Y0141998D02*
X0345012Y0141998D01*
X0352334Y0141998D02*
X0352492Y0142156D01*
X0352177Y0151841D02*
X0345012Y0151841D01*
X0338319Y0151841D02*
X0338319Y0161683D01*
X0345012Y0161683D02*
X0352019Y0161683D01*
X0352492Y0162156D01*
X0352492Y0152156D02*
X0352177Y0151841D01*
X0266862Y0274872D02*
X0267846Y0275856D01*
X0267846Y0294557D01*
X0262925Y0301879D02*
X0267846Y0306800D01*
X0267846Y0316211D01*
X0249145Y0311289D02*
X0249145Y0309753D01*
X0241271Y0301879D01*
X0213712Y0301879D02*
X0205838Y0309753D01*
X0205838Y0310857D01*
X0160563Y0301879D02*
X0152689Y0309753D01*
X0152689Y0310857D01*
D29*
X0160563Y0149872D02*
X0187138Y0149872D01*
X0192059Y0144951D01*
X0202965Y0144951D01*
D30*
X0225523Y0030457D02*
X0225523Y0020226D01*
X0213201Y0007904D01*
M02*
