G75*
%MOIN*%
%OFA0B0*%
%FSLAX25Y25*%
%IPPOS*%
%LPD*%
%AMOC8*
5,1,8,0,0,1.08239X$1,22.5*
%
%ADD10C,0.00000*%
D10*
X0003082Y0009124D02*
X0003082Y0322116D01*
X0003084Y0322306D01*
X0003091Y0322496D01*
X0003103Y0322686D01*
X0003119Y0322876D01*
X0003139Y0323065D01*
X0003165Y0323254D01*
X0003194Y0323442D01*
X0003229Y0323629D01*
X0003268Y0323815D01*
X0003311Y0324000D01*
X0003359Y0324185D01*
X0003411Y0324368D01*
X0003467Y0324549D01*
X0003528Y0324729D01*
X0003594Y0324908D01*
X0003663Y0325085D01*
X0003737Y0325261D01*
X0003815Y0325434D01*
X0003898Y0325606D01*
X0003984Y0325775D01*
X0004074Y0325943D01*
X0004169Y0326108D01*
X0004267Y0326271D01*
X0004370Y0326431D01*
X0004476Y0326589D01*
X0004586Y0326744D01*
X0004699Y0326897D01*
X0004817Y0327047D01*
X0004938Y0327193D01*
X0005062Y0327337D01*
X0005190Y0327478D01*
X0005321Y0327616D01*
X0005456Y0327751D01*
X0005594Y0327882D01*
X0005735Y0328010D01*
X0005879Y0328134D01*
X0006025Y0328255D01*
X0006175Y0328373D01*
X0006328Y0328486D01*
X0006483Y0328596D01*
X0006641Y0328702D01*
X0006801Y0328805D01*
X0006964Y0328903D01*
X0007129Y0328998D01*
X0007297Y0329088D01*
X0007466Y0329174D01*
X0007638Y0329257D01*
X0007811Y0329335D01*
X0007987Y0329409D01*
X0008164Y0329478D01*
X0008343Y0329544D01*
X0008523Y0329605D01*
X0008704Y0329661D01*
X0008887Y0329713D01*
X0009072Y0329761D01*
X0009257Y0329804D01*
X0009443Y0329843D01*
X0009630Y0329878D01*
X0009818Y0329907D01*
X0010007Y0329933D01*
X0010196Y0329953D01*
X0010386Y0329969D01*
X0010576Y0329981D01*
X0010766Y0329988D01*
X0010956Y0329990D01*
X0353476Y0329990D01*
X0353666Y0329988D01*
X0353856Y0329981D01*
X0354046Y0329969D01*
X0354236Y0329953D01*
X0354425Y0329933D01*
X0354614Y0329907D01*
X0354802Y0329878D01*
X0354989Y0329843D01*
X0355175Y0329804D01*
X0355360Y0329761D01*
X0355545Y0329713D01*
X0355728Y0329661D01*
X0355909Y0329605D01*
X0356089Y0329544D01*
X0356268Y0329478D01*
X0356445Y0329409D01*
X0356621Y0329335D01*
X0356794Y0329257D01*
X0356966Y0329174D01*
X0357135Y0329088D01*
X0357303Y0328998D01*
X0357468Y0328903D01*
X0357631Y0328805D01*
X0357791Y0328702D01*
X0357949Y0328596D01*
X0358104Y0328486D01*
X0358257Y0328373D01*
X0358407Y0328255D01*
X0358553Y0328134D01*
X0358697Y0328010D01*
X0358838Y0327882D01*
X0358976Y0327751D01*
X0359111Y0327616D01*
X0359242Y0327478D01*
X0359370Y0327337D01*
X0359494Y0327193D01*
X0359615Y0327047D01*
X0359733Y0326897D01*
X0359846Y0326744D01*
X0359956Y0326589D01*
X0360062Y0326431D01*
X0360165Y0326271D01*
X0360263Y0326108D01*
X0360358Y0325943D01*
X0360448Y0325775D01*
X0360534Y0325606D01*
X0360617Y0325434D01*
X0360695Y0325261D01*
X0360769Y0325085D01*
X0360838Y0324908D01*
X0360904Y0324729D01*
X0360965Y0324549D01*
X0361021Y0324368D01*
X0361073Y0324185D01*
X0361121Y0324000D01*
X0361164Y0323815D01*
X0361203Y0323629D01*
X0361238Y0323442D01*
X0361267Y0323254D01*
X0361293Y0323065D01*
X0361313Y0322876D01*
X0361329Y0322686D01*
X0361341Y0322496D01*
X0361348Y0322306D01*
X0361350Y0322116D01*
X0361350Y0009124D01*
X0361348Y0008934D01*
X0361341Y0008744D01*
X0361329Y0008554D01*
X0361313Y0008364D01*
X0361293Y0008175D01*
X0361267Y0007986D01*
X0361238Y0007798D01*
X0361203Y0007611D01*
X0361164Y0007425D01*
X0361121Y0007240D01*
X0361073Y0007055D01*
X0361021Y0006872D01*
X0360965Y0006691D01*
X0360904Y0006511D01*
X0360838Y0006332D01*
X0360769Y0006155D01*
X0360695Y0005979D01*
X0360617Y0005806D01*
X0360534Y0005634D01*
X0360448Y0005465D01*
X0360358Y0005297D01*
X0360263Y0005132D01*
X0360165Y0004969D01*
X0360062Y0004809D01*
X0359956Y0004651D01*
X0359846Y0004496D01*
X0359733Y0004343D01*
X0359615Y0004193D01*
X0359494Y0004047D01*
X0359370Y0003903D01*
X0359242Y0003762D01*
X0359111Y0003624D01*
X0358976Y0003489D01*
X0358838Y0003358D01*
X0358697Y0003230D01*
X0358553Y0003106D01*
X0358407Y0002985D01*
X0358257Y0002867D01*
X0358104Y0002754D01*
X0357949Y0002644D01*
X0357791Y0002538D01*
X0357631Y0002435D01*
X0357468Y0002337D01*
X0357303Y0002242D01*
X0357135Y0002152D01*
X0356966Y0002066D01*
X0356794Y0001983D01*
X0356621Y0001905D01*
X0356445Y0001831D01*
X0356268Y0001762D01*
X0356089Y0001696D01*
X0355909Y0001635D01*
X0355728Y0001579D01*
X0355545Y0001527D01*
X0355360Y0001479D01*
X0355175Y0001436D01*
X0354989Y0001397D01*
X0354802Y0001362D01*
X0354614Y0001333D01*
X0354425Y0001307D01*
X0354236Y0001287D01*
X0354046Y0001271D01*
X0353856Y0001259D01*
X0353666Y0001252D01*
X0353476Y0001250D01*
X0010956Y0001250D01*
X0010766Y0001252D01*
X0010576Y0001259D01*
X0010386Y0001271D01*
X0010196Y0001287D01*
X0010007Y0001307D01*
X0009818Y0001333D01*
X0009630Y0001362D01*
X0009443Y0001397D01*
X0009257Y0001436D01*
X0009072Y0001479D01*
X0008887Y0001527D01*
X0008704Y0001579D01*
X0008523Y0001635D01*
X0008343Y0001696D01*
X0008164Y0001762D01*
X0007987Y0001831D01*
X0007811Y0001905D01*
X0007638Y0001983D01*
X0007466Y0002066D01*
X0007297Y0002152D01*
X0007129Y0002242D01*
X0006964Y0002337D01*
X0006801Y0002435D01*
X0006641Y0002538D01*
X0006483Y0002644D01*
X0006328Y0002754D01*
X0006175Y0002867D01*
X0006025Y0002985D01*
X0005879Y0003106D01*
X0005735Y0003230D01*
X0005594Y0003358D01*
X0005456Y0003489D01*
X0005321Y0003624D01*
X0005190Y0003762D01*
X0005062Y0003903D01*
X0004938Y0004047D01*
X0004817Y0004193D01*
X0004699Y0004343D01*
X0004586Y0004496D01*
X0004476Y0004651D01*
X0004370Y0004809D01*
X0004267Y0004969D01*
X0004169Y0005132D01*
X0004074Y0005297D01*
X0003984Y0005465D01*
X0003898Y0005634D01*
X0003815Y0005806D01*
X0003737Y0005979D01*
X0003663Y0006155D01*
X0003594Y0006332D01*
X0003528Y0006511D01*
X0003467Y0006691D01*
X0003411Y0006872D01*
X0003359Y0007055D01*
X0003311Y0007240D01*
X0003268Y0007425D01*
X0003229Y0007611D01*
X0003194Y0007798D01*
X0003165Y0007986D01*
X0003139Y0008175D01*
X0003119Y0008364D01*
X0003103Y0008554D01*
X0003091Y0008744D01*
X0003084Y0008934D01*
X0003082Y0009124D01*
X0008003Y0013061D02*
X0008005Y0013230D01*
X0008011Y0013399D01*
X0008022Y0013568D01*
X0008036Y0013736D01*
X0008055Y0013904D01*
X0008078Y0014072D01*
X0008104Y0014239D01*
X0008135Y0014405D01*
X0008170Y0014571D01*
X0008209Y0014735D01*
X0008253Y0014899D01*
X0008300Y0015061D01*
X0008351Y0015222D01*
X0008406Y0015382D01*
X0008465Y0015541D01*
X0008527Y0015698D01*
X0008594Y0015853D01*
X0008665Y0016007D01*
X0008739Y0016159D01*
X0008817Y0016309D01*
X0008898Y0016457D01*
X0008983Y0016603D01*
X0009072Y0016747D01*
X0009164Y0016889D01*
X0009260Y0017028D01*
X0009359Y0017165D01*
X0009461Y0017300D01*
X0009567Y0017432D01*
X0009676Y0017561D01*
X0009788Y0017688D01*
X0009903Y0017812D01*
X0010021Y0017933D01*
X0010142Y0018051D01*
X0010266Y0018166D01*
X0010393Y0018278D01*
X0010522Y0018387D01*
X0010654Y0018493D01*
X0010789Y0018595D01*
X0010926Y0018694D01*
X0011065Y0018790D01*
X0011207Y0018882D01*
X0011351Y0018971D01*
X0011497Y0019056D01*
X0011645Y0019137D01*
X0011795Y0019215D01*
X0011947Y0019289D01*
X0012101Y0019360D01*
X0012256Y0019427D01*
X0012413Y0019489D01*
X0012572Y0019548D01*
X0012732Y0019603D01*
X0012893Y0019654D01*
X0013055Y0019701D01*
X0013219Y0019745D01*
X0013383Y0019784D01*
X0013549Y0019819D01*
X0013715Y0019850D01*
X0013882Y0019876D01*
X0014050Y0019899D01*
X0014218Y0019918D01*
X0014386Y0019932D01*
X0014555Y0019943D01*
X0014724Y0019949D01*
X0014893Y0019951D01*
X0015062Y0019949D01*
X0015231Y0019943D01*
X0015400Y0019932D01*
X0015568Y0019918D01*
X0015736Y0019899D01*
X0015904Y0019876D01*
X0016071Y0019850D01*
X0016237Y0019819D01*
X0016403Y0019784D01*
X0016567Y0019745D01*
X0016731Y0019701D01*
X0016893Y0019654D01*
X0017054Y0019603D01*
X0017214Y0019548D01*
X0017373Y0019489D01*
X0017530Y0019427D01*
X0017685Y0019360D01*
X0017839Y0019289D01*
X0017991Y0019215D01*
X0018141Y0019137D01*
X0018289Y0019056D01*
X0018435Y0018971D01*
X0018579Y0018882D01*
X0018721Y0018790D01*
X0018860Y0018694D01*
X0018997Y0018595D01*
X0019132Y0018493D01*
X0019264Y0018387D01*
X0019393Y0018278D01*
X0019520Y0018166D01*
X0019644Y0018051D01*
X0019765Y0017933D01*
X0019883Y0017812D01*
X0019998Y0017688D01*
X0020110Y0017561D01*
X0020219Y0017432D01*
X0020325Y0017300D01*
X0020427Y0017165D01*
X0020526Y0017028D01*
X0020622Y0016889D01*
X0020714Y0016747D01*
X0020803Y0016603D01*
X0020888Y0016457D01*
X0020969Y0016309D01*
X0021047Y0016159D01*
X0021121Y0016007D01*
X0021192Y0015853D01*
X0021259Y0015698D01*
X0021321Y0015541D01*
X0021380Y0015382D01*
X0021435Y0015222D01*
X0021486Y0015061D01*
X0021533Y0014899D01*
X0021577Y0014735D01*
X0021616Y0014571D01*
X0021651Y0014405D01*
X0021682Y0014239D01*
X0021708Y0014072D01*
X0021731Y0013904D01*
X0021750Y0013736D01*
X0021764Y0013568D01*
X0021775Y0013399D01*
X0021781Y0013230D01*
X0021783Y0013061D01*
X0021781Y0012892D01*
X0021775Y0012723D01*
X0021764Y0012554D01*
X0021750Y0012386D01*
X0021731Y0012218D01*
X0021708Y0012050D01*
X0021682Y0011883D01*
X0021651Y0011717D01*
X0021616Y0011551D01*
X0021577Y0011387D01*
X0021533Y0011223D01*
X0021486Y0011061D01*
X0021435Y0010900D01*
X0021380Y0010740D01*
X0021321Y0010581D01*
X0021259Y0010424D01*
X0021192Y0010269D01*
X0021121Y0010115D01*
X0021047Y0009963D01*
X0020969Y0009813D01*
X0020888Y0009665D01*
X0020803Y0009519D01*
X0020714Y0009375D01*
X0020622Y0009233D01*
X0020526Y0009094D01*
X0020427Y0008957D01*
X0020325Y0008822D01*
X0020219Y0008690D01*
X0020110Y0008561D01*
X0019998Y0008434D01*
X0019883Y0008310D01*
X0019765Y0008189D01*
X0019644Y0008071D01*
X0019520Y0007956D01*
X0019393Y0007844D01*
X0019264Y0007735D01*
X0019132Y0007629D01*
X0018997Y0007527D01*
X0018860Y0007428D01*
X0018721Y0007332D01*
X0018579Y0007240D01*
X0018435Y0007151D01*
X0018289Y0007066D01*
X0018141Y0006985D01*
X0017991Y0006907D01*
X0017839Y0006833D01*
X0017685Y0006762D01*
X0017530Y0006695D01*
X0017373Y0006633D01*
X0017214Y0006574D01*
X0017054Y0006519D01*
X0016893Y0006468D01*
X0016731Y0006421D01*
X0016567Y0006377D01*
X0016403Y0006338D01*
X0016237Y0006303D01*
X0016071Y0006272D01*
X0015904Y0006246D01*
X0015736Y0006223D01*
X0015568Y0006204D01*
X0015400Y0006190D01*
X0015231Y0006179D01*
X0015062Y0006173D01*
X0014893Y0006171D01*
X0014724Y0006173D01*
X0014555Y0006179D01*
X0014386Y0006190D01*
X0014218Y0006204D01*
X0014050Y0006223D01*
X0013882Y0006246D01*
X0013715Y0006272D01*
X0013549Y0006303D01*
X0013383Y0006338D01*
X0013219Y0006377D01*
X0013055Y0006421D01*
X0012893Y0006468D01*
X0012732Y0006519D01*
X0012572Y0006574D01*
X0012413Y0006633D01*
X0012256Y0006695D01*
X0012101Y0006762D01*
X0011947Y0006833D01*
X0011795Y0006907D01*
X0011645Y0006985D01*
X0011497Y0007066D01*
X0011351Y0007151D01*
X0011207Y0007240D01*
X0011065Y0007332D01*
X0010926Y0007428D01*
X0010789Y0007527D01*
X0010654Y0007629D01*
X0010522Y0007735D01*
X0010393Y0007844D01*
X0010266Y0007956D01*
X0010142Y0008071D01*
X0010021Y0008189D01*
X0009903Y0008310D01*
X0009788Y0008434D01*
X0009676Y0008561D01*
X0009567Y0008690D01*
X0009461Y0008822D01*
X0009359Y0008957D01*
X0009260Y0009094D01*
X0009164Y0009233D01*
X0009072Y0009375D01*
X0008983Y0009519D01*
X0008898Y0009665D01*
X0008817Y0009813D01*
X0008739Y0009963D01*
X0008665Y0010115D01*
X0008594Y0010269D01*
X0008527Y0010424D01*
X0008465Y0010581D01*
X0008406Y0010740D01*
X0008351Y0010900D01*
X0008300Y0011061D01*
X0008253Y0011223D01*
X0008209Y0011387D01*
X0008170Y0011551D01*
X0008135Y0011717D01*
X0008104Y0011883D01*
X0008078Y0012050D01*
X0008055Y0012218D01*
X0008036Y0012386D01*
X0008022Y0012554D01*
X0008011Y0012723D01*
X0008005Y0012892D01*
X0008003Y0013061D01*
X0008003Y0318179D02*
X0008005Y0318348D01*
X0008011Y0318517D01*
X0008022Y0318686D01*
X0008036Y0318854D01*
X0008055Y0319022D01*
X0008078Y0319190D01*
X0008104Y0319357D01*
X0008135Y0319523D01*
X0008170Y0319689D01*
X0008209Y0319853D01*
X0008253Y0320017D01*
X0008300Y0320179D01*
X0008351Y0320340D01*
X0008406Y0320500D01*
X0008465Y0320659D01*
X0008527Y0320816D01*
X0008594Y0320971D01*
X0008665Y0321125D01*
X0008739Y0321277D01*
X0008817Y0321427D01*
X0008898Y0321575D01*
X0008983Y0321721D01*
X0009072Y0321865D01*
X0009164Y0322007D01*
X0009260Y0322146D01*
X0009359Y0322283D01*
X0009461Y0322418D01*
X0009567Y0322550D01*
X0009676Y0322679D01*
X0009788Y0322806D01*
X0009903Y0322930D01*
X0010021Y0323051D01*
X0010142Y0323169D01*
X0010266Y0323284D01*
X0010393Y0323396D01*
X0010522Y0323505D01*
X0010654Y0323611D01*
X0010789Y0323713D01*
X0010926Y0323812D01*
X0011065Y0323908D01*
X0011207Y0324000D01*
X0011351Y0324089D01*
X0011497Y0324174D01*
X0011645Y0324255D01*
X0011795Y0324333D01*
X0011947Y0324407D01*
X0012101Y0324478D01*
X0012256Y0324545D01*
X0012413Y0324607D01*
X0012572Y0324666D01*
X0012732Y0324721D01*
X0012893Y0324772D01*
X0013055Y0324819D01*
X0013219Y0324863D01*
X0013383Y0324902D01*
X0013549Y0324937D01*
X0013715Y0324968D01*
X0013882Y0324994D01*
X0014050Y0325017D01*
X0014218Y0325036D01*
X0014386Y0325050D01*
X0014555Y0325061D01*
X0014724Y0325067D01*
X0014893Y0325069D01*
X0015062Y0325067D01*
X0015231Y0325061D01*
X0015400Y0325050D01*
X0015568Y0325036D01*
X0015736Y0325017D01*
X0015904Y0324994D01*
X0016071Y0324968D01*
X0016237Y0324937D01*
X0016403Y0324902D01*
X0016567Y0324863D01*
X0016731Y0324819D01*
X0016893Y0324772D01*
X0017054Y0324721D01*
X0017214Y0324666D01*
X0017373Y0324607D01*
X0017530Y0324545D01*
X0017685Y0324478D01*
X0017839Y0324407D01*
X0017991Y0324333D01*
X0018141Y0324255D01*
X0018289Y0324174D01*
X0018435Y0324089D01*
X0018579Y0324000D01*
X0018721Y0323908D01*
X0018860Y0323812D01*
X0018997Y0323713D01*
X0019132Y0323611D01*
X0019264Y0323505D01*
X0019393Y0323396D01*
X0019520Y0323284D01*
X0019644Y0323169D01*
X0019765Y0323051D01*
X0019883Y0322930D01*
X0019998Y0322806D01*
X0020110Y0322679D01*
X0020219Y0322550D01*
X0020325Y0322418D01*
X0020427Y0322283D01*
X0020526Y0322146D01*
X0020622Y0322007D01*
X0020714Y0321865D01*
X0020803Y0321721D01*
X0020888Y0321575D01*
X0020969Y0321427D01*
X0021047Y0321277D01*
X0021121Y0321125D01*
X0021192Y0320971D01*
X0021259Y0320816D01*
X0021321Y0320659D01*
X0021380Y0320500D01*
X0021435Y0320340D01*
X0021486Y0320179D01*
X0021533Y0320017D01*
X0021577Y0319853D01*
X0021616Y0319689D01*
X0021651Y0319523D01*
X0021682Y0319357D01*
X0021708Y0319190D01*
X0021731Y0319022D01*
X0021750Y0318854D01*
X0021764Y0318686D01*
X0021775Y0318517D01*
X0021781Y0318348D01*
X0021783Y0318179D01*
X0021781Y0318010D01*
X0021775Y0317841D01*
X0021764Y0317672D01*
X0021750Y0317504D01*
X0021731Y0317336D01*
X0021708Y0317168D01*
X0021682Y0317001D01*
X0021651Y0316835D01*
X0021616Y0316669D01*
X0021577Y0316505D01*
X0021533Y0316341D01*
X0021486Y0316179D01*
X0021435Y0316018D01*
X0021380Y0315858D01*
X0021321Y0315699D01*
X0021259Y0315542D01*
X0021192Y0315387D01*
X0021121Y0315233D01*
X0021047Y0315081D01*
X0020969Y0314931D01*
X0020888Y0314783D01*
X0020803Y0314637D01*
X0020714Y0314493D01*
X0020622Y0314351D01*
X0020526Y0314212D01*
X0020427Y0314075D01*
X0020325Y0313940D01*
X0020219Y0313808D01*
X0020110Y0313679D01*
X0019998Y0313552D01*
X0019883Y0313428D01*
X0019765Y0313307D01*
X0019644Y0313189D01*
X0019520Y0313074D01*
X0019393Y0312962D01*
X0019264Y0312853D01*
X0019132Y0312747D01*
X0018997Y0312645D01*
X0018860Y0312546D01*
X0018721Y0312450D01*
X0018579Y0312358D01*
X0018435Y0312269D01*
X0018289Y0312184D01*
X0018141Y0312103D01*
X0017991Y0312025D01*
X0017839Y0311951D01*
X0017685Y0311880D01*
X0017530Y0311813D01*
X0017373Y0311751D01*
X0017214Y0311692D01*
X0017054Y0311637D01*
X0016893Y0311586D01*
X0016731Y0311539D01*
X0016567Y0311495D01*
X0016403Y0311456D01*
X0016237Y0311421D01*
X0016071Y0311390D01*
X0015904Y0311364D01*
X0015736Y0311341D01*
X0015568Y0311322D01*
X0015400Y0311308D01*
X0015231Y0311297D01*
X0015062Y0311291D01*
X0014893Y0311289D01*
X0014724Y0311291D01*
X0014555Y0311297D01*
X0014386Y0311308D01*
X0014218Y0311322D01*
X0014050Y0311341D01*
X0013882Y0311364D01*
X0013715Y0311390D01*
X0013549Y0311421D01*
X0013383Y0311456D01*
X0013219Y0311495D01*
X0013055Y0311539D01*
X0012893Y0311586D01*
X0012732Y0311637D01*
X0012572Y0311692D01*
X0012413Y0311751D01*
X0012256Y0311813D01*
X0012101Y0311880D01*
X0011947Y0311951D01*
X0011795Y0312025D01*
X0011645Y0312103D01*
X0011497Y0312184D01*
X0011351Y0312269D01*
X0011207Y0312358D01*
X0011065Y0312450D01*
X0010926Y0312546D01*
X0010789Y0312645D01*
X0010654Y0312747D01*
X0010522Y0312853D01*
X0010393Y0312962D01*
X0010266Y0313074D01*
X0010142Y0313189D01*
X0010021Y0313307D01*
X0009903Y0313428D01*
X0009788Y0313552D01*
X0009676Y0313679D01*
X0009567Y0313808D01*
X0009461Y0313940D01*
X0009359Y0314075D01*
X0009260Y0314212D01*
X0009164Y0314351D01*
X0009072Y0314493D01*
X0008983Y0314637D01*
X0008898Y0314783D01*
X0008817Y0314931D01*
X0008739Y0315081D01*
X0008665Y0315233D01*
X0008594Y0315387D01*
X0008527Y0315542D01*
X0008465Y0315699D01*
X0008406Y0315858D01*
X0008351Y0316018D01*
X0008300Y0316179D01*
X0008253Y0316341D01*
X0008209Y0316505D01*
X0008170Y0316669D01*
X0008135Y0316835D01*
X0008104Y0317001D01*
X0008078Y0317168D01*
X0008055Y0317336D01*
X0008036Y0317504D01*
X0008022Y0317672D01*
X0008011Y0317841D01*
X0008005Y0318010D01*
X0008003Y0318179D01*
X0342649Y0318179D02*
X0342651Y0318348D01*
X0342657Y0318517D01*
X0342668Y0318686D01*
X0342682Y0318854D01*
X0342701Y0319022D01*
X0342724Y0319190D01*
X0342750Y0319357D01*
X0342781Y0319523D01*
X0342816Y0319689D01*
X0342855Y0319853D01*
X0342899Y0320017D01*
X0342946Y0320179D01*
X0342997Y0320340D01*
X0343052Y0320500D01*
X0343111Y0320659D01*
X0343173Y0320816D01*
X0343240Y0320971D01*
X0343311Y0321125D01*
X0343385Y0321277D01*
X0343463Y0321427D01*
X0343544Y0321575D01*
X0343629Y0321721D01*
X0343718Y0321865D01*
X0343810Y0322007D01*
X0343906Y0322146D01*
X0344005Y0322283D01*
X0344107Y0322418D01*
X0344213Y0322550D01*
X0344322Y0322679D01*
X0344434Y0322806D01*
X0344549Y0322930D01*
X0344667Y0323051D01*
X0344788Y0323169D01*
X0344912Y0323284D01*
X0345039Y0323396D01*
X0345168Y0323505D01*
X0345300Y0323611D01*
X0345435Y0323713D01*
X0345572Y0323812D01*
X0345711Y0323908D01*
X0345853Y0324000D01*
X0345997Y0324089D01*
X0346143Y0324174D01*
X0346291Y0324255D01*
X0346441Y0324333D01*
X0346593Y0324407D01*
X0346747Y0324478D01*
X0346902Y0324545D01*
X0347059Y0324607D01*
X0347218Y0324666D01*
X0347378Y0324721D01*
X0347539Y0324772D01*
X0347701Y0324819D01*
X0347865Y0324863D01*
X0348029Y0324902D01*
X0348195Y0324937D01*
X0348361Y0324968D01*
X0348528Y0324994D01*
X0348696Y0325017D01*
X0348864Y0325036D01*
X0349032Y0325050D01*
X0349201Y0325061D01*
X0349370Y0325067D01*
X0349539Y0325069D01*
X0349708Y0325067D01*
X0349877Y0325061D01*
X0350046Y0325050D01*
X0350214Y0325036D01*
X0350382Y0325017D01*
X0350550Y0324994D01*
X0350717Y0324968D01*
X0350883Y0324937D01*
X0351049Y0324902D01*
X0351213Y0324863D01*
X0351377Y0324819D01*
X0351539Y0324772D01*
X0351700Y0324721D01*
X0351860Y0324666D01*
X0352019Y0324607D01*
X0352176Y0324545D01*
X0352331Y0324478D01*
X0352485Y0324407D01*
X0352637Y0324333D01*
X0352787Y0324255D01*
X0352935Y0324174D01*
X0353081Y0324089D01*
X0353225Y0324000D01*
X0353367Y0323908D01*
X0353506Y0323812D01*
X0353643Y0323713D01*
X0353778Y0323611D01*
X0353910Y0323505D01*
X0354039Y0323396D01*
X0354166Y0323284D01*
X0354290Y0323169D01*
X0354411Y0323051D01*
X0354529Y0322930D01*
X0354644Y0322806D01*
X0354756Y0322679D01*
X0354865Y0322550D01*
X0354971Y0322418D01*
X0355073Y0322283D01*
X0355172Y0322146D01*
X0355268Y0322007D01*
X0355360Y0321865D01*
X0355449Y0321721D01*
X0355534Y0321575D01*
X0355615Y0321427D01*
X0355693Y0321277D01*
X0355767Y0321125D01*
X0355838Y0320971D01*
X0355905Y0320816D01*
X0355967Y0320659D01*
X0356026Y0320500D01*
X0356081Y0320340D01*
X0356132Y0320179D01*
X0356179Y0320017D01*
X0356223Y0319853D01*
X0356262Y0319689D01*
X0356297Y0319523D01*
X0356328Y0319357D01*
X0356354Y0319190D01*
X0356377Y0319022D01*
X0356396Y0318854D01*
X0356410Y0318686D01*
X0356421Y0318517D01*
X0356427Y0318348D01*
X0356429Y0318179D01*
X0356427Y0318010D01*
X0356421Y0317841D01*
X0356410Y0317672D01*
X0356396Y0317504D01*
X0356377Y0317336D01*
X0356354Y0317168D01*
X0356328Y0317001D01*
X0356297Y0316835D01*
X0356262Y0316669D01*
X0356223Y0316505D01*
X0356179Y0316341D01*
X0356132Y0316179D01*
X0356081Y0316018D01*
X0356026Y0315858D01*
X0355967Y0315699D01*
X0355905Y0315542D01*
X0355838Y0315387D01*
X0355767Y0315233D01*
X0355693Y0315081D01*
X0355615Y0314931D01*
X0355534Y0314783D01*
X0355449Y0314637D01*
X0355360Y0314493D01*
X0355268Y0314351D01*
X0355172Y0314212D01*
X0355073Y0314075D01*
X0354971Y0313940D01*
X0354865Y0313808D01*
X0354756Y0313679D01*
X0354644Y0313552D01*
X0354529Y0313428D01*
X0354411Y0313307D01*
X0354290Y0313189D01*
X0354166Y0313074D01*
X0354039Y0312962D01*
X0353910Y0312853D01*
X0353778Y0312747D01*
X0353643Y0312645D01*
X0353506Y0312546D01*
X0353367Y0312450D01*
X0353225Y0312358D01*
X0353081Y0312269D01*
X0352935Y0312184D01*
X0352787Y0312103D01*
X0352637Y0312025D01*
X0352485Y0311951D01*
X0352331Y0311880D01*
X0352176Y0311813D01*
X0352019Y0311751D01*
X0351860Y0311692D01*
X0351700Y0311637D01*
X0351539Y0311586D01*
X0351377Y0311539D01*
X0351213Y0311495D01*
X0351049Y0311456D01*
X0350883Y0311421D01*
X0350717Y0311390D01*
X0350550Y0311364D01*
X0350382Y0311341D01*
X0350214Y0311322D01*
X0350046Y0311308D01*
X0349877Y0311297D01*
X0349708Y0311291D01*
X0349539Y0311289D01*
X0349370Y0311291D01*
X0349201Y0311297D01*
X0349032Y0311308D01*
X0348864Y0311322D01*
X0348696Y0311341D01*
X0348528Y0311364D01*
X0348361Y0311390D01*
X0348195Y0311421D01*
X0348029Y0311456D01*
X0347865Y0311495D01*
X0347701Y0311539D01*
X0347539Y0311586D01*
X0347378Y0311637D01*
X0347218Y0311692D01*
X0347059Y0311751D01*
X0346902Y0311813D01*
X0346747Y0311880D01*
X0346593Y0311951D01*
X0346441Y0312025D01*
X0346291Y0312103D01*
X0346143Y0312184D01*
X0345997Y0312269D01*
X0345853Y0312358D01*
X0345711Y0312450D01*
X0345572Y0312546D01*
X0345435Y0312645D01*
X0345300Y0312747D01*
X0345168Y0312853D01*
X0345039Y0312962D01*
X0344912Y0313074D01*
X0344788Y0313189D01*
X0344667Y0313307D01*
X0344549Y0313428D01*
X0344434Y0313552D01*
X0344322Y0313679D01*
X0344213Y0313808D01*
X0344107Y0313940D01*
X0344005Y0314075D01*
X0343906Y0314212D01*
X0343810Y0314351D01*
X0343718Y0314493D01*
X0343629Y0314637D01*
X0343544Y0314783D01*
X0343463Y0314931D01*
X0343385Y0315081D01*
X0343311Y0315233D01*
X0343240Y0315387D01*
X0343173Y0315542D01*
X0343111Y0315699D01*
X0343052Y0315858D01*
X0342997Y0316018D01*
X0342946Y0316179D01*
X0342899Y0316341D01*
X0342855Y0316505D01*
X0342816Y0316669D01*
X0342781Y0316835D01*
X0342750Y0317001D01*
X0342724Y0317168D01*
X0342701Y0317336D01*
X0342682Y0317504D01*
X0342668Y0317672D01*
X0342657Y0317841D01*
X0342651Y0318010D01*
X0342649Y0318179D01*
X0342649Y0013061D02*
X0342651Y0013230D01*
X0342657Y0013399D01*
X0342668Y0013568D01*
X0342682Y0013736D01*
X0342701Y0013904D01*
X0342724Y0014072D01*
X0342750Y0014239D01*
X0342781Y0014405D01*
X0342816Y0014571D01*
X0342855Y0014735D01*
X0342899Y0014899D01*
X0342946Y0015061D01*
X0342997Y0015222D01*
X0343052Y0015382D01*
X0343111Y0015541D01*
X0343173Y0015698D01*
X0343240Y0015853D01*
X0343311Y0016007D01*
X0343385Y0016159D01*
X0343463Y0016309D01*
X0343544Y0016457D01*
X0343629Y0016603D01*
X0343718Y0016747D01*
X0343810Y0016889D01*
X0343906Y0017028D01*
X0344005Y0017165D01*
X0344107Y0017300D01*
X0344213Y0017432D01*
X0344322Y0017561D01*
X0344434Y0017688D01*
X0344549Y0017812D01*
X0344667Y0017933D01*
X0344788Y0018051D01*
X0344912Y0018166D01*
X0345039Y0018278D01*
X0345168Y0018387D01*
X0345300Y0018493D01*
X0345435Y0018595D01*
X0345572Y0018694D01*
X0345711Y0018790D01*
X0345853Y0018882D01*
X0345997Y0018971D01*
X0346143Y0019056D01*
X0346291Y0019137D01*
X0346441Y0019215D01*
X0346593Y0019289D01*
X0346747Y0019360D01*
X0346902Y0019427D01*
X0347059Y0019489D01*
X0347218Y0019548D01*
X0347378Y0019603D01*
X0347539Y0019654D01*
X0347701Y0019701D01*
X0347865Y0019745D01*
X0348029Y0019784D01*
X0348195Y0019819D01*
X0348361Y0019850D01*
X0348528Y0019876D01*
X0348696Y0019899D01*
X0348864Y0019918D01*
X0349032Y0019932D01*
X0349201Y0019943D01*
X0349370Y0019949D01*
X0349539Y0019951D01*
X0349708Y0019949D01*
X0349877Y0019943D01*
X0350046Y0019932D01*
X0350214Y0019918D01*
X0350382Y0019899D01*
X0350550Y0019876D01*
X0350717Y0019850D01*
X0350883Y0019819D01*
X0351049Y0019784D01*
X0351213Y0019745D01*
X0351377Y0019701D01*
X0351539Y0019654D01*
X0351700Y0019603D01*
X0351860Y0019548D01*
X0352019Y0019489D01*
X0352176Y0019427D01*
X0352331Y0019360D01*
X0352485Y0019289D01*
X0352637Y0019215D01*
X0352787Y0019137D01*
X0352935Y0019056D01*
X0353081Y0018971D01*
X0353225Y0018882D01*
X0353367Y0018790D01*
X0353506Y0018694D01*
X0353643Y0018595D01*
X0353778Y0018493D01*
X0353910Y0018387D01*
X0354039Y0018278D01*
X0354166Y0018166D01*
X0354290Y0018051D01*
X0354411Y0017933D01*
X0354529Y0017812D01*
X0354644Y0017688D01*
X0354756Y0017561D01*
X0354865Y0017432D01*
X0354971Y0017300D01*
X0355073Y0017165D01*
X0355172Y0017028D01*
X0355268Y0016889D01*
X0355360Y0016747D01*
X0355449Y0016603D01*
X0355534Y0016457D01*
X0355615Y0016309D01*
X0355693Y0016159D01*
X0355767Y0016007D01*
X0355838Y0015853D01*
X0355905Y0015698D01*
X0355967Y0015541D01*
X0356026Y0015382D01*
X0356081Y0015222D01*
X0356132Y0015061D01*
X0356179Y0014899D01*
X0356223Y0014735D01*
X0356262Y0014571D01*
X0356297Y0014405D01*
X0356328Y0014239D01*
X0356354Y0014072D01*
X0356377Y0013904D01*
X0356396Y0013736D01*
X0356410Y0013568D01*
X0356421Y0013399D01*
X0356427Y0013230D01*
X0356429Y0013061D01*
X0356427Y0012892D01*
X0356421Y0012723D01*
X0356410Y0012554D01*
X0356396Y0012386D01*
X0356377Y0012218D01*
X0356354Y0012050D01*
X0356328Y0011883D01*
X0356297Y0011717D01*
X0356262Y0011551D01*
X0356223Y0011387D01*
X0356179Y0011223D01*
X0356132Y0011061D01*
X0356081Y0010900D01*
X0356026Y0010740D01*
X0355967Y0010581D01*
X0355905Y0010424D01*
X0355838Y0010269D01*
X0355767Y0010115D01*
X0355693Y0009963D01*
X0355615Y0009813D01*
X0355534Y0009665D01*
X0355449Y0009519D01*
X0355360Y0009375D01*
X0355268Y0009233D01*
X0355172Y0009094D01*
X0355073Y0008957D01*
X0354971Y0008822D01*
X0354865Y0008690D01*
X0354756Y0008561D01*
X0354644Y0008434D01*
X0354529Y0008310D01*
X0354411Y0008189D01*
X0354290Y0008071D01*
X0354166Y0007956D01*
X0354039Y0007844D01*
X0353910Y0007735D01*
X0353778Y0007629D01*
X0353643Y0007527D01*
X0353506Y0007428D01*
X0353367Y0007332D01*
X0353225Y0007240D01*
X0353081Y0007151D01*
X0352935Y0007066D01*
X0352787Y0006985D01*
X0352637Y0006907D01*
X0352485Y0006833D01*
X0352331Y0006762D01*
X0352176Y0006695D01*
X0352019Y0006633D01*
X0351860Y0006574D01*
X0351700Y0006519D01*
X0351539Y0006468D01*
X0351377Y0006421D01*
X0351213Y0006377D01*
X0351049Y0006338D01*
X0350883Y0006303D01*
X0350717Y0006272D01*
X0350550Y0006246D01*
X0350382Y0006223D01*
X0350214Y0006204D01*
X0350046Y0006190D01*
X0349877Y0006179D01*
X0349708Y0006173D01*
X0349539Y0006171D01*
X0349370Y0006173D01*
X0349201Y0006179D01*
X0349032Y0006190D01*
X0348864Y0006204D01*
X0348696Y0006223D01*
X0348528Y0006246D01*
X0348361Y0006272D01*
X0348195Y0006303D01*
X0348029Y0006338D01*
X0347865Y0006377D01*
X0347701Y0006421D01*
X0347539Y0006468D01*
X0347378Y0006519D01*
X0347218Y0006574D01*
X0347059Y0006633D01*
X0346902Y0006695D01*
X0346747Y0006762D01*
X0346593Y0006833D01*
X0346441Y0006907D01*
X0346291Y0006985D01*
X0346143Y0007066D01*
X0345997Y0007151D01*
X0345853Y0007240D01*
X0345711Y0007332D01*
X0345572Y0007428D01*
X0345435Y0007527D01*
X0345300Y0007629D01*
X0345168Y0007735D01*
X0345039Y0007844D01*
X0344912Y0007956D01*
X0344788Y0008071D01*
X0344667Y0008189D01*
X0344549Y0008310D01*
X0344434Y0008434D01*
X0344322Y0008561D01*
X0344213Y0008690D01*
X0344107Y0008822D01*
X0344005Y0008957D01*
X0343906Y0009094D01*
X0343810Y0009233D01*
X0343718Y0009375D01*
X0343629Y0009519D01*
X0343544Y0009665D01*
X0343463Y0009813D01*
X0343385Y0009963D01*
X0343311Y0010115D01*
X0343240Y0010269D01*
X0343173Y0010424D01*
X0343111Y0010581D01*
X0343052Y0010740D01*
X0342997Y0010900D01*
X0342946Y0011061D01*
X0342899Y0011223D01*
X0342855Y0011387D01*
X0342816Y0011551D01*
X0342781Y0011717D01*
X0342750Y0011883D01*
X0342724Y0012050D01*
X0342701Y0012218D01*
X0342682Y0012386D01*
X0342668Y0012554D01*
X0342657Y0012723D01*
X0342651Y0012892D01*
X0342649Y0013061D01*
M02*
