%
M48
M72
T01C0.0138
T02C0.0315
T03C0.0354
T04C0.0380
T05C0.0394
T06C0.0400
T07C0.0630
T08C0.0689
T09C0.1378
%
T01
X702Y2684
X2277Y2684
X3852Y2684
X5426Y2684
X5426Y1109
X3852Y1109
X7001Y1109
X8576Y1109
X10151Y1109
X8576Y2684
X9363Y3865
X10544Y5046
X11726Y6227
X13300Y6227
X13792Y6227
X13792Y7212
X13300Y7802
X13300Y9377
X14088Y10755
X14631Y11345
X13300Y10952
X12907Y12527
X14088Y13019
X12907Y14101
X12316Y15381
X12316Y15732
X12316Y16070
X12316Y16408
X13694Y16660
X14088Y16267
X14481Y16267
X14481Y16660
X14481Y17054
X14088Y17054
X14088Y17448
X14481Y17448
X14481Y17842
X14088Y17842
X14088Y18235
X14481Y18235
X14875Y18235
X14875Y17842
X14875Y17448
X14875Y17054
X14875Y16660
X14875Y16267
X14875Y15873
X14481Y15873
X14481Y15479
X14875Y15381
X14875Y14987
X15269Y14987
X15269Y14594
X15663Y14594
X15663Y14987
X16056Y14987
X16056Y14594
X16450Y14594
X16450Y14987
X16844Y14987
X17237Y14987
X17237Y14594
X16844Y14594
X16844Y15381
X17237Y15381
X16450Y15381
X16056Y15381
X15663Y15381
X15269Y15381
X13694Y17448
X13694Y17842
X10741Y16408
X10741Y16070
X10741Y15732
X10741Y15381
X10151Y16857
X10151Y18038
X8576Y18038
X8576Y16857
X8576Y15282
X7001Y15282
X7001Y16857
X5820Y16857
X5820Y18038
X7001Y18038
X7001Y19613
X5820Y19613
X8576Y19613
X10151Y19613
X10151Y21188
X10151Y22763
X11726Y22763
X13300Y22763
X13300Y21975
X13694Y21582
X14088Y21582
X14481Y21582
X14481Y21188
X14088Y21188
X13694Y21188
X13300Y21188
X14088Y21975
X14875Y21975
X14875Y22763
X14875Y24338
X14875Y25912
X13300Y25912
X13300Y24338
X11726Y24338
X11726Y25912
X10151Y25912
X10151Y24338
X8576Y25912
X7789Y25912
X7789Y25519
X7395Y25519
X7395Y25912
X7001Y25912
X7001Y25519
X6607Y25519
X6214Y25519
X6214Y25912
X6607Y25912
X6607Y26306
X6214Y26306
X6214Y26700
X6607Y26700
X6607Y27094
X7001Y27094
X7001Y27487
X7395Y27487
X7395Y27094
X7789Y27094
X7789Y27487
X7789Y27881
X7789Y28275
X7395Y27881
X7395Y26700
X7789Y26700
X7789Y26306
X7395Y26306
X7001Y26306
X7001Y26700
X5426Y28275
X5426Y28668
X5033Y28668
X5033Y28275
X4639Y28275
X4639Y28668
X4245Y28668
X4245Y28275
X3852Y28275
X3852Y28668
X3852Y29062
X4147Y29062
X4147Y29456
X3852Y29456
X3852Y29849
X4147Y29849
X5918Y29849
X6214Y29849
X6214Y29456
X5918Y29456
X5918Y29062
X6214Y29062
X6607Y29456
X6607Y29849
X7001Y30243
X7001Y30637
X7001Y31031
X7395Y30637
X7001Y31424
X7001Y31818
X7001Y32212
X7395Y32212
X8576Y32212
X10151Y32212
X10151Y30637
X8576Y30637
X5820Y28668
X3852Y27881
X3852Y27487
X13300Y27487
X14875Y27487
X16450Y27487
X18025Y27487
X19600Y27487
X20781Y28865
X21174Y28471
X21568Y28078
X21962Y27684
X22355Y27290
X22749Y26897
X23143Y26503
X23537Y26109
X23930Y25716
X24324Y25322
X24718Y24928
X25111Y24534
X25505Y24141
X25899Y23747
X26292Y23353
X26686Y22960
X27080Y22566
X25899Y22763
X24324Y22763
X22749Y22763
X21174Y22763
X19600Y22763
X19600Y21385
X18025Y21779
X18025Y22763
X16450Y22763
X16450Y21779
X14875Y21188
X16450Y24338
X16450Y25912
X18025Y25912
X18025Y24338
X19600Y24338
X19600Y25912
X21174Y25912
X21174Y24338
X22749Y24338
X22749Y25912
X24324Y24338
X25899Y26306
X26292Y25912
X26686Y25519
X27080Y25125
X27474Y24731
X27867Y24731
X27867Y24338
X28261Y23944
X28655Y23550
X29048Y23156
X29048Y24338
X29048Y25912
X27474Y25912
X25505Y26700
X25111Y27094
X24718Y27487
X24718Y27881
X24324Y27881
X23930Y28275
X23537Y28668
X23143Y29062
X23143Y29456
X22749Y29456
X21371Y30188
X20584Y31086
X19993Y32408
X19600Y29062
X18025Y29062
X16450Y29062
X16056Y30188
X15269Y31086
X14875Y32408
X14875Y29062
X21174Y27487
X24324Y29062
X24127Y30188
X24915Y31129
X25111Y32408
X25505Y32408
X26292Y30188
X25899Y29062
X27080Y28275
X25899Y27487
X27867Y29849
X27867Y31818
X29048Y32212
X29442Y31818
X31017Y31818
X31017Y30637
X32592Y30637
X32887Y30243
X32887Y29849
X32887Y29456
X33281Y29456
X33281Y29849
X33281Y30243
X33281Y30637
X33674Y31031
X34068Y31031
X32592Y31818
X32493Y29849
X32493Y29456
X32493Y29062
X32887Y29062
X33281Y29062
X33281Y28668
X33281Y28275
X32887Y28275
X32887Y28668
X32493Y28668
X32493Y28275
X32887Y27881
X33281Y27881
X33281Y27487
X33281Y27094
X33281Y26700
X32887Y27487
X31804Y27094
X31017Y27094
X30623Y25912
X30623Y24338
X32198Y24338
X33084Y24731
X33084Y25912
X32198Y25519
X35446Y25912
X35840Y26700
X35840Y27094
X35840Y27487
X35840Y27881
X35840Y28275
X35840Y28668
X35840Y29062
X35840Y29456
X35840Y29849
X35840Y30243
X35840Y30637
X35840Y31031
X35446Y24731
X28950Y18038
X28163Y17645
X26785Y15971
X26785Y15578
X27178Y15578
X27178Y15184
X26785Y15184
X26391Y15578
X25899Y14889
X25111Y13708
X25111Y12133
X25111Y10558
X26686Y10558
X26686Y12133
X26899Y13389
X28261Y15282
X29836Y15282
X31411Y15282
X32985Y15282
X32985Y16857
X34560Y16857
X32985Y13708
X31411Y13708
X29836Y13708
X30229Y12133
X31411Y12133
X32985Y12133
X32985Y10558
X31411Y10558
X32985Y8983
X32985Y7408
X32985Y5834
X31411Y5834
X29836Y7408
X28261Y7408
X28261Y5834
X26686Y5834
X26686Y7408
X25111Y7408
X25111Y5834
X23537Y5834
X23537Y7408
X22950Y8590
X23537Y8983
X23537Y10558
X23537Y12133
X22949Y12271
X22949Y12664
X22949Y13058
X23527Y13094
X23392Y13432
X21733Y13314
X21733Y12468
X21733Y12130
X19257Y12215
X19257Y12553
X18564Y12553
X18564Y12215
X18564Y11877
X19257Y11877
X18025Y10558
X16844Y8983
X16056Y7802
X17237Y6621
X18812Y7408
X18812Y5046
X17237Y5046
X18812Y2684
X20387Y2684
X22552Y3046
X22950Y3275
X23537Y2684
X23537Y1109
X25111Y1109
X25111Y2684
X26686Y2684
X26686Y1109
X28261Y1109
X28261Y2684
X29836Y2684
X29836Y1109
X31411Y1109
X32985Y1109
X34167Y3078
X34560Y4259
X34560Y5834
X34560Y7408
X34560Y8983
X34560Y10558
X34560Y12133
X29836Y8983
X28261Y8983
X28261Y10558
X29836Y4259
X26292Y4259
X25111Y4259
X23537Y4259
X20387Y5046
X18418Y716
X14481Y1109
X13300Y1109
X11726Y1109
X12907Y3078
X12907Y4653
X13840Y4755
X13840Y5093
X10151Y8590
X8576Y8983
X8182Y10164
X7001Y10558
X5426Y10558
X3852Y10558
X3852Y12133
X2277Y10558
X1883Y12133
X702Y12133
X702Y10558
X702Y8983
X702Y7408
X702Y5834
X2277Y5834
X2277Y7408
X3852Y7408
X3852Y5834
X5426Y5834
X5426Y7408
X7001Y7408
X8182Y6227
X7001Y5834
X8576Y7408
X7001Y8983
X5426Y8983
X3852Y8983
X2277Y8983
X2277Y13708
X3852Y13708
X5426Y13708
X5426Y15282
X3852Y15282
X2277Y15282
X702Y15282
X702Y13708
X7001Y13708
X8576Y13708
X16056Y12920
X17237Y12920
X16056Y11739
X19206Y14495
X20297Y14495
X25702Y19121
X26096Y19121
X26489Y19121
X26096Y18727
X26096Y19515
X7001Y2684
X3852Y4259
X1883Y4259
X702Y4259
T02
X32249Y13216
X32249Y14216
X32249Y15216
X32249Y16216
X35249Y16216
X35249Y15216
X35249Y14216
X35249Y13216
T03
X33576Y8393
X30623Y8393
X27277Y4456
X24324Y4456
X25505Y13905
X28458Y13905
X12021Y8196
X9068Y8196
X5722Y12133
X2769Y12133
X9501Y15026
X11588Y17114
X5722Y4259
X2769Y4259
T04
X15320Y3790
X16320Y3790
X16320Y4790
X15320Y4790
X15320Y5790
X16320Y5790
X15320Y6790
X15320Y7790
X15320Y8790
X15320Y9790
X15320Y10790
X15320Y11790
X15320Y12790
X15320Y13790
X16320Y13790
X17320Y13790
X18320Y13790
X19320Y13790
X20320Y13790
X21320Y13790
X21320Y12790
X21320Y11790
X21320Y10790
X21320Y9790
X21320Y8790
X21320Y7790
X21320Y6790
X21320Y5790
X21320Y4790
X21320Y3790
X21320Y2790
X21320Y1790
X21320Y790
X16320Y1790
X15320Y1790
X15320Y790
X15320Y2790
T05
X18418Y6306
X18418Y9298
T06
X9773Y29416
X8773Y29416
X7773Y29416
X29623Y29727
X30623Y29727
X31623Y29727
T07
X26785Y29456
X26785Y31621
X23438Y31621
X21273Y31621
X18123Y31621
X15958Y31621
X12513Y31621
X12513Y29456
X12253Y2416
X10088Y2416
T08
X2828Y23365
X1489Y23365
X1489Y28668
X2828Y28668
T09
X1489Y1306
X1489Y31818
X34954Y31818
X34954Y1306
M30
